G04 #@! TF.FileFunction,Legend,Bot*
%FSLAX46Y46*%
G04 Gerber Fmt 4.6, Leading zero omitted, Abs format (unit mm)*
G04 Created by KiCad (PCBNEW (after 2015-mar-04 BZR unknown)-product) date 2015年06月14日日曜日 16:42:44*
%MOMM*%
G01*
G04 APERTURE LIST*
%ADD10C,0.100000*%
%ADD11C,0.150000*%
%ADD12C,0.250000*%
%ADD13R,2.400000X4.400000*%
%ADD14R,4.400000X2.400000*%
%ADD15R,2.400000X4.900000*%
%ADD16R,1.400000X1.400000*%
%ADD17C,1.400000*%
%ADD18R,2.127200X2.432000*%
%ADD19O,2.127200X2.432000*%
%ADD20C,1.924000*%
%ADD21R,1.930000X1.930000*%
%ADD22C,1.930000*%
%ADD23C,3.575000*%
G04 APERTURE END LIST*
D10*
D11*
X16684238Y51905619D02*
X16684238Y51096095D01*
X16636619Y51000857D01*
X16589000Y50953238D01*
X16493762Y50905619D01*
X16303285Y50905619D01*
X16208047Y50953238D01*
X16160428Y51000857D01*
X16112809Y51096095D01*
X16112809Y51905619D01*
X15684238Y50953238D02*
X15541381Y50905619D01*
X15303285Y50905619D01*
X15208047Y50953238D01*
X15160428Y51000857D01*
X15112809Y51096095D01*
X15112809Y51191333D01*
X15160428Y51286571D01*
X15208047Y51334190D01*
X15303285Y51381810D01*
X15493762Y51429429D01*
X15589000Y51477048D01*
X15636619Y51524667D01*
X15684238Y51619905D01*
X15684238Y51715143D01*
X15636619Y51810381D01*
X15589000Y51858000D01*
X15493762Y51905619D01*
X15255666Y51905619D01*
X15112809Y51858000D01*
X14350904Y51429429D02*
X14208047Y51381810D01*
X14160428Y51334190D01*
X14112809Y51238952D01*
X14112809Y51096095D01*
X14160428Y51000857D01*
X14208047Y50953238D01*
X14303285Y50905619D01*
X14684238Y50905619D01*
X14684238Y51905619D01*
X14350904Y51905619D01*
X14255666Y51858000D01*
X14208047Y51810381D01*
X14160428Y51715143D01*
X14160428Y51619905D01*
X14208047Y51524667D01*
X14255666Y51477048D01*
X14350904Y51429429D01*
X14684238Y51429429D01*
X13684238Y51286571D02*
X12922333Y51286571D01*
X12446143Y50905619D02*
X12446143Y51905619D01*
X12017572Y50953238D02*
X11874715Y50905619D01*
X11636619Y50905619D01*
X11541381Y50953238D01*
X11493762Y51000857D01*
X11446143Y51096095D01*
X11446143Y51191333D01*
X11493762Y51286571D01*
X11541381Y51334190D01*
X11636619Y51381810D01*
X11827096Y51429429D01*
X11922334Y51477048D01*
X11969953Y51524667D01*
X12017572Y51619905D01*
X12017572Y51715143D01*
X11969953Y51810381D01*
X11922334Y51858000D01*
X11827096Y51905619D01*
X11589000Y51905619D01*
X11446143Y51858000D01*
X11017572Y50905619D02*
X11017572Y51905619D01*
X10636619Y51905619D01*
X10541381Y51858000D01*
X10493762Y51810381D01*
X10446143Y51715143D01*
X10446143Y51572286D01*
X10493762Y51477048D01*
X10541381Y51429429D01*
X10636619Y51381810D01*
X11017572Y51381810D01*
X8127571Y51905619D02*
X8127571Y51096095D01*
X8079952Y51000857D01*
X8032333Y50953238D01*
X7937095Y50905619D01*
X7746618Y50905619D01*
X7651380Y50953238D01*
X7603761Y51000857D01*
X7556142Y51096095D01*
X7556142Y51905619D01*
X7127571Y51191333D02*
X6651380Y51191333D01*
X7222809Y50905619D02*
X6889476Y51905619D01*
X6556142Y50905619D01*
X5651380Y50905619D02*
X5984714Y51381810D01*
X6222809Y50905619D02*
X6222809Y51905619D01*
X5841856Y51905619D01*
X5746618Y51858000D01*
X5698999Y51810381D01*
X5651380Y51715143D01*
X5651380Y51572286D01*
X5698999Y51477048D01*
X5746618Y51429429D01*
X5841856Y51381810D01*
X6222809Y51381810D01*
X5365666Y51905619D02*
X4794237Y51905619D01*
X5079952Y50905619D02*
X5079952Y51905619D01*
X4460904Y51286571D02*
X3698999Y51286571D01*
X3222809Y50905619D02*
X3222809Y51905619D01*
X2794238Y50953238D02*
X2651381Y50905619D01*
X2413285Y50905619D01*
X2318047Y50953238D01*
X2270428Y51000857D01*
X2222809Y51096095D01*
X2222809Y51191333D01*
X2270428Y51286571D01*
X2318047Y51334190D01*
X2413285Y51381810D01*
X2603762Y51429429D01*
X2699000Y51477048D01*
X2746619Y51524667D01*
X2794238Y51619905D01*
X2794238Y51715143D01*
X2746619Y51810381D01*
X2699000Y51858000D01*
X2603762Y51905619D01*
X2365666Y51905619D01*
X2222809Y51858000D01*
X1794238Y50905619D02*
X1794238Y51905619D01*
X1413285Y51905619D01*
X1318047Y51858000D01*
X1270428Y51810381D01*
X1222809Y51715143D01*
X1222809Y51572286D01*
X1270428Y51477048D01*
X1318047Y51429429D01*
X1413285Y51381810D01*
X1794238Y51381810D01*
D12*
X45932381Y39299526D02*
X46741905Y39299526D01*
X46837143Y39251907D01*
X46884762Y39204288D01*
X46932381Y39109050D01*
X46932381Y38918573D01*
X46884762Y38823335D01*
X46837143Y38775716D01*
X46741905Y38728097D01*
X45932381Y38728097D01*
X46265714Y38251907D02*
X46932381Y38251907D01*
X46360952Y38251907D02*
X46313333Y38204288D01*
X46265714Y38109050D01*
X46265714Y37966192D01*
X46313333Y37870954D01*
X46408571Y37823335D01*
X46932381Y37823335D01*
X46932381Y37347145D02*
X46265714Y37347145D01*
X45932381Y37347145D02*
X45980000Y37394764D01*
X46027619Y37347145D01*
X45980000Y37299526D01*
X45932381Y37347145D01*
X46027619Y37347145D01*
X46265714Y36966193D02*
X46932381Y36728098D01*
X46265714Y36490002D01*
X46884762Y35728097D02*
X46932381Y35823335D01*
X46932381Y36013812D01*
X46884762Y36109050D01*
X46789524Y36156669D01*
X46408571Y36156669D01*
X46313333Y36109050D01*
X46265714Y36013812D01*
X46265714Y35823335D01*
X46313333Y35728097D01*
X46408571Y35680478D01*
X46503810Y35680478D01*
X46599048Y36156669D01*
X46932381Y35251907D02*
X46265714Y35251907D01*
X46456190Y35251907D02*
X46360952Y35204288D01*
X46313333Y35156669D01*
X46265714Y35061431D01*
X46265714Y34966192D01*
X46884762Y34680478D02*
X46932381Y34585240D01*
X46932381Y34394764D01*
X46884762Y34299525D01*
X46789524Y34251906D01*
X46741905Y34251906D01*
X46646667Y34299525D01*
X46599048Y34394764D01*
X46599048Y34537621D01*
X46551429Y34632859D01*
X46456190Y34680478D01*
X46408571Y34680478D01*
X46313333Y34632859D01*
X46265714Y34537621D01*
X46265714Y34394764D01*
X46313333Y34299525D01*
X46932381Y33394763D02*
X46408571Y33394763D01*
X46313333Y33442382D01*
X46265714Y33537620D01*
X46265714Y33728097D01*
X46313333Y33823335D01*
X46884762Y33394763D02*
X46932381Y33490001D01*
X46932381Y33728097D01*
X46884762Y33823335D01*
X46789524Y33870954D01*
X46694286Y33870954D01*
X46599048Y33823335D01*
X46551429Y33728097D01*
X46551429Y33490001D01*
X46503810Y33394763D01*
X46932381Y32775716D02*
X46884762Y32870954D01*
X46789524Y32918573D01*
X45932381Y32918573D01*
X46408571Y31632858D02*
X46408571Y31299524D01*
X46932381Y31156667D02*
X46932381Y31632858D01*
X45932381Y31632858D01*
X45932381Y31156667D01*
X46932381Y30728096D02*
X46265714Y30728096D01*
X46360952Y30728096D02*
X46313333Y30680477D01*
X46265714Y30585239D01*
X46265714Y30442381D01*
X46313333Y30347143D01*
X46408571Y30299524D01*
X46932381Y30299524D01*
X46408571Y30299524D02*
X46313333Y30251905D01*
X46265714Y30156667D01*
X46265714Y30013810D01*
X46313333Y29918572D01*
X46408571Y29870953D01*
X46932381Y29870953D01*
X46932381Y29394763D02*
X45932381Y29394763D01*
X46313333Y29394763D02*
X46265714Y29299525D01*
X46265714Y29109048D01*
X46313333Y29013810D01*
X46360952Y28966191D01*
X46456190Y28918572D01*
X46741905Y28918572D01*
X46837143Y28966191D01*
X46884762Y29013810D01*
X46932381Y29109048D01*
X46932381Y29299525D01*
X46884762Y29394763D01*
X46884762Y28109048D02*
X46932381Y28204286D01*
X46932381Y28394763D01*
X46884762Y28490001D01*
X46789524Y28537620D01*
X46408571Y28537620D01*
X46313333Y28490001D01*
X46265714Y28394763D01*
X46265714Y28204286D01*
X46313333Y28109048D01*
X46408571Y28061429D01*
X46503810Y28061429D01*
X46599048Y28537620D01*
X46932381Y27204286D02*
X45932381Y27204286D01*
X46884762Y27204286D02*
X46932381Y27299524D01*
X46932381Y27490001D01*
X46884762Y27585239D01*
X46837143Y27632858D01*
X46741905Y27680477D01*
X46456190Y27680477D01*
X46360952Y27632858D01*
X46313333Y27585239D01*
X46265714Y27490001D01*
X46265714Y27299524D01*
X46313333Y27204286D01*
X46932381Y26299524D02*
X45932381Y26299524D01*
X46884762Y26299524D02*
X46932381Y26394762D01*
X46932381Y26585239D01*
X46884762Y26680477D01*
X46837143Y26728096D01*
X46741905Y26775715D01*
X46456190Y26775715D01*
X46360952Y26728096D01*
X46313333Y26680477D01*
X46265714Y26585239D01*
X46265714Y26394762D01*
X46313333Y26299524D01*
X46884762Y25442381D02*
X46932381Y25537619D01*
X46932381Y25728096D01*
X46884762Y25823334D01*
X46789524Y25870953D01*
X46408571Y25870953D01*
X46313333Y25823334D01*
X46265714Y25728096D01*
X46265714Y25537619D01*
X46313333Y25442381D01*
X46408571Y25394762D01*
X46503810Y25394762D01*
X46599048Y25870953D01*
X46932381Y24537619D02*
X45932381Y24537619D01*
X46884762Y24537619D02*
X46932381Y24632857D01*
X46932381Y24823334D01*
X46884762Y24918572D01*
X46837143Y24966191D01*
X46741905Y25013810D01*
X46456190Y25013810D01*
X46360952Y24966191D01*
X46313333Y24918572D01*
X46265714Y24823334D01*
X46265714Y24632857D01*
X46313333Y24537619D01*
X46408571Y22966190D02*
X46456190Y22823333D01*
X46503810Y22775714D01*
X46599048Y22728095D01*
X46741905Y22728095D01*
X46837143Y22775714D01*
X46884762Y22823333D01*
X46932381Y22918571D01*
X46932381Y23299524D01*
X45932381Y23299524D01*
X45932381Y22966190D01*
X45980000Y22870952D01*
X46027619Y22823333D01*
X46122857Y22775714D01*
X46218095Y22775714D01*
X46313333Y22823333D01*
X46360952Y22870952D01*
X46408571Y22966190D01*
X46408571Y23299524D01*
X46932381Y22156667D02*
X46884762Y22251905D01*
X46837143Y22299524D01*
X46741905Y22347143D01*
X46456190Y22347143D01*
X46360952Y22299524D01*
X46313333Y22251905D01*
X46265714Y22156667D01*
X46265714Y22013809D01*
X46313333Y21918571D01*
X46360952Y21870952D01*
X46456190Y21823333D01*
X46741905Y21823333D01*
X46837143Y21870952D01*
X46884762Y21918571D01*
X46932381Y22013809D01*
X46932381Y22156667D01*
X46932381Y20966190D02*
X46408571Y20966190D01*
X46313333Y21013809D01*
X46265714Y21109047D01*
X46265714Y21299524D01*
X46313333Y21394762D01*
X46884762Y20966190D02*
X46932381Y21061428D01*
X46932381Y21299524D01*
X46884762Y21394762D01*
X46789524Y21442381D01*
X46694286Y21442381D01*
X46599048Y21394762D01*
X46551429Y21299524D01*
X46551429Y21061428D01*
X46503810Y20966190D01*
X46932381Y20490000D02*
X46265714Y20490000D01*
X46456190Y20490000D02*
X46360952Y20442381D01*
X46313333Y20394762D01*
X46265714Y20299524D01*
X46265714Y20204285D01*
X46932381Y19442380D02*
X45932381Y19442380D01*
X46884762Y19442380D02*
X46932381Y19537618D01*
X46932381Y19728095D01*
X46884762Y19823333D01*
X46837143Y19870952D01*
X46741905Y19918571D01*
X46456190Y19918571D01*
X46360952Y19870952D01*
X46313333Y19823333D01*
X46265714Y19728095D01*
X46265714Y19537618D01*
X46313333Y19442380D01*
X46265714Y18347142D02*
X46265714Y17966190D01*
X46932381Y18204285D02*
X46075238Y18204285D01*
X45980000Y18156666D01*
X45932381Y18061428D01*
X45932381Y17966190D01*
X46932381Y17489999D02*
X46884762Y17585237D01*
X46837143Y17632856D01*
X46741905Y17680475D01*
X46456190Y17680475D01*
X46360952Y17632856D01*
X46313333Y17585237D01*
X46265714Y17489999D01*
X46265714Y17347141D01*
X46313333Y17251903D01*
X46360952Y17204284D01*
X46456190Y17156665D01*
X46741905Y17156665D01*
X46837143Y17204284D01*
X46884762Y17251903D01*
X46932381Y17347141D01*
X46932381Y17489999D01*
X46932381Y16728094D02*
X46265714Y16728094D01*
X46456190Y16728094D02*
X46360952Y16680475D01*
X46313333Y16632856D01*
X46265714Y16537618D01*
X46265714Y16442379D01*
X46932381Y14870950D02*
X46932381Y15347141D01*
X45932381Y15347141D01*
X46932381Y14537617D02*
X45932381Y14537617D01*
X45932381Y14156664D01*
X45980000Y14061426D01*
X46027619Y14013807D01*
X46122857Y13966188D01*
X46265714Y13966188D01*
X46360952Y14013807D01*
X46408571Y14061426D01*
X46456190Y14156664D01*
X46456190Y14537617D01*
X46837143Y12966188D02*
X46884762Y13013807D01*
X46932381Y13156664D01*
X46932381Y13251902D01*
X46884762Y13394760D01*
X46789524Y13489998D01*
X46694286Y13537617D01*
X46503810Y13585236D01*
X46360952Y13585236D01*
X46170476Y13537617D01*
X46075238Y13489998D01*
X45980000Y13394760D01*
X45932381Y13251902D01*
X45932381Y13156664D01*
X45980000Y13013807D01*
X46027619Y12966188D01*
X46932381Y12013807D02*
X46932381Y12585236D01*
X46932381Y12299522D02*
X45932381Y12299522D01*
X46075238Y12394760D01*
X46170476Y12489998D01*
X46218095Y12585236D01*
X46932381Y11061426D02*
X46932381Y11632855D01*
X46932381Y11347141D02*
X45932381Y11347141D01*
X46075238Y11442379D01*
X46170476Y11537617D01*
X46218095Y11632855D01*
X45932381Y10632855D02*
X46741905Y10632855D01*
X46837143Y10585236D01*
X46884762Y10537617D01*
X46932381Y10442379D01*
X46932381Y10251902D01*
X46884762Y10156664D01*
X46837143Y10109045D01*
X46741905Y10061426D01*
X45932381Y10061426D01*
X45932381Y9156664D02*
X45932381Y9347141D01*
X45980000Y9442379D01*
X46027619Y9489998D01*
X46170476Y9585236D01*
X46360952Y9632855D01*
X46741905Y9632855D01*
X46837143Y9585236D01*
X46884762Y9537617D01*
X46932381Y9442379D01*
X46932381Y9251902D01*
X46884762Y9156664D01*
X46837143Y9109045D01*
X46741905Y9061426D01*
X46503810Y9061426D01*
X46408571Y9109045D01*
X46360952Y9156664D01*
X46313333Y9251902D01*
X46313333Y9442379D01*
X46360952Y9537617D01*
X46408571Y9585236D01*
X46503810Y9632855D01*
X46360952Y8489998D02*
X46313333Y8585236D01*
X46265714Y8632855D01*
X46170476Y8680474D01*
X46122857Y8680474D01*
X46027619Y8632855D01*
X45980000Y8585236D01*
X45932381Y8489998D01*
X45932381Y8299521D01*
X45980000Y8204283D01*
X46027619Y8156664D01*
X46122857Y8109045D01*
X46170476Y8109045D01*
X46265714Y8156664D01*
X46313333Y8204283D01*
X46360952Y8299521D01*
X46360952Y8489998D01*
X46408571Y8585236D01*
X46456190Y8632855D01*
X46551429Y8680474D01*
X46741905Y8680474D01*
X46837143Y8632855D01*
X46884762Y8585236D01*
X46932381Y8489998D01*
X46932381Y8299521D01*
X46884762Y8204283D01*
X46837143Y8156664D01*
X46741905Y8109045D01*
X46551429Y8109045D01*
X46456190Y8156664D01*
X46408571Y8204283D01*
X46360952Y8299521D01*
X46837143Y7680474D02*
X46884762Y7632855D01*
X46932381Y7680474D01*
X46884762Y7728093D01*
X46837143Y7680474D01*
X46932381Y7680474D01*
X46210476Y66398095D02*
X46162857Y66493333D01*
X46162857Y66683809D01*
X46210476Y66779047D01*
X46305714Y66874285D01*
X46400952Y66921904D01*
X46591429Y66921904D01*
X46686667Y66874285D01*
X46781905Y66779047D01*
X46829524Y66683809D01*
X46829524Y66493333D01*
X46781905Y66398095D01*
X45829524Y66588571D02*
X45877143Y66826666D01*
X46020000Y67064762D01*
X46258095Y67207619D01*
X46496190Y67255238D01*
X46734286Y67207619D01*
X46972381Y67064762D01*
X47115238Y66826666D01*
X47162857Y66588571D01*
X47115238Y66350476D01*
X46972381Y66112381D01*
X46734286Y65969524D01*
X46496190Y65921904D01*
X46258095Y65969524D01*
X46020000Y66112381D01*
X45877143Y66350476D01*
X45829524Y66588571D01*
X46972381Y65493333D02*
X45972381Y65493333D01*
X46448571Y65493333D02*
X46448571Y64921904D01*
X46972381Y64921904D02*
X45972381Y64921904D01*
X46686667Y64493333D02*
X46686667Y64017142D01*
X46972381Y64588571D02*
X45972381Y64255238D01*
X46972381Y63921904D01*
X46972381Y63588571D02*
X45972381Y63588571D01*
X45972381Y63207618D01*
X46020000Y63112380D01*
X46067619Y63064761D01*
X46162857Y63017142D01*
X46305714Y63017142D01*
X46400952Y63064761D01*
X46448571Y63112380D01*
X46496190Y63207618D01*
X46496190Y63588571D01*
X46972381Y62588571D02*
X45972381Y62588571D01*
X46591429Y62112381D02*
X46591429Y61350476D01*
X45972381Y61017143D02*
X45972381Y60445714D01*
X46972381Y60731429D02*
X45972381Y60731429D01*
X46924762Y59731428D02*
X46972381Y59826666D01*
X46972381Y60017143D01*
X46924762Y60112381D01*
X46829524Y60160000D01*
X46448571Y60160000D01*
X46353333Y60112381D01*
X46305714Y60017143D01*
X46305714Y59826666D01*
X46353333Y59731428D01*
X46448571Y59683809D01*
X46543810Y59683809D01*
X46639048Y60160000D01*
X46924762Y58826666D02*
X46972381Y58921904D01*
X46972381Y59112381D01*
X46924762Y59207619D01*
X46877143Y59255238D01*
X46781905Y59302857D01*
X46496190Y59302857D01*
X46400952Y59255238D01*
X46353333Y59207619D01*
X46305714Y59112381D01*
X46305714Y58921904D01*
X46353333Y58826666D01*
X46972381Y58398095D02*
X45972381Y58398095D01*
X46972381Y57969523D02*
X46448571Y57969523D01*
X46353333Y58017142D01*
X46305714Y58112380D01*
X46305714Y58255238D01*
X46353333Y58350476D01*
X46400952Y58398095D01*
X46924762Y57540952D02*
X46972381Y57398095D01*
X46972381Y57159999D01*
X46924762Y57064761D01*
X46877143Y57017142D01*
X46781905Y56969523D01*
X46686667Y56969523D01*
X46591429Y57017142D01*
X46543810Y57064761D01*
X46496190Y57159999D01*
X46448571Y57350476D01*
X46400952Y57445714D01*
X46353333Y57493333D01*
X46258095Y57540952D01*
X46162857Y57540952D01*
X46067619Y57493333D01*
X46020000Y57445714D01*
X45972381Y57350476D01*
X45972381Y57112380D01*
X46020000Y56969523D01*
X46972381Y56398095D02*
X46924762Y56493333D01*
X46877143Y56540952D01*
X46781905Y56588571D01*
X46496190Y56588571D01*
X46400952Y56540952D01*
X46353333Y56493333D01*
X46305714Y56398095D01*
X46305714Y56255237D01*
X46353333Y56159999D01*
X46400952Y56112380D01*
X46496190Y56064761D01*
X46781905Y56064761D01*
X46877143Y56112380D01*
X46924762Y56159999D01*
X46972381Y56255237D01*
X46972381Y56398095D01*
X46972381Y55493333D02*
X46924762Y55588571D01*
X46829524Y55636190D01*
X45972381Y55636190D01*
X46305714Y54683808D02*
X46972381Y54683808D01*
X46305714Y55112380D02*
X46829524Y55112380D01*
X46924762Y55064761D01*
X46972381Y54969523D01*
X46972381Y54826665D01*
X46924762Y54731427D01*
X46877143Y54683808D01*
X46305714Y54350475D02*
X46305714Y53969523D01*
X45972381Y54207618D02*
X46829524Y54207618D01*
X46924762Y54159999D01*
X46972381Y54064761D01*
X46972381Y53969523D01*
X46972381Y53636189D02*
X46305714Y53636189D01*
X45972381Y53636189D02*
X46020000Y53683808D01*
X46067619Y53636189D01*
X46020000Y53588570D01*
X45972381Y53636189D01*
X46067619Y53636189D01*
X46972381Y53017142D02*
X46924762Y53112380D01*
X46877143Y53159999D01*
X46781905Y53207618D01*
X46496190Y53207618D01*
X46400952Y53159999D01*
X46353333Y53112380D01*
X46305714Y53017142D01*
X46305714Y52874284D01*
X46353333Y52779046D01*
X46400952Y52731427D01*
X46496190Y52683808D01*
X46781905Y52683808D01*
X46877143Y52731427D01*
X46924762Y52779046D01*
X46972381Y52874284D01*
X46972381Y53017142D01*
X46305714Y52255237D02*
X46972381Y52255237D01*
X46400952Y52255237D02*
X46353333Y52207618D01*
X46305714Y52112380D01*
X46305714Y51969522D01*
X46353333Y51874284D01*
X46448571Y51826665D01*
X46972381Y51826665D01*
X46924762Y51302856D02*
X46972381Y51302856D01*
X47067619Y51350475D01*
X47115238Y51398094D01*
X46972381Y50874285D02*
X45972381Y50874285D01*
X46305714Y50398095D02*
X46972381Y50398095D01*
X46400952Y50398095D02*
X46353333Y50350476D01*
X46305714Y50255238D01*
X46305714Y50112380D01*
X46353333Y50017142D01*
X46448571Y49969523D01*
X46972381Y49969523D01*
X46924762Y49064761D02*
X46972381Y49159999D01*
X46972381Y49350476D01*
X46924762Y49445714D01*
X46877143Y49493333D01*
X46781905Y49540952D01*
X46496190Y49540952D01*
X46400952Y49493333D01*
X46353333Y49445714D01*
X46305714Y49350476D01*
X46305714Y49159999D01*
X46353333Y49064761D01*
D11*
X22288286Y16980619D02*
X21954953Y15980619D01*
X21621619Y16980619D01*
X20716857Y15980619D02*
X21050191Y16456810D01*
X21288286Y15980619D02*
X21288286Y16980619D01*
X20907333Y16980619D01*
X20812095Y16933000D01*
X20764476Y16885381D01*
X20716857Y16790143D01*
X20716857Y16647286D01*
X20764476Y16552048D01*
X20812095Y16504429D01*
X20907333Y16456810D01*
X21288286Y16456810D01*
X20288286Y16504429D02*
X19954952Y16504429D01*
X19812095Y15980619D02*
X20288286Y15980619D01*
X20288286Y16980619D01*
X19812095Y16980619D01*
X19050190Y16504429D02*
X19383524Y16504429D01*
X19383524Y15980619D02*
X19383524Y16980619D01*
X18907333Y16980619D01*
X22447000Y10646571D02*
X21685095Y10646571D01*
X22066047Y10265619D02*
X22066047Y11027524D01*
X21304143Y11265619D02*
X20685095Y11265619D01*
X21018429Y10884667D01*
X20875571Y10884667D01*
X20780333Y10837048D01*
X20732714Y10789429D01*
X20685095Y10694190D01*
X20685095Y10456095D01*
X20732714Y10360857D01*
X20780333Y10313238D01*
X20875571Y10265619D01*
X21161286Y10265619D01*
X21256524Y10313238D01*
X21304143Y10360857D01*
X20256524Y10360857D02*
X20208905Y10313238D01*
X20256524Y10265619D01*
X20304143Y10313238D01*
X20256524Y10360857D01*
X20256524Y10265619D01*
X19875572Y11265619D02*
X19256524Y11265619D01*
X19589858Y10884667D01*
X19447000Y10884667D01*
X19351762Y10837048D01*
X19304143Y10789429D01*
X19256524Y10694190D01*
X19256524Y10456095D01*
X19304143Y10360857D01*
X19351762Y10313238D01*
X19447000Y10265619D01*
X19732715Y10265619D01*
X19827953Y10313238D01*
X19875572Y10360857D01*
X18970810Y11265619D02*
X18637477Y10265619D01*
X18304143Y11265619D01*
X24742857Y40033333D02*
X24266666Y40033333D01*
X24838095Y39747619D02*
X24504762Y40747619D01*
X24171428Y39747619D01*
X23266666Y39747619D02*
X23600000Y40223810D01*
X23838095Y39747619D02*
X23838095Y40747619D01*
X23457142Y40747619D01*
X23361904Y40700000D01*
X23314285Y40652381D01*
X23266666Y40557143D01*
X23266666Y40414286D01*
X23314285Y40319048D01*
X23361904Y40271429D01*
X23457142Y40223810D01*
X23838095Y40223810D01*
X22838095Y40271429D02*
X22504761Y40271429D01*
X22361904Y39747619D02*
X22838095Y39747619D01*
X22838095Y40747619D01*
X22361904Y40747619D01*
X21599999Y40271429D02*
X21933333Y40271429D01*
X21933333Y39747619D02*
X21933333Y40747619D01*
X21457142Y40747619D01*
X20552380Y40700000D02*
X20647618Y40747619D01*
X20790475Y40747619D01*
X20933333Y40700000D01*
X21028571Y40604762D01*
X21076190Y40509524D01*
X21123809Y40319048D01*
X21123809Y40176190D01*
X21076190Y39985714D01*
X21028571Y39890476D01*
X20933333Y39795238D01*
X20790475Y39747619D01*
X20695237Y39747619D01*
X20552380Y39795238D01*
X20504761Y39842857D01*
X20504761Y40176190D01*
X20695237Y40176190D01*
X20076190Y39747619D02*
X20076190Y40747619D01*
X19504761Y39747619D01*
X19504761Y40747619D01*
X19028571Y39747619D02*
X19028571Y40747619D01*
X18790476Y40747619D01*
X18647618Y40700000D01*
X18552380Y40604762D01*
X18504761Y40509524D01*
X18457142Y40319048D01*
X18457142Y40176190D01*
X18504761Y39985714D01*
X18552380Y39890476D01*
X18647618Y39795238D01*
X18790476Y39747619D01*
X19028571Y39747619D01*
X16261904Y40700000D02*
X16357142Y40747619D01*
X16499999Y40747619D01*
X16642857Y40700000D01*
X16738095Y40604762D01*
X16785714Y40509524D01*
X16833333Y40319048D01*
X16833333Y40176190D01*
X16785714Y39985714D01*
X16738095Y39890476D01*
X16642857Y39795238D01*
X16499999Y39747619D01*
X16404761Y39747619D01*
X16261904Y39795238D01*
X16214285Y39842857D01*
X16214285Y40176190D01*
X16404761Y40176190D01*
X15785714Y39747619D02*
X15785714Y40747619D01*
X15214285Y39747619D01*
X15214285Y40747619D01*
X14738095Y39747619D02*
X14738095Y40747619D01*
X14500000Y40747619D01*
X14357142Y40700000D01*
X14261904Y40604762D01*
X14214285Y40509524D01*
X14166666Y40319048D01*
X14166666Y40176190D01*
X14214285Y39985714D01*
X14261904Y39890476D01*
X14357142Y39795238D01*
X14500000Y39747619D01*
X14738095Y39747619D01*
X18933333Y43797619D02*
X18933333Y43083333D01*
X18980953Y42940476D01*
X19076191Y42845238D01*
X19219048Y42797619D01*
X19314286Y42797619D01*
X18457143Y42797619D02*
X18457143Y43797619D01*
X18076190Y43797619D01*
X17980952Y43750000D01*
X17933333Y43702381D01*
X17885714Y43607143D01*
X17885714Y43464286D01*
X17933333Y43369048D01*
X17980952Y43321429D01*
X18076190Y43273810D01*
X18457143Y43273810D01*
X16933333Y42797619D02*
X17504762Y42797619D01*
X17219048Y42797619D02*
X17219048Y43797619D01*
X17314286Y43654762D01*
X17409524Y43559524D01*
X17504762Y43511905D01*
X18867333Y14186619D02*
X18867333Y13472333D01*
X18914953Y13329476D01*
X19010191Y13234238D01*
X19153048Y13186619D01*
X19248286Y13186619D01*
X18391143Y13186619D02*
X18391143Y14186619D01*
X18010190Y14186619D01*
X17914952Y14139000D01*
X17867333Y14091381D01*
X17819714Y13996143D01*
X17819714Y13853286D01*
X17867333Y13758048D01*
X17914952Y13710429D01*
X18010190Y13662810D01*
X18391143Y13662810D01*
X17438762Y14091381D02*
X17391143Y14139000D01*
X17295905Y14186619D01*
X17057809Y14186619D01*
X16962571Y14139000D01*
X16914952Y14091381D01*
X16867333Y13996143D01*
X16867333Y13900905D01*
X16914952Y13758048D01*
X17486381Y13186619D01*
X16867333Y13186619D01*
X10231333Y54699619D02*
X10231333Y53985333D01*
X10278953Y53842476D01*
X10374191Y53747238D01*
X10517048Y53699619D01*
X10612286Y53699619D01*
X9755143Y53699619D02*
X9755143Y54699619D01*
X9374190Y54699619D01*
X9278952Y54652000D01*
X9231333Y54604381D01*
X9183714Y54509143D01*
X9183714Y54366286D01*
X9231333Y54271048D01*
X9278952Y54223429D01*
X9374190Y54175810D01*
X9755143Y54175810D01*
X8850381Y54699619D02*
X8231333Y54699619D01*
X8564667Y54318667D01*
X8421809Y54318667D01*
X8326571Y54271048D01*
X8278952Y54223429D01*
X8231333Y54128190D01*
X8231333Y53890095D01*
X8278952Y53794857D01*
X8326571Y53747238D01*
X8421809Y53699619D01*
X8707524Y53699619D01*
X8802762Y53747238D01*
X8850381Y53794857D01*
%LPC*%
D13*
X7800000Y47750000D03*
D14*
X10800000Y42850000D03*
D15*
X13800000Y47750000D03*
D16*
X50005000Y64370000D03*
D17*
X51275000Y64370000D03*
X50005000Y63100000D03*
X51275000Y63100000D03*
X50005000Y61830000D03*
X51275000Y61830000D03*
X50005000Y60560000D03*
X51275000Y60560000D03*
X50005000Y59290000D03*
X51275000Y59290000D03*
D18*
X27190000Y2630000D03*
D19*
X24650000Y2630000D03*
X22110000Y2630000D03*
X19570000Y2630000D03*
X17030000Y2630000D03*
X14490000Y2630000D03*
D10*
G36*
X47298000Y27896000D02*
X49222000Y27896000D01*
X49222000Y25972000D01*
X47298000Y25972000D01*
X47298000Y27896000D01*
X47298000Y27896000D01*
G37*
D20*
X48260000Y29474000D03*
X48260000Y32014000D03*
X48260000Y34554000D03*
X48260000Y37094000D03*
X48260000Y39634000D03*
X48260000Y42174000D03*
X48260000Y44714000D03*
X48260000Y47254000D03*
X48260000Y49794000D03*
D10*
G36*
X47298000Y4128000D02*
X47298000Y6052000D01*
X49222000Y6052000D01*
X49222000Y4128000D01*
X47298000Y4128000D01*
X47298000Y4128000D01*
G37*
D20*
X48260000Y7630000D03*
X48260000Y10170000D03*
X48260000Y12710000D03*
X48260000Y15250000D03*
X48260000Y17790000D03*
X48260000Y22870000D03*
X48260000Y20330000D03*
D10*
G36*
X4118000Y21908000D02*
X4118000Y23832000D01*
X6042000Y23832000D01*
X6042000Y21908000D01*
X4118000Y21908000D01*
X4118000Y21908000D01*
G37*
D20*
X5080000Y25410000D03*
X5080000Y27950000D03*
X5080000Y30490000D03*
X5080000Y33030000D03*
X5080000Y35570000D03*
X5080000Y38110000D03*
X5080000Y40650000D03*
D10*
G36*
X6042000Y6052000D02*
X6042000Y4128000D01*
X4118000Y4128000D01*
X4118000Y6052000D01*
X6042000Y6052000D01*
X6042000Y6052000D01*
G37*
D20*
X5080000Y7630000D03*
X5080000Y10170000D03*
X5080000Y12710000D03*
X5080000Y15250000D03*
X5080000Y17790000D03*
D21*
X8890000Y8900000D03*
D22*
X11430000Y8900000D03*
X13970000Y8900000D03*
X16510000Y8900000D03*
X19050000Y8900000D03*
X21590000Y8900000D03*
X24130000Y8900000D03*
X26670000Y8900000D03*
X29210000Y8900000D03*
X31750000Y8900000D03*
X34290000Y8900000D03*
X36830000Y8900000D03*
X39370000Y8900000D03*
X41910000Y8900000D03*
X44450000Y8900000D03*
X8890000Y6360000D03*
X11430000Y6360000D03*
X13970000Y6360000D03*
X16510000Y6360000D03*
X19050000Y6360000D03*
X21590000Y6360000D03*
X24130000Y6360000D03*
X26670000Y6360000D03*
X29210000Y6360000D03*
X31750000Y6360000D03*
X34290000Y6360000D03*
X36830000Y6360000D03*
X39370000Y6360000D03*
X41910000Y6360000D03*
X44450000Y6360000D03*
D16*
X18100000Y41750000D03*
X19600000Y41750000D03*
X16600000Y41750000D03*
X20200000Y13650000D03*
X20200000Y15150000D03*
X20200000Y12150000D03*
D10*
G36*
X49838000Y27896000D02*
X51762000Y27896000D01*
X51762000Y25972000D01*
X49838000Y25972000D01*
X49838000Y27896000D01*
X49838000Y27896000D01*
G37*
D20*
X50800000Y29474000D03*
X50800000Y32014000D03*
X50800000Y34554000D03*
X50800000Y37094000D03*
X50800000Y39634000D03*
X50800000Y42174000D03*
X50800000Y44714000D03*
X50800000Y47254000D03*
X50800000Y49794000D03*
D10*
G36*
X49838000Y4128000D02*
X49838000Y6052000D01*
X51762000Y6052000D01*
X51762000Y4128000D01*
X49838000Y4128000D01*
X49838000Y4128000D01*
G37*
D20*
X50800000Y7630000D03*
X50800000Y10170000D03*
X50800000Y12710000D03*
X50800000Y15250000D03*
X50800000Y17790000D03*
X50800000Y22870000D03*
X50800000Y20330000D03*
D10*
G36*
X1578000Y21908000D02*
X1578000Y23832000D01*
X3502000Y23832000D01*
X3502000Y21908000D01*
X1578000Y21908000D01*
X1578000Y21908000D01*
G37*
D20*
X2540000Y25410000D03*
X2540000Y27950000D03*
X2540000Y30490000D03*
X2540000Y33030000D03*
X2540000Y35570000D03*
X2540000Y38110000D03*
X2540000Y40650000D03*
D10*
G36*
X3502000Y6052000D02*
X3502000Y4128000D01*
X1578000Y4128000D01*
X1578000Y6052000D01*
X3502000Y6052000D01*
X3502000Y6052000D01*
G37*
D20*
X2540000Y7630000D03*
X2540000Y10170000D03*
X2540000Y12710000D03*
X2540000Y15250000D03*
X2540000Y17790000D03*
D23*
X7620000Y2550000D03*
X35560000Y2550000D03*
X2540000Y54620000D03*
X50800000Y53350000D03*
D21*
X8890000Y66050000D03*
D22*
X11430000Y66050000D03*
X13970000Y66050000D03*
X16510000Y66050000D03*
X19050000Y66050000D03*
X21590000Y66050000D03*
X24130000Y66050000D03*
X26670000Y66050000D03*
X29210000Y66050000D03*
X31750000Y66050000D03*
X34290000Y66050000D03*
X36830000Y66050000D03*
X39370000Y66050000D03*
X41910000Y66050000D03*
X44450000Y66050000D03*
X8890000Y63510000D03*
X11430000Y63510000D03*
X13970000Y63510000D03*
X16510000Y63510000D03*
X19050000Y63510000D03*
X21590000Y63510000D03*
X24130000Y63510000D03*
X26670000Y63510000D03*
X29210000Y63510000D03*
X31750000Y63510000D03*
X34290000Y63510000D03*
X36830000Y63510000D03*
X39370000Y63510000D03*
X41910000Y63510000D03*
X44450000Y63510000D03*
D16*
X9398000Y52882000D03*
X7898000Y52882000D03*
X10898000Y52882000D03*
M02*
