M48
;DRILL file {kicad (after 2015-mar-04 BZR unknown)-product} date 2015年06月14日日曜日 16:42:48
;FORMAT={3:3/ absolute / metric / suppress leading zeros}
FMAT,2
METRIC,TZ
T1C0.300
T2C0.700
T3C1.000
T4C1.016
T5C1.020
%
G90
G05
M71
T1
X4870Y20100
X5334Y58470
X5334Y55930
X5334Y53644
X6839Y5831
X6927Y7814
X7112Y58470
X7112Y55930
X7450Y12060
X7840Y37860
X8128Y57200
X8470Y61930
X8960Y40900
X9100Y57370
X9180Y22020
X9230Y60960
X9906Y49326
X9906Y47802
X9906Y46024
X11310Y21920
X11684Y49326
X11684Y47802
X11684Y46024
X14960Y28570
X15271Y22330
X15271Y25919
X15280Y32260
X15580Y34670
X15850Y23570
X16836Y26030
X17110Y15380
X17200Y19000
X17211Y23255
X17259Y27703
X17304Y28454
X17524Y26999
X17840Y10930
X18710Y15370
X18770Y21870
X18770Y16239
X19430Y43390
X20292Y26715
X20770Y19430
X21040Y39310
X21427Y41453
X21455Y26021
X21861Y30212
X22298Y41264
X22577Y43470
X22615Y38677
X22680Y15310
X22850Y41890
X22987Y22974
X23174Y11069
X23208Y27775
X23618Y41719
X23855Y34898
X23948Y34148
X23990Y19170
X24564Y23812
X24814Y29807
X25027Y24405
X25079Y29102
X25260Y19440
X25590Y5003
X25591Y28498
X25880Y10220
X25970Y27115
X26160Y17439
X26175Y27839
X26360Y42430
X26485Y22970
X26720Y38650
X27000Y17650
X27170Y11080
X27432Y26339
X28466Y43721
X28470Y15299
X28755Y28765
X29047Y26574
X29315Y15579
X29590Y38355
X29742Y26287
X29771Y18849
X29828Y31092
X30140Y27239
X30175Y39547
X30544Y32371
X30850Y27487
X30901Y26530
X30960Y30780
X31071Y32908
X31390Y22780
X31550Y4450
X31740Y26649
X31790Y14970
X32070Y16720
X32360Y43530
X32700Y32000
X33540Y36580
X33560Y19639
X34880Y19100
X35814Y31771
X35900Y29830
X35940Y34150
X36259Y26929
X36561Y28601
X36708Y32013
X36900Y29434
X36993Y27954
X37330Y11870
X39080Y30017
X39440Y36310
X40262Y36552
X40710Y10710
X40780Y40080
X40940Y30030
X41730Y29850
X41800Y28740
X42526Y18122
X42876Y13194
X42960Y38790
X43190Y11674
X43320Y59850
X43770Y52951
X44407Y18407
X44752Y13443
X44945Y27804
X45100Y12540
X45551Y14562
X45810Y34410
X46520Y16050
X46539Y32110
X47410Y56230
X47559Y57060
X50640Y57690
T2
X50005Y64370
X50005Y63100
X50005Y61830
X50005Y60560
X50005Y59290
X51275Y64370
X51275Y63100
X51275Y61830
X51275Y60560
X51275Y59290
T4
X2540Y40650
X2540Y38110
X2540Y35570
X2540Y33030
X2540Y30490
X2540Y27950
X2540Y25410
X2540Y22870
X2540Y17790
X2540Y15250
X2540Y12710
X2540Y10170
X2540Y7630
X2540Y5090
X5080Y40650
X5080Y38110
X5080Y35570
X5080Y33030
X5080Y30490
X5080Y27950
X5080Y25410
X5080Y22870
X5080Y17790
X5080Y15250
X5080Y12710
X5080Y10170
X5080Y7630
X5080Y5090
X14490Y2630
X17030Y2630
X19570Y2630
X22110Y2630
X24650Y2630
X27190Y2630
X48260Y49794
X48260Y47254
X48260Y44714
X48260Y42174
X48260Y39634
X48260Y37094
X48260Y34554
X48260Y32014
X48260Y29474
X48260Y26934
X48260Y22870
X48260Y20330
X48260Y17790
X48260Y15250
X48260Y12710
X48260Y10170
X48260Y7630
X48260Y5090
X50800Y49794
X50800Y47254
X50800Y44714
X50800Y42174
X50800Y39634
X50800Y37094
X50800Y34554
X50800Y32014
X50800Y29474
X50800Y26934
X50800Y22870
X50800Y20330
X50800Y17790
X50800Y15250
X50800Y12710
X50800Y10170
X50800Y7630
X50800Y5090
T5
X8890Y66050
X8890Y63510
X8890Y8900
X8890Y6360
X11430Y66050
X11430Y63510
X11430Y8900
X11430Y6360
X13970Y66050
X13970Y63510
X13970Y8900
X13970Y6360
X16510Y66050
X16510Y63510
X16510Y8900
X16510Y6360
X19050Y66050
X19050Y63510
X19050Y8900
X19050Y6360
X21590Y66050
X21590Y63510
X21590Y8900
X21590Y6360
X24130Y66050
X24130Y63510
X24130Y8900
X24130Y6360
X26670Y66050
X26670Y63510
X26670Y8900
X26670Y6360
X29210Y66050
X29210Y63510
X29210Y8900
X29210Y6360
X31750Y66050
X31750Y63510
X31750Y8900
X31750Y6360
X34290Y66050
X34290Y63510
X34290Y8900
X34290Y6360
X36830Y66050
X36830Y63510
X36830Y8900
X36830Y6360
X39370Y66050
X39370Y63510
X39370Y8900
X39370Y6360
X41910Y66050
X41910Y63510
X41910Y8900
X41910Y6360
X44450Y66050
X44450Y63510
X44450Y8900
X44450Y6360
T3
X7800Y48750G85X7800Y46750
G05
X9800Y42850G85X11800Y42850
G05
X13800Y49000G85X13800Y46500
G05
T0
M30
