G04 #@! TF.FileFunction,Soldermask,Bot*
%FSLAX46Y46*%
G04 Gerber Fmt 4.6, Leading zero omitted, Abs format (unit mm)*
G04 Created by KiCad (PCBNEW (after 2015-mar-04 BZR unknown)-product) date 2015年06月14日日曜日 16:42:44*
%MOMM*%
G01*
G04 APERTURE LIST*
%ADD10C,0.100000*%
%ADD11R,2.400000X4.400000*%
%ADD12R,4.400000X2.400000*%
%ADD13R,2.400000X4.900000*%
%ADD14R,1.400000X1.400000*%
%ADD15C,1.400000*%
%ADD16R,2.127200X2.432000*%
%ADD17O,2.127200X2.432000*%
%ADD18C,1.924000*%
%ADD19R,1.930000X1.930000*%
%ADD20C,1.930000*%
%ADD21C,3.575000*%
G04 APERTURE END LIST*
D10*
D11*
X7800000Y47750000D03*
D12*
X10800000Y42850000D03*
D13*
X13800000Y47750000D03*
D14*
X50005000Y64370000D03*
D15*
X51275000Y64370000D03*
X50005000Y63100000D03*
X51275000Y63100000D03*
X50005000Y61830000D03*
X51275000Y61830000D03*
X50005000Y60560000D03*
X51275000Y60560000D03*
X50005000Y59290000D03*
X51275000Y59290000D03*
D16*
X27190000Y2630000D03*
D17*
X24650000Y2630000D03*
X22110000Y2630000D03*
X19570000Y2630000D03*
X17030000Y2630000D03*
X14490000Y2630000D03*
D10*
G36*
X47298000Y27896000D02*
X49222000Y27896000D01*
X49222000Y25972000D01*
X47298000Y25972000D01*
X47298000Y27896000D01*
X47298000Y27896000D01*
G37*
D18*
X48260000Y29474000D03*
X48260000Y32014000D03*
X48260000Y34554000D03*
X48260000Y37094000D03*
X48260000Y39634000D03*
X48260000Y42174000D03*
X48260000Y44714000D03*
X48260000Y47254000D03*
X48260000Y49794000D03*
D10*
G36*
X47298000Y4128000D02*
X47298000Y6052000D01*
X49222000Y6052000D01*
X49222000Y4128000D01*
X47298000Y4128000D01*
X47298000Y4128000D01*
G37*
D18*
X48260000Y7630000D03*
X48260000Y10170000D03*
X48260000Y12710000D03*
X48260000Y15250000D03*
X48260000Y17790000D03*
X48260000Y22870000D03*
X48260000Y20330000D03*
D10*
G36*
X4118000Y21908000D02*
X4118000Y23832000D01*
X6042000Y23832000D01*
X6042000Y21908000D01*
X4118000Y21908000D01*
X4118000Y21908000D01*
G37*
D18*
X5080000Y25410000D03*
X5080000Y27950000D03*
X5080000Y30490000D03*
X5080000Y33030000D03*
X5080000Y35570000D03*
X5080000Y38110000D03*
X5080000Y40650000D03*
D10*
G36*
X6042000Y6052000D02*
X6042000Y4128000D01*
X4118000Y4128000D01*
X4118000Y6052000D01*
X6042000Y6052000D01*
X6042000Y6052000D01*
G37*
D18*
X5080000Y7630000D03*
X5080000Y10170000D03*
X5080000Y12710000D03*
X5080000Y15250000D03*
X5080000Y17790000D03*
D19*
X8890000Y8900000D03*
D20*
X11430000Y8900000D03*
X13970000Y8900000D03*
X16510000Y8900000D03*
X19050000Y8900000D03*
X21590000Y8900000D03*
X24130000Y8900000D03*
X26670000Y8900000D03*
X29210000Y8900000D03*
X31750000Y8900000D03*
X34290000Y8900000D03*
X36830000Y8900000D03*
X39370000Y8900000D03*
X41910000Y8900000D03*
X44450000Y8900000D03*
X8890000Y6360000D03*
X11430000Y6360000D03*
X13970000Y6360000D03*
X16510000Y6360000D03*
X19050000Y6360000D03*
X21590000Y6360000D03*
X24130000Y6360000D03*
X26670000Y6360000D03*
X29210000Y6360000D03*
X31750000Y6360000D03*
X34290000Y6360000D03*
X36830000Y6360000D03*
X39370000Y6360000D03*
X41910000Y6360000D03*
X44450000Y6360000D03*
D14*
X18100000Y41750000D03*
X19600000Y41750000D03*
X16600000Y41750000D03*
X20200000Y13650000D03*
X20200000Y15150000D03*
X20200000Y12150000D03*
D10*
G36*
X49838000Y27896000D02*
X51762000Y27896000D01*
X51762000Y25972000D01*
X49838000Y25972000D01*
X49838000Y27896000D01*
X49838000Y27896000D01*
G37*
D18*
X50800000Y29474000D03*
X50800000Y32014000D03*
X50800000Y34554000D03*
X50800000Y37094000D03*
X50800000Y39634000D03*
X50800000Y42174000D03*
X50800000Y44714000D03*
X50800000Y47254000D03*
X50800000Y49794000D03*
D10*
G36*
X49838000Y4128000D02*
X49838000Y6052000D01*
X51762000Y6052000D01*
X51762000Y4128000D01*
X49838000Y4128000D01*
X49838000Y4128000D01*
G37*
D18*
X50800000Y7630000D03*
X50800000Y10170000D03*
X50800000Y12710000D03*
X50800000Y15250000D03*
X50800000Y17790000D03*
X50800000Y22870000D03*
X50800000Y20330000D03*
D10*
G36*
X1578000Y21908000D02*
X1578000Y23832000D01*
X3502000Y23832000D01*
X3502000Y21908000D01*
X1578000Y21908000D01*
X1578000Y21908000D01*
G37*
D18*
X2540000Y25410000D03*
X2540000Y27950000D03*
X2540000Y30490000D03*
X2540000Y33030000D03*
X2540000Y35570000D03*
X2540000Y38110000D03*
X2540000Y40650000D03*
D10*
G36*
X3502000Y6052000D02*
X3502000Y4128000D01*
X1578000Y4128000D01*
X1578000Y6052000D01*
X3502000Y6052000D01*
X3502000Y6052000D01*
G37*
D18*
X2540000Y7630000D03*
X2540000Y10170000D03*
X2540000Y12710000D03*
X2540000Y15250000D03*
X2540000Y17790000D03*
D21*
X7620000Y2550000D03*
X35560000Y2550000D03*
X2540000Y54620000D03*
X50800000Y53350000D03*
D19*
X8890000Y66050000D03*
D20*
X11430000Y66050000D03*
X13970000Y66050000D03*
X16510000Y66050000D03*
X19050000Y66050000D03*
X21590000Y66050000D03*
X24130000Y66050000D03*
X26670000Y66050000D03*
X29210000Y66050000D03*
X31750000Y66050000D03*
X34290000Y66050000D03*
X36830000Y66050000D03*
X39370000Y66050000D03*
X41910000Y66050000D03*
X44450000Y66050000D03*
X8890000Y63510000D03*
X11430000Y63510000D03*
X13970000Y63510000D03*
X16510000Y63510000D03*
X19050000Y63510000D03*
X21590000Y63510000D03*
X24130000Y63510000D03*
X26670000Y63510000D03*
X29210000Y63510000D03*
X31750000Y63510000D03*
X34290000Y63510000D03*
X36830000Y63510000D03*
X39370000Y63510000D03*
X41910000Y63510000D03*
X44450000Y63510000D03*
D14*
X9398000Y52882000D03*
X7898000Y52882000D03*
X10898000Y52882000D03*
M02*
