G04 #@! TF.FileFunction,Soldermask,Top*
%FSLAX46Y46*%
G04 Gerber Fmt 4.6, Leading zero omitted, Abs format (unit mm)*
G04 Created by KiCad (PCBNEW (after 2015-mar-04 BZR unknown)-product) date 2015年06月14日日曜日 16:42:44*
%MOMM*%
G01*
G04 APERTURE LIST*
%ADD10C,0.100000*%
%ADD11R,2.000000X0.800000*%
%ADD12R,2.500000X2.400000*%
%ADD13R,2.300000X2.000000*%
%ADD14R,2.400000X4.400000*%
%ADD15R,4.400000X2.400000*%
%ADD16R,2.400000X4.900000*%
%ADD17R,1.600000X1.600000*%
%ADD18R,1.400000X1.400000*%
%ADD19C,1.400000*%
%ADD20R,1.797000X1.289000*%
%ADD21R,2.127200X2.432000*%
%ADD22O,2.127200X2.432000*%
%ADD23C,1.924000*%
%ADD24R,1.930000X1.930000*%
%ADD25C,1.930000*%
%ADD26C,3.575000*%
%ADD27R,1.500000X3.600000*%
%ADD28R,1.900000X0.800000*%
%ADD29R,1.900000X0.700000*%
%ADD30R,0.800000X1.900000*%
%ADD31R,0.700000X1.900000*%
%ADD32R,3.900000X2.600000*%
%ADD33R,1.600000X2.600000*%
%ADD34R,2.000000X5.900000*%
%ADD35R,1.543000X1.035000*%
%ADD36R,1.035000X1.543000*%
G04 APERTURE END LIST*
D10*
D11*
X4180000Y62210000D03*
X4180000Y62860000D03*
X4180000Y63510000D03*
X4180000Y64160000D03*
X4180000Y64810000D03*
D12*
X3855000Y60410000D03*
X3855000Y66610000D03*
D13*
X1180000Y67610000D03*
X1180000Y59410000D03*
D14*
X7800000Y47750000D03*
D15*
X10800000Y42850000D03*
D16*
X13800000Y47750000D03*
D17*
X9100000Y59550000D03*
X11900000Y59550000D03*
D18*
X50005000Y64370000D03*
D19*
X51275000Y64370000D03*
X50005000Y63100000D03*
X51275000Y63100000D03*
X50005000Y61830000D03*
X51275000Y61830000D03*
X50005000Y60560000D03*
X51275000Y60560000D03*
X50005000Y59290000D03*
X51275000Y59290000D03*
D20*
X18200000Y14102500D03*
X18200000Y12197500D03*
D17*
X16990000Y47730000D03*
X16990000Y44930000D03*
X35500000Y58150000D03*
X35500000Y60950000D03*
X22500000Y58150000D03*
X22500000Y60950000D03*
D21*
X27190000Y2630000D03*
D22*
X24650000Y2630000D03*
X22110000Y2630000D03*
X19570000Y2630000D03*
X17030000Y2630000D03*
X14490000Y2630000D03*
D10*
G36*
X47298000Y27896000D02*
X49222000Y27896000D01*
X49222000Y25972000D01*
X47298000Y25972000D01*
X47298000Y27896000D01*
X47298000Y27896000D01*
G37*
D23*
X48260000Y29474000D03*
X48260000Y32014000D03*
X48260000Y34554000D03*
X48260000Y37094000D03*
X48260000Y39634000D03*
X48260000Y42174000D03*
X48260000Y44714000D03*
X48260000Y47254000D03*
X48260000Y49794000D03*
D10*
G36*
X47298000Y4128000D02*
X47298000Y6052000D01*
X49222000Y6052000D01*
X49222000Y4128000D01*
X47298000Y4128000D01*
X47298000Y4128000D01*
G37*
D23*
X48260000Y7630000D03*
X48260000Y10170000D03*
X48260000Y12710000D03*
X48260000Y15250000D03*
X48260000Y17790000D03*
X48260000Y22870000D03*
X48260000Y20330000D03*
D10*
G36*
X4118000Y21908000D02*
X4118000Y23832000D01*
X6042000Y23832000D01*
X6042000Y21908000D01*
X4118000Y21908000D01*
X4118000Y21908000D01*
G37*
D23*
X5080000Y25410000D03*
X5080000Y27950000D03*
X5080000Y30490000D03*
X5080000Y33030000D03*
X5080000Y35570000D03*
X5080000Y38110000D03*
X5080000Y40650000D03*
D10*
G36*
X6042000Y6052000D02*
X6042000Y4128000D01*
X4118000Y4128000D01*
X4118000Y6052000D01*
X6042000Y6052000D01*
X6042000Y6052000D01*
G37*
D23*
X5080000Y7630000D03*
X5080000Y10170000D03*
X5080000Y12710000D03*
X5080000Y15250000D03*
X5080000Y17790000D03*
D24*
X8890000Y8900000D03*
D25*
X11430000Y8900000D03*
X13970000Y8900000D03*
X16510000Y8900000D03*
X19050000Y8900000D03*
X21590000Y8900000D03*
X24130000Y8900000D03*
X26670000Y8900000D03*
X29210000Y8900000D03*
X31750000Y8900000D03*
X34290000Y8900000D03*
X36830000Y8900000D03*
X39370000Y8900000D03*
X41910000Y8900000D03*
X44450000Y8900000D03*
X8890000Y6360000D03*
X11430000Y6360000D03*
X13970000Y6360000D03*
X16510000Y6360000D03*
X19050000Y6360000D03*
X21590000Y6360000D03*
X24130000Y6360000D03*
X26670000Y6360000D03*
X29210000Y6360000D03*
X31750000Y6360000D03*
X34290000Y6360000D03*
X36830000Y6360000D03*
X39370000Y6360000D03*
X41910000Y6360000D03*
X44450000Y6360000D03*
D10*
G36*
X49838000Y27896000D02*
X51762000Y27896000D01*
X51762000Y25972000D01*
X49838000Y25972000D01*
X49838000Y27896000D01*
X49838000Y27896000D01*
G37*
D23*
X50800000Y29474000D03*
X50800000Y32014000D03*
X50800000Y34554000D03*
X50800000Y37094000D03*
X50800000Y39634000D03*
X50800000Y42174000D03*
X50800000Y44714000D03*
X50800000Y47254000D03*
X50800000Y49794000D03*
D10*
G36*
X49838000Y4128000D02*
X49838000Y6052000D01*
X51762000Y6052000D01*
X51762000Y4128000D01*
X49838000Y4128000D01*
X49838000Y4128000D01*
G37*
D23*
X50800000Y7630000D03*
X50800000Y10170000D03*
X50800000Y12710000D03*
X50800000Y15250000D03*
X50800000Y17790000D03*
X50800000Y22870000D03*
X50800000Y20330000D03*
D10*
G36*
X1578000Y21908000D02*
X1578000Y23832000D01*
X3502000Y23832000D01*
X3502000Y21908000D01*
X1578000Y21908000D01*
X1578000Y21908000D01*
G37*
D23*
X2540000Y25410000D03*
X2540000Y27950000D03*
X2540000Y30490000D03*
X2540000Y33030000D03*
X2540000Y35570000D03*
X2540000Y38110000D03*
X2540000Y40650000D03*
D10*
G36*
X3502000Y6052000D02*
X3502000Y4128000D01*
X1578000Y4128000D01*
X1578000Y6052000D01*
X3502000Y6052000D01*
X3502000Y6052000D01*
G37*
D23*
X2540000Y7630000D03*
X2540000Y10170000D03*
X2540000Y12710000D03*
X2540000Y15250000D03*
X2540000Y17790000D03*
D26*
X7620000Y2550000D03*
X35560000Y2550000D03*
X2540000Y54620000D03*
X50800000Y53350000D03*
D24*
X8890000Y66050000D03*
D25*
X11430000Y66050000D03*
X13970000Y66050000D03*
X16510000Y66050000D03*
X19050000Y66050000D03*
X21590000Y66050000D03*
X24130000Y66050000D03*
X26670000Y66050000D03*
X29210000Y66050000D03*
X31750000Y66050000D03*
X34290000Y66050000D03*
X36830000Y66050000D03*
X39370000Y66050000D03*
X41910000Y66050000D03*
X44450000Y66050000D03*
X8890000Y63510000D03*
X11430000Y63510000D03*
X13970000Y63510000D03*
X16510000Y63510000D03*
X19050000Y63510000D03*
X21590000Y63510000D03*
X24130000Y63510000D03*
X26670000Y63510000D03*
X29210000Y63510000D03*
X31750000Y63510000D03*
X34290000Y63510000D03*
X36830000Y63510000D03*
X39370000Y63510000D03*
X41910000Y63510000D03*
X44450000Y63510000D03*
D27*
X13000000Y19350000D03*
X9000000Y19350000D03*
X13000000Y12550000D03*
X9000000Y12550000D03*
D28*
X34200000Y22790000D03*
D29*
X34200000Y23350000D03*
X34200000Y23850000D03*
X34200000Y24350000D03*
X34200000Y24850000D03*
X34200000Y25350000D03*
X34200000Y25850000D03*
X34200000Y26350000D03*
X34200000Y26850000D03*
X34200000Y27350000D03*
X34200000Y27850000D03*
X34200000Y28350000D03*
X34200000Y28850000D03*
X34200000Y29350000D03*
X34200000Y29850000D03*
X34200000Y30350000D03*
X34200000Y30850000D03*
X34200000Y31350000D03*
X34200000Y31850000D03*
X34200000Y32350000D03*
X34200000Y32850000D03*
X34200000Y33350000D03*
X34200000Y33850000D03*
X34200000Y34350000D03*
D28*
X34200000Y34910000D03*
D30*
X32560000Y36550000D03*
D31*
X32000000Y36550000D03*
X31500000Y36550000D03*
X31000000Y36550000D03*
X30500000Y36550000D03*
X30000000Y36550000D03*
X29500000Y36550000D03*
X29000000Y36550000D03*
X28500000Y36550000D03*
X28000000Y36550000D03*
X27500000Y36550000D03*
X27000000Y36550000D03*
X26500000Y36550000D03*
X26000000Y36550000D03*
X25500000Y36550000D03*
X25000000Y36550000D03*
X24500000Y36550000D03*
X24000000Y36550000D03*
X23500000Y36550000D03*
X23000000Y36550000D03*
X22500000Y36550000D03*
X22000000Y36550000D03*
X21500000Y36550000D03*
X21000000Y36550000D03*
D30*
X20440000Y36550000D03*
D28*
X18800000Y34910000D03*
D29*
X18800000Y34350000D03*
X18800000Y33850000D03*
X18800000Y33350000D03*
X18800000Y32850000D03*
X18800000Y32350000D03*
X18800000Y31850000D03*
X18800000Y31350000D03*
X18800000Y30850000D03*
X18800000Y30350000D03*
X18800000Y29850000D03*
X18800000Y29350000D03*
X18800000Y28850000D03*
X18800000Y28350000D03*
X18800000Y27850000D03*
X18800000Y27350000D03*
X18800000Y26850000D03*
X18800000Y26350000D03*
X18800000Y25850000D03*
X18800000Y25350000D03*
X18800000Y24850000D03*
X18800000Y24350000D03*
X18800000Y23850000D03*
X18800000Y23350000D03*
D28*
X18800000Y22790000D03*
D30*
X20440000Y21150000D03*
D31*
X21000000Y21150000D03*
X21500000Y21150000D03*
X22000000Y21150000D03*
X22500000Y21150000D03*
X23000000Y21150000D03*
X23500000Y21150000D03*
X24000000Y21150000D03*
X24500000Y21150000D03*
X25000000Y21150000D03*
X25500000Y21150000D03*
X26000000Y21150000D03*
X26500000Y21150000D03*
X27000000Y21150000D03*
X27500000Y21150000D03*
X28000000Y21150000D03*
X28500000Y21150000D03*
X29000000Y21150000D03*
X29500000Y21150000D03*
X30000000Y21150000D03*
X30500000Y21150000D03*
X31000000Y21150000D03*
X31500000Y21150000D03*
X32000000Y21150000D03*
D30*
X32560000Y21150000D03*
D10*
G36*
X34150000Y14150000D02*
X34150000Y16750000D01*
X35850000Y16750000D01*
X35850000Y14150000D01*
X34150000Y14150000D01*
X34150000Y14150000D01*
G37*
G36*
X38350000Y14150000D02*
X38350000Y16750000D01*
X40050000Y16750000D01*
X40050000Y14150000D01*
X38350000Y14150000D01*
X38350000Y14150000D01*
G37*
D32*
X35500000Y47950000D03*
D33*
X35500000Y54150000D03*
X33200000Y54150000D03*
X37800000Y54150000D03*
D32*
X22500000Y47950000D03*
D33*
X22500000Y54150000D03*
X20200000Y54150000D03*
X24800000Y54150000D03*
D34*
X41800000Y24450000D03*
X41800000Y34450000D03*
D27*
X9049000Y24717000D03*
X13049000Y24717000D03*
X9049000Y31517000D03*
X13049000Y31517000D03*
D35*
X30600000Y55712000D03*
X30600000Y54188000D03*
D36*
X44754800Y60044800D03*
X46278800Y60044800D03*
D35*
X28400000Y13912000D03*
X28400000Y12388000D03*
X26900000Y13912000D03*
X26900000Y12388000D03*
X37800000Y38912000D03*
X37800000Y37388000D03*
X32600000Y13912000D03*
X32600000Y12388000D03*
X39300000Y37388000D03*
X39300000Y38912000D03*
X31100000Y13912000D03*
X31100000Y12388000D03*
X22700000Y13912000D03*
X22700000Y12388000D03*
X13906500Y37896000D03*
X13906500Y39420000D03*
X24200000Y13912000D03*
X24200000Y12388000D03*
X12319000Y37896000D03*
X12319000Y39420000D03*
X9144000Y37896000D03*
X9144000Y39420000D03*
X10731500Y37896000D03*
X10731500Y39420000D03*
X17500000Y54188000D03*
X17500000Y55712000D03*
X43600000Y37412000D03*
X43600000Y35888000D03*
X27500000Y55712000D03*
X27500000Y54188000D03*
X43700000Y23012000D03*
X43700000Y21488000D03*
X39200000Y11988000D03*
X39200000Y13512000D03*
X35000000Y13512000D03*
X35000000Y11988000D03*
X40400000Y54188000D03*
X40400000Y55712000D03*
M02*
