G04 #@! TF.FileFunction,Legend,Top*
%FSLAX46Y46*%
G04 Gerber Fmt 4.6, Leading zero omitted, Abs format (unit mm)*
G04 Created by KiCad (PCBNEW (after 2015-mar-04 BZR unknown)-product) date 2015年06月14日日曜日 16:42:44*
%MOMM*%
G01*
G04 APERTURE LIST*
%ADD10C,0.100000*%
%ADD11C,0.300000*%
%ADD12C,0.150000*%
%ADD13C,0.050000*%
%ADD14R,2.000000X0.800000*%
%ADD15R,2.500000X2.400000*%
%ADD16R,2.300000X2.000000*%
%ADD17R,2.400000X4.400000*%
%ADD18R,4.400000X2.400000*%
%ADD19R,2.400000X4.900000*%
%ADD20R,1.600000X1.600000*%
%ADD21R,1.400000X1.400000*%
%ADD22C,1.400000*%
%ADD23R,1.797000X1.289000*%
%ADD24R,2.127200X2.432000*%
%ADD25O,2.127200X2.432000*%
%ADD26C,1.924000*%
%ADD27R,1.930000X1.930000*%
%ADD28C,1.930000*%
%ADD29C,3.575000*%
%ADD30R,1.500000X3.600000*%
%ADD31R,1.900000X0.800000*%
%ADD32R,1.900000X0.700000*%
%ADD33R,0.800000X1.900000*%
%ADD34R,0.700000X1.900000*%
%ADD35R,3.900000X2.600000*%
%ADD36R,1.600000X2.600000*%
%ADD37R,2.000000X5.900000*%
%ADD38R,1.543000X1.035000*%
%ADD39R,1.035000X1.543000*%
G04 APERTURE END LIST*
D10*
D11*
X15918571Y15103572D02*
X15204286Y14603572D01*
X15918571Y14246429D02*
X14418571Y14246429D01*
X14418571Y14817857D01*
X14490000Y14960715D01*
X14561429Y15032143D01*
X14704286Y15103572D01*
X14918571Y15103572D01*
X15061429Y15032143D01*
X15132857Y14960715D01*
X15204286Y14817857D01*
X15204286Y14246429D01*
X15847143Y15675000D02*
X15918571Y15889286D01*
X15918571Y16246429D01*
X15847143Y16389286D01*
X15775714Y16460715D01*
X15632857Y16532143D01*
X15490000Y16532143D01*
X15347143Y16460715D01*
X15275714Y16389286D01*
X15204286Y16246429D01*
X15132857Y15960715D01*
X15061429Y15817857D01*
X14990000Y15746429D01*
X14847143Y15675000D01*
X14704286Y15675000D01*
X14561429Y15746429D01*
X14490000Y15817857D01*
X14418571Y15960715D01*
X14418571Y16317857D01*
X14490000Y16532143D01*
X14418571Y16960714D02*
X14418571Y17817857D01*
X15918571Y17389286D02*
X14418571Y17389286D01*
X15948571Y26895715D02*
X14448571Y26895715D01*
X15877143Y27538572D02*
X15948571Y27752858D01*
X15948571Y28110001D01*
X15877143Y28252858D01*
X15805714Y28324287D01*
X15662857Y28395715D01*
X15520000Y28395715D01*
X15377143Y28324287D01*
X15305714Y28252858D01*
X15234286Y28110001D01*
X15162857Y27824287D01*
X15091429Y27681429D01*
X15020000Y27610001D01*
X14877143Y27538572D01*
X14734286Y27538572D01*
X14591429Y27610001D01*
X14520000Y27681429D01*
X14448571Y27824287D01*
X14448571Y28181429D01*
X14520000Y28395715D01*
X15948571Y29038572D02*
X14448571Y29038572D01*
X14448571Y29610000D01*
X14520000Y29752858D01*
X14591429Y29824286D01*
X14734286Y29895715D01*
X14948571Y29895715D01*
X15091429Y29824286D01*
X15162857Y29752858D01*
X15234286Y29610000D01*
X15234286Y29038572D01*
X29516191Y3630000D02*
X29325714Y3725238D01*
X29040000Y3725238D01*
X28754286Y3630000D01*
X28563810Y3439524D01*
X28468571Y3249048D01*
X28373333Y2868095D01*
X28373333Y2582381D01*
X28468571Y2201429D01*
X28563810Y2010952D01*
X28754286Y1820476D01*
X29040000Y1725238D01*
X29230476Y1725238D01*
X29516191Y1820476D01*
X29611429Y1915714D01*
X29611429Y2582381D01*
X29230476Y2582381D01*
X30468571Y1725238D02*
X30468571Y3725238D01*
X31611429Y1725238D01*
X31611429Y3725238D01*
X32563809Y1725238D02*
X32563809Y3725238D01*
X33040000Y3725238D01*
X33325714Y3630000D01*
X33516190Y3439524D01*
X33611429Y3249048D01*
X33706667Y2868095D01*
X33706667Y2582381D01*
X33611429Y2201429D01*
X33516190Y2010952D01*
X33325714Y1820476D01*
X33040000Y1725238D01*
X32563809Y1725238D01*
D12*
X80000Y59010000D02*
X5580000Y59010000D01*
X5580000Y68010000D02*
X80000Y68010000D01*
X80000Y68010000D02*
X80000Y59010000D01*
X5580000Y68010000D02*
X5580000Y59010000D01*
X100000Y52250000D02*
X14600000Y52250000D01*
X14600000Y52250000D02*
X14600000Y43250000D01*
X14600000Y43250000D02*
X100000Y43250000D01*
X100000Y43250000D02*
X100000Y52250000D01*
X12538000Y58442000D02*
G75*
G03X12538000Y58442000I-200000J0D01*
G01*
X10500000Y58550000D02*
X9100000Y58550000D01*
X9100000Y58550000D02*
X9100000Y60550000D01*
X9100000Y60550000D02*
X11900000Y60550000D01*
X11900000Y60550000D02*
X11900000Y58550000D01*
X11900000Y58550000D02*
X10500000Y58550000D01*
D13*
X50640000Y68430000D02*
X48040000Y68430000D01*
X48040000Y68430000D02*
X48040000Y55230000D01*
X48040000Y55230000D02*
X53240000Y55230000D01*
X53240000Y55230000D02*
X53240000Y68430000D01*
X53240000Y68430000D02*
X50640000Y68430000D01*
D12*
X17438000Y13658000D02*
X17438000Y14674000D01*
X17438000Y14674000D02*
X18962000Y14674000D01*
X18962000Y14674000D02*
X18962000Y13658000D01*
X18962000Y12642000D02*
X18962000Y11626000D01*
X18962000Y11626000D02*
X17438000Y11626000D01*
X17438000Y11626000D02*
X17438000Y12642000D01*
X16082000Y44492000D02*
G75*
G03X16082000Y44492000I-200000J0D01*
G01*
X15990000Y46330000D02*
X15990000Y47730000D01*
X15990000Y47730000D02*
X17990000Y47730000D01*
X17990000Y47730000D02*
X17990000Y44930000D01*
X17990000Y44930000D02*
X15990000Y44930000D01*
X15990000Y44930000D02*
X15990000Y46330000D01*
X36808000Y61388000D02*
G75*
G03X36808000Y61388000I-200000J0D01*
G01*
X36500000Y59550000D02*
X36500000Y58150000D01*
X36500000Y58150000D02*
X34500000Y58150000D01*
X34500000Y58150000D02*
X34500000Y60950000D01*
X34500000Y60950000D02*
X36500000Y60950000D01*
X36500000Y60950000D02*
X36500000Y59550000D01*
X23808000Y61388000D02*
G75*
G03X23808000Y61388000I-200000J0D01*
G01*
X23500000Y59550000D02*
X23500000Y58150000D01*
X23500000Y58150000D02*
X21500000Y58150000D01*
X21500000Y58150000D02*
X21500000Y60950000D01*
X21500000Y60950000D02*
X23500000Y60950000D01*
X23500000Y60950000D02*
X23500000Y59550000D01*
X46990000Y68590000D02*
X0Y68590000D01*
X53340000Y68590000D02*
X46990000Y68590000D01*
X49530000Y51364000D02*
X49530000Y25364000D01*
X49530000Y51364000D02*
X46990000Y51364000D01*
X46990000Y51364000D02*
X46990000Y25364000D01*
X49530000Y25364000D02*
X46990000Y25364000D01*
X49530000Y24394000D02*
X49530000Y3566000D01*
X49530000Y3566000D02*
X46990000Y3566000D01*
X49530000Y24394000D02*
X46990000Y24394000D01*
X46990000Y24394000D02*
X46990000Y3566000D01*
X6350000Y21346000D02*
X3810000Y21346000D01*
X6350000Y42174000D02*
X3810000Y42174000D01*
X3810000Y42174000D02*
X3810000Y21346000D01*
X6350000Y42174000D02*
X6350000Y21346000D01*
X3810000Y3566000D02*
X3810000Y19314000D01*
X3810000Y19314000D02*
X6350000Y19314000D01*
X3810000Y3566000D02*
X6350000Y3566000D01*
X6350000Y3566000D02*
X6350000Y19314000D01*
X53340000Y3820000D02*
X53340000Y68590000D01*
X52070000Y2550000D02*
X40640000Y2550000D01*
X52070000Y2550000D02*
X53340000Y3820000D01*
X38100000Y10000D02*
X40640000Y2550000D01*
X36830000Y10000D02*
X38100000Y10000D01*
X0Y2550000D02*
X0Y68590000D01*
X36830000Y10000D02*
X5080000Y10000D01*
X0Y2550000D02*
X2540000Y2550000D01*
X2540000Y2550000D02*
X3810000Y1280000D01*
X5080000Y10000D02*
X3810000Y1280000D01*
X0Y50810000D02*
X0Y52080000D01*
X3810000Y42174000D02*
X3810000Y21346000D01*
X3810000Y3566000D02*
X3810000Y19314000D01*
X49530000Y24394000D02*
X49530000Y3566000D01*
X49530000Y51364000D02*
X49530000Y25364000D01*
X46990000Y68590000D02*
X0Y68590000D01*
X53340000Y68590000D02*
X46990000Y68590000D01*
X52070000Y51364000D02*
X52070000Y25364000D01*
X52070000Y51364000D02*
X49530000Y51364000D01*
X49530000Y51364000D02*
X49530000Y25364000D01*
X52070000Y25364000D02*
X49530000Y25364000D01*
X52070000Y24394000D02*
X52070000Y3566000D01*
X52070000Y3566000D02*
X49530000Y3566000D01*
X52070000Y24394000D02*
X49530000Y24394000D01*
X49530000Y24394000D02*
X49530000Y3566000D01*
X3810000Y21346000D02*
X1270000Y21346000D01*
X3810000Y42174000D02*
X1270000Y42174000D01*
X1270000Y42174000D02*
X1270000Y21346000D01*
X3810000Y42174000D02*
X3810000Y21346000D01*
X1270000Y3566000D02*
X1270000Y19314000D01*
X1270000Y19314000D02*
X3810000Y19314000D01*
X1270000Y3566000D02*
X3810000Y3566000D01*
X3810000Y3566000D02*
X3810000Y19314000D01*
X53340000Y3820000D02*
X53340000Y68590000D01*
X52070000Y2550000D02*
X40640000Y2550000D01*
X52070000Y2550000D02*
X53340000Y3820000D01*
X38100000Y10000D02*
X40640000Y2550000D01*
X36830000Y10000D02*
X38100000Y10000D01*
X0Y2550000D02*
X0Y68590000D01*
X36830000Y10000D02*
X5080000Y10000D01*
X0Y2550000D02*
X2540000Y2550000D01*
X2540000Y2550000D02*
X3810000Y1280000D01*
X5080000Y10000D02*
X3810000Y1280000D01*
X0Y50810000D02*
X0Y52080000D01*
X1270000Y42174000D02*
X1270000Y21346000D01*
X1270000Y3566000D02*
X1270000Y19314000D01*
X52070000Y24394000D02*
X52070000Y3566000D01*
X52070000Y51364000D02*
X52070000Y25364000D01*
X14000000Y12700000D02*
X8000000Y12700000D01*
X14000000Y19200000D02*
X8000000Y19200000D01*
X14000000Y12700000D02*
X8000000Y12700000D01*
X8000000Y12700000D02*
X8000000Y19200000D01*
X14000000Y19200000D02*
X14000000Y12700000D01*
X33675000Y21675000D02*
X33675000Y22475000D01*
X19325000Y21675000D02*
X19325000Y22475000D01*
X19325000Y36025000D02*
X19325000Y35225000D01*
X33675000Y36025000D02*
X33675000Y35225000D01*
X33675000Y21675000D02*
X32875000Y21675000D01*
X33675000Y36025000D02*
X32875000Y36025000D01*
X19325000Y36025000D02*
X20125000Y36025000D01*
X19325000Y21675000D02*
X20125000Y21675000D01*
X33675000Y22475000D02*
X34950000Y22475000D01*
X34600000Y16400000D02*
X34600000Y14500000D01*
X39600000Y16400000D02*
X39600000Y14500000D01*
X34600000Y14500000D02*
X39600000Y14500000D01*
X34600000Y16400000D02*
X39600000Y16400000D01*
X39056000Y52574000D02*
X39056000Y55622000D01*
X39056000Y55622000D02*
X31944000Y55622000D01*
X31944000Y55622000D02*
X31944000Y52574000D01*
X39056000Y49526000D02*
X39056000Y48764000D01*
X39056000Y48764000D02*
X37532000Y46478000D01*
X37532000Y46478000D02*
X33468000Y46478000D01*
X33468000Y46478000D02*
X31944000Y48764000D01*
X31944000Y48764000D02*
X31944000Y49526000D01*
X26056000Y52574000D02*
X26056000Y55622000D01*
X26056000Y55622000D02*
X18944000Y55622000D01*
X18944000Y55622000D02*
X18944000Y52574000D01*
X26056000Y49526000D02*
X26056000Y48764000D01*
X26056000Y48764000D02*
X24532000Y46478000D01*
X24532000Y46478000D02*
X20468000Y46478000D01*
X20468000Y46478000D02*
X18944000Y48764000D01*
X18944000Y48764000D02*
X18944000Y49526000D01*
X39400000Y29450000D02*
X39400000Y23650000D01*
X39400000Y23650000D02*
X44200000Y23650000D01*
X39400000Y29450000D02*
X39400000Y35250000D01*
X39400000Y35250000D02*
X44200000Y35250000D01*
X44200000Y35250000D02*
X44200000Y23650000D01*
X8049000Y31367000D02*
X14049000Y31367000D01*
X8049000Y24867000D02*
X14049000Y24867000D01*
X8049000Y31367000D02*
X14049000Y31367000D01*
X14049000Y31367000D02*
X14049000Y24867000D01*
X8049000Y24867000D02*
X8049000Y31367000D01*
X31235000Y56093000D02*
X31235000Y53807000D01*
X31235000Y53807000D02*
X29965000Y53807000D01*
X29965000Y53807000D02*
X29965000Y56093000D01*
X29965000Y56093000D02*
X31235000Y56093000D01*
X44373800Y60679800D02*
X46659800Y60679800D01*
X46659800Y60679800D02*
X46659800Y59409800D01*
X46659800Y59409800D02*
X44373800Y59409800D01*
X44373800Y59409800D02*
X44373800Y60679800D01*
X29035000Y14293000D02*
X29035000Y12007000D01*
X29035000Y12007000D02*
X27765000Y12007000D01*
X27765000Y12007000D02*
X27765000Y14293000D01*
X27765000Y14293000D02*
X29035000Y14293000D01*
X27535000Y14293000D02*
X27535000Y12007000D01*
X27535000Y12007000D02*
X26265000Y12007000D01*
X26265000Y12007000D02*
X26265000Y14293000D01*
X26265000Y14293000D02*
X27535000Y14293000D01*
X38435000Y39293000D02*
X38435000Y37007000D01*
X38435000Y37007000D02*
X37165000Y37007000D01*
X37165000Y37007000D02*
X37165000Y39293000D01*
X37165000Y39293000D02*
X38435000Y39293000D01*
X33235000Y14293000D02*
X33235000Y12007000D01*
X33235000Y12007000D02*
X31965000Y12007000D01*
X31965000Y12007000D02*
X31965000Y14293000D01*
X31965000Y14293000D02*
X33235000Y14293000D01*
X38665000Y37007000D02*
X38665000Y39293000D01*
X38665000Y39293000D02*
X39935000Y39293000D01*
X39935000Y39293000D02*
X39935000Y37007000D01*
X39935000Y37007000D02*
X38665000Y37007000D01*
X31735000Y14293000D02*
X31735000Y12007000D01*
X31735000Y12007000D02*
X30465000Y12007000D01*
X30465000Y12007000D02*
X30465000Y14293000D01*
X30465000Y14293000D02*
X31735000Y14293000D01*
X23335000Y14293000D02*
X23335000Y12007000D01*
X23335000Y12007000D02*
X22065000Y12007000D01*
X22065000Y12007000D02*
X22065000Y14293000D01*
X22065000Y14293000D02*
X23335000Y14293000D01*
X13271500Y37515000D02*
X13271500Y39801000D01*
X13271500Y39801000D02*
X14541500Y39801000D01*
X14541500Y39801000D02*
X14541500Y37515000D01*
X14541500Y37515000D02*
X13271500Y37515000D01*
X24835000Y14293000D02*
X24835000Y12007000D01*
X24835000Y12007000D02*
X23565000Y12007000D01*
X23565000Y12007000D02*
X23565000Y14293000D01*
X23565000Y14293000D02*
X24835000Y14293000D01*
X11684000Y37515000D02*
X11684000Y39801000D01*
X11684000Y39801000D02*
X12954000Y39801000D01*
X12954000Y39801000D02*
X12954000Y37515000D01*
X12954000Y37515000D02*
X11684000Y37515000D01*
X8509000Y37515000D02*
X8509000Y39801000D01*
X8509000Y39801000D02*
X9779000Y39801000D01*
X9779000Y39801000D02*
X9779000Y37515000D01*
X9779000Y37515000D02*
X8509000Y37515000D01*
X10096500Y37515000D02*
X10096500Y39801000D01*
X10096500Y39801000D02*
X11366500Y39801000D01*
X11366500Y39801000D02*
X11366500Y37515000D01*
X11366500Y37515000D02*
X10096500Y37515000D01*
X16865000Y53807000D02*
X16865000Y56093000D01*
X16865000Y56093000D02*
X18135000Y56093000D01*
X18135000Y56093000D02*
X18135000Y53807000D01*
X18135000Y53807000D02*
X16865000Y53807000D01*
X44235000Y37793000D02*
X44235000Y35507000D01*
X44235000Y35507000D02*
X42965000Y35507000D01*
X42965000Y35507000D02*
X42965000Y37793000D01*
X42965000Y37793000D02*
X44235000Y37793000D01*
X28135000Y56093000D02*
X28135000Y53807000D01*
X28135000Y53807000D02*
X26865000Y53807000D01*
X26865000Y53807000D02*
X26865000Y56093000D01*
X26865000Y56093000D02*
X28135000Y56093000D01*
X44335000Y23393000D02*
X44335000Y21107000D01*
X44335000Y21107000D02*
X43065000Y21107000D01*
X43065000Y21107000D02*
X43065000Y23393000D01*
X43065000Y23393000D02*
X44335000Y23393000D01*
X38565000Y11607000D02*
X38565000Y13893000D01*
X38565000Y13893000D02*
X39835000Y13893000D01*
X39835000Y13893000D02*
X39835000Y11607000D01*
X39835000Y11607000D02*
X38565000Y11607000D01*
X35635000Y13893000D02*
X35635000Y11607000D01*
X35635000Y11607000D02*
X34365000Y11607000D01*
X34365000Y11607000D02*
X34365000Y13893000D01*
X34365000Y13893000D02*
X35635000Y13893000D01*
X39765000Y53807000D02*
X39765000Y56093000D01*
X39765000Y56093000D02*
X41035000Y56093000D01*
X41035000Y56093000D02*
X41035000Y53807000D01*
X41035000Y53807000D02*
X39765000Y53807000D01*
X1790715Y57427857D02*
X1743096Y57380238D01*
X1600239Y57332619D01*
X1505001Y57332619D01*
X1362143Y57380238D01*
X1266905Y57475476D01*
X1219286Y57570714D01*
X1171667Y57761190D01*
X1171667Y57904048D01*
X1219286Y58094524D01*
X1266905Y58189762D01*
X1362143Y58285000D01*
X1505001Y58332619D01*
X1600239Y58332619D01*
X1743096Y58285000D01*
X1790715Y58237381D01*
X2409762Y58332619D02*
X2600239Y58332619D01*
X2695477Y58285000D01*
X2790715Y58189762D01*
X2838334Y57999286D01*
X2838334Y57665952D01*
X2790715Y57475476D01*
X2695477Y57380238D01*
X2600239Y57332619D01*
X2409762Y57332619D01*
X2314524Y57380238D01*
X2219286Y57475476D01*
X2171667Y57665952D01*
X2171667Y57999286D01*
X2219286Y58189762D01*
X2314524Y58285000D01*
X2409762Y58332619D01*
X3266905Y57332619D02*
X3266905Y58332619D01*
X3838334Y57332619D01*
X3838334Y58332619D01*
X4266905Y58237381D02*
X4314524Y58285000D01*
X4409762Y58332619D01*
X4647858Y58332619D01*
X4743096Y58285000D01*
X4790715Y58237381D01*
X4838334Y58142143D01*
X4838334Y58046905D01*
X4790715Y57904048D01*
X4219286Y57332619D01*
X4838334Y57332619D01*
X8605715Y52882857D02*
X8558096Y52835238D01*
X8415239Y52787619D01*
X8320001Y52787619D01*
X8177143Y52835238D01*
X8081905Y52930476D01*
X8034286Y53025714D01*
X7986667Y53216190D01*
X7986667Y53359048D01*
X8034286Y53549524D01*
X8081905Y53644762D01*
X8177143Y53740000D01*
X8320001Y53787619D01*
X8415239Y53787619D01*
X8558096Y53740000D01*
X8605715Y53692381D01*
X9224762Y53787619D02*
X9415239Y53787619D01*
X9510477Y53740000D01*
X9605715Y53644762D01*
X9653334Y53454286D01*
X9653334Y53120952D01*
X9605715Y52930476D01*
X9510477Y52835238D01*
X9415239Y52787619D01*
X9224762Y52787619D01*
X9129524Y52835238D01*
X9034286Y52930476D01*
X8986667Y53120952D01*
X8986667Y53454286D01*
X9034286Y53644762D01*
X9129524Y53740000D01*
X9224762Y53787619D01*
X10081905Y52787619D02*
X10081905Y53787619D01*
X10653334Y52787619D01*
X10653334Y53787619D01*
X11653334Y52787619D02*
X11081905Y52787619D01*
X11367619Y52787619D02*
X11367619Y53787619D01*
X11272381Y53644762D01*
X11177143Y53549524D01*
X11081905Y53501905D01*
X9761905Y61097619D02*
X9761905Y62097619D01*
X10000000Y62097619D01*
X10142858Y62050000D01*
X10238096Y61954762D01*
X10285715Y61859524D01*
X10333334Y61669048D01*
X10333334Y61526190D01*
X10285715Y61335714D01*
X10238096Y61240476D01*
X10142858Y61145238D01*
X10000000Y61097619D01*
X9761905Y61097619D01*
X11285715Y61097619D02*
X10714286Y61097619D01*
X11000000Y61097619D02*
X11000000Y62097619D01*
X10904762Y61954762D01*
X10809524Y61859524D01*
X10714286Y61811905D01*
X48492381Y53491905D02*
X47492381Y53491905D01*
X47492381Y53872858D01*
X47540000Y53968096D01*
X47587619Y54015715D01*
X47682857Y54063334D01*
X47825714Y54063334D01*
X47920952Y54015715D01*
X47968571Y53968096D01*
X48016190Y53872858D01*
X48016190Y53491905D01*
X48492381Y55015715D02*
X48492381Y54444286D01*
X48492381Y54730000D02*
X47492381Y54730000D01*
X47635238Y54634762D01*
X47730476Y54539524D01*
X47778095Y54444286D01*
X18228571Y16165867D02*
X18228571Y15832533D01*
X18752381Y15832533D02*
X17752381Y15832533D01*
X17752381Y16308724D01*
X18228571Y17023010D02*
X18276190Y17165867D01*
X18323810Y17213486D01*
X18419048Y17261105D01*
X18561905Y17261105D01*
X18657143Y17213486D01*
X18704762Y17165867D01*
X18752381Y17070629D01*
X18752381Y16689676D01*
X17752381Y16689676D01*
X17752381Y17023010D01*
X17800000Y17118248D01*
X17847619Y17165867D01*
X17942857Y17213486D01*
X18038095Y17213486D01*
X18133333Y17165867D01*
X18180952Y17118248D01*
X18228571Y17023010D01*
X18228571Y16689676D01*
X18752381Y18213486D02*
X18752381Y17642057D01*
X18752381Y17927771D02*
X17752381Y17927771D01*
X17895238Y17832533D01*
X17990476Y17737295D01*
X18038095Y17642057D01*
X16271905Y48757619D02*
X16271905Y49757619D01*
X16510000Y49757619D01*
X16652858Y49710000D01*
X16748096Y49614762D01*
X16795715Y49519524D01*
X16843334Y49329048D01*
X16843334Y49186190D01*
X16795715Y48995714D01*
X16748096Y48900476D01*
X16652858Y48805238D01*
X16510000Y48757619D01*
X16271905Y48757619D01*
X17176667Y49757619D02*
X17795715Y49757619D01*
X17462381Y49376667D01*
X17605239Y49376667D01*
X17700477Y49329048D01*
X17748096Y49281429D01*
X17795715Y49186190D01*
X17795715Y48948095D01*
X17748096Y48852857D01*
X17700477Y48805238D01*
X17605239Y48757619D01*
X17319524Y48757619D01*
X17224286Y48805238D01*
X17176667Y48852857D01*
X33952381Y58811905D02*
X32952381Y58811905D01*
X32952381Y59050000D01*
X33000000Y59192858D01*
X33095238Y59288096D01*
X33190476Y59335715D01*
X33380952Y59383334D01*
X33523810Y59383334D01*
X33714286Y59335715D01*
X33809524Y59288096D01*
X33904762Y59192858D01*
X33952381Y59050000D01*
X33952381Y58811905D01*
X33285714Y60240477D02*
X33952381Y60240477D01*
X32904762Y60002381D02*
X33619048Y59764286D01*
X33619048Y60383334D01*
X20952381Y58811905D02*
X19952381Y58811905D01*
X19952381Y59050000D01*
X20000000Y59192858D01*
X20095238Y59288096D01*
X20190476Y59335715D01*
X20380952Y59383334D01*
X20523810Y59383334D01*
X20714286Y59335715D01*
X20809524Y59288096D01*
X20904762Y59192858D01*
X20952381Y59050000D01*
X20952381Y58811905D01*
X20047619Y59764286D02*
X20000000Y59811905D01*
X19952381Y59907143D01*
X19952381Y60145239D01*
X20000000Y60240477D01*
X20047619Y60288096D01*
X20142857Y60335715D01*
X20238095Y60335715D01*
X20380952Y60288096D01*
X20952381Y59716667D01*
X20952381Y60335715D01*
D11*
X9933809Y1705238D02*
X9933809Y3705238D01*
X10695714Y3705238D01*
X10886190Y3610000D01*
X10981429Y3514762D01*
X11076667Y3324286D01*
X11076667Y3038571D01*
X10981429Y2848095D01*
X10886190Y2752857D01*
X10695714Y2657619D01*
X9933809Y2657619D01*
X11838571Y3514762D02*
X11933809Y3610000D01*
X12124286Y3705238D01*
X12600476Y3705238D01*
X12790952Y3610000D01*
X12886190Y3514762D01*
X12981429Y3324286D01*
X12981429Y3133810D01*
X12886190Y2848095D01*
X11743333Y1705238D01*
X12981429Y1705238D01*
D12*
X35814095Y23417619D02*
X35814095Y22608095D01*
X35861714Y22512857D01*
X35909333Y22465238D01*
X36004571Y22417619D01*
X36195048Y22417619D01*
X36290286Y22465238D01*
X36337905Y22512857D01*
X36385524Y22608095D01*
X36385524Y23417619D01*
X36814095Y23322381D02*
X36861714Y23370000D01*
X36956952Y23417619D01*
X37195048Y23417619D01*
X37290286Y23370000D01*
X37337905Y23322381D01*
X37385524Y23227143D01*
X37385524Y23131905D01*
X37337905Y22989048D01*
X36766476Y22417619D01*
X37385524Y22417619D01*
X36310476Y17807619D02*
X36977143Y16807619D01*
X36977143Y17807619D02*
X36310476Y16807619D01*
X37881905Y16807619D02*
X37310476Y16807619D01*
X37596190Y16807619D02*
X37596190Y17807619D01*
X37500952Y17664762D01*
X37405714Y17569524D01*
X37310476Y17521905D01*
X33798095Y44896619D02*
X33798095Y45896619D01*
X34036190Y45896619D01*
X34179048Y45849000D01*
X34274286Y45753762D01*
X34321905Y45658524D01*
X34369524Y45468048D01*
X34369524Y45325190D01*
X34321905Y45134714D01*
X34274286Y45039476D01*
X34179048Y44944238D01*
X34036190Y44896619D01*
X33798095Y44896619D01*
X35369524Y44991857D02*
X35321905Y44944238D01*
X35179048Y44896619D01*
X35083810Y44896619D01*
X34940952Y44944238D01*
X34845714Y45039476D01*
X34798095Y45134714D01*
X34750476Y45325190D01*
X34750476Y45468048D01*
X34798095Y45658524D01*
X34845714Y45753762D01*
X34940952Y45849000D01*
X35083810Y45896619D01*
X35179048Y45896619D01*
X35321905Y45849000D01*
X35369524Y45801381D01*
X35798095Y45896619D02*
X35798095Y45087095D01*
X35845714Y44991857D01*
X35893333Y44944238D01*
X35988571Y44896619D01*
X36179048Y44896619D01*
X36274286Y44944238D01*
X36321905Y44991857D01*
X36369524Y45087095D01*
X36369524Y45896619D01*
X37369524Y44896619D02*
X36798095Y44896619D01*
X37083809Y44896619D02*
X37083809Y45896619D01*
X36988571Y45753762D01*
X36893333Y45658524D01*
X36798095Y45610905D01*
X20717095Y44896619D02*
X20717095Y45896619D01*
X20955190Y45896619D01*
X21098048Y45849000D01*
X21193286Y45753762D01*
X21240905Y45658524D01*
X21288524Y45468048D01*
X21288524Y45325190D01*
X21240905Y45134714D01*
X21193286Y45039476D01*
X21098048Y44944238D01*
X20955190Y44896619D01*
X20717095Y44896619D01*
X22288524Y44991857D02*
X22240905Y44944238D01*
X22098048Y44896619D01*
X22002810Y44896619D01*
X21859952Y44944238D01*
X21764714Y45039476D01*
X21717095Y45134714D01*
X21669476Y45325190D01*
X21669476Y45468048D01*
X21717095Y45658524D01*
X21764714Y45753762D01*
X21859952Y45849000D01*
X22002810Y45896619D01*
X22098048Y45896619D01*
X22240905Y45849000D01*
X22288524Y45801381D01*
X22717095Y45896619D02*
X22717095Y45087095D01*
X22764714Y44991857D01*
X22812333Y44944238D01*
X22907571Y44896619D01*
X23098048Y44896619D01*
X23193286Y44944238D01*
X23240905Y44991857D01*
X23288524Y45087095D01*
X23288524Y45896619D01*
X23717095Y45801381D02*
X23764714Y45849000D01*
X23859952Y45896619D01*
X24098048Y45896619D01*
X24193286Y45849000D01*
X24240905Y45801381D01*
X24288524Y45706143D01*
X24288524Y45610905D01*
X24240905Y45468048D01*
X23669476Y44896619D01*
X24288524Y44896619D01*
X44592976Y30011619D02*
X45259643Y29011619D01*
X45259643Y30011619D02*
X44592976Y29011619D01*
X45592976Y29916381D02*
X45640595Y29964000D01*
X45735833Y30011619D01*
X45973929Y30011619D01*
X46069167Y29964000D01*
X46116786Y29916381D01*
X46164405Y29821143D01*
X46164405Y29725905D01*
X46116786Y29583048D01*
X45545357Y29011619D01*
X46164405Y29011619D01*
X30440334Y52474857D02*
X30392715Y52427238D01*
X30249858Y52379619D01*
X30154620Y52379619D01*
X30011762Y52427238D01*
X29916524Y52522476D01*
X29868905Y52617714D01*
X29821286Y52808190D01*
X29821286Y52951048D01*
X29868905Y53141524D01*
X29916524Y53236762D01*
X30011762Y53332000D01*
X30154620Y53379619D01*
X30249858Y53379619D01*
X30392715Y53332000D01*
X30440334Y53284381D01*
X31392715Y52379619D02*
X30821286Y52379619D01*
X31107000Y52379619D02*
X31107000Y53379619D01*
X31011762Y53236762D01*
X30916524Y53141524D01*
X30821286Y53093905D01*
X45362834Y60938619D02*
X45029500Y61414810D01*
X44791405Y60938619D02*
X44791405Y61938619D01*
X45172358Y61938619D01*
X45267596Y61891000D01*
X45315215Y61843381D01*
X45362834Y61748143D01*
X45362834Y61605286D01*
X45315215Y61510048D01*
X45267596Y61462429D01*
X45172358Y61414810D01*
X44791405Y61414810D01*
X45696167Y61938619D02*
X46315215Y61938619D01*
X45981881Y61557667D01*
X46124739Y61557667D01*
X46219977Y61510048D01*
X46267596Y61462429D01*
X46315215Y61367190D01*
X46315215Y61129095D01*
X46267596Y61033857D01*
X46219977Y60986238D01*
X46124739Y60938619D01*
X45839024Y60938619D01*
X45743786Y60986238D01*
X45696167Y61033857D01*
X28805143Y15282143D02*
X28852762Y15234524D01*
X28900381Y15091667D01*
X28900381Y14996429D01*
X28852762Y14853571D01*
X28757524Y14758333D01*
X28662286Y14710714D01*
X28471810Y14663095D01*
X28328952Y14663095D01*
X28138476Y14710714D01*
X28043238Y14758333D01*
X27948000Y14853571D01*
X27900381Y14996429D01*
X27900381Y15091667D01*
X27948000Y15234524D01*
X27995619Y15282143D01*
X27995619Y15663095D02*
X27948000Y15710714D01*
X27900381Y15805952D01*
X27900381Y16044048D01*
X27948000Y16139286D01*
X27995619Y16186905D01*
X28090857Y16234524D01*
X28186095Y16234524D01*
X28328952Y16186905D01*
X28900381Y15615476D01*
X28900381Y16234524D01*
X27900381Y16853571D02*
X27900381Y16948810D01*
X27948000Y17044048D01*
X27995619Y17091667D01*
X28090857Y17139286D01*
X28281333Y17186905D01*
X28519429Y17186905D01*
X28709905Y17139286D01*
X28805143Y17091667D01*
X28852762Y17044048D01*
X28900381Y16948810D01*
X28900381Y16853571D01*
X28852762Y16758333D01*
X28805143Y16710714D01*
X28709905Y16663095D01*
X28519429Y16615476D01*
X28281333Y16615476D01*
X28090857Y16663095D01*
X27995619Y16710714D01*
X27948000Y16758333D01*
X27900381Y16853571D01*
X27281143Y15282143D02*
X27328762Y15234524D01*
X27376381Y15091667D01*
X27376381Y14996429D01*
X27328762Y14853571D01*
X27233524Y14758333D01*
X27138286Y14710714D01*
X26947810Y14663095D01*
X26804952Y14663095D01*
X26614476Y14710714D01*
X26519238Y14758333D01*
X26424000Y14853571D01*
X26376381Y14996429D01*
X26376381Y15091667D01*
X26424000Y15234524D01*
X26471619Y15282143D01*
X27376381Y16234524D02*
X27376381Y15663095D01*
X27376381Y15948809D02*
X26376381Y15948809D01*
X26519238Y15853571D01*
X26614476Y15758333D01*
X26662095Y15663095D01*
X27376381Y16710714D02*
X27376381Y16901190D01*
X27328762Y16996429D01*
X27281143Y17044048D01*
X27138286Y17139286D01*
X26947810Y17186905D01*
X26566857Y17186905D01*
X26471619Y17139286D01*
X26424000Y17091667D01*
X26376381Y16996429D01*
X26376381Y16805952D01*
X26424000Y16710714D01*
X26471619Y16663095D01*
X26566857Y16615476D01*
X26804952Y16615476D01*
X26900190Y16663095D01*
X26947810Y16710714D01*
X26995429Y16805952D01*
X26995429Y16996429D01*
X26947810Y17091667D01*
X26900190Y17139286D01*
X26804952Y17186905D01*
X38139643Y40364643D02*
X38187262Y40317024D01*
X38234881Y40174167D01*
X38234881Y40078929D01*
X38187262Y39936071D01*
X38092024Y39840833D01*
X37996786Y39793214D01*
X37806310Y39745595D01*
X37663452Y39745595D01*
X37472976Y39793214D01*
X37377738Y39840833D01*
X37282500Y39936071D01*
X37234881Y40078929D01*
X37234881Y40174167D01*
X37282500Y40317024D01*
X37330119Y40364643D01*
X38234881Y41317024D02*
X38234881Y40745595D01*
X38234881Y41031309D02*
X37234881Y41031309D01*
X37377738Y40936071D01*
X37472976Y40840833D01*
X37520595Y40745595D01*
X37663452Y41888452D02*
X37615833Y41793214D01*
X37568214Y41745595D01*
X37472976Y41697976D01*
X37425357Y41697976D01*
X37330119Y41745595D01*
X37282500Y41793214D01*
X37234881Y41888452D01*
X37234881Y42078929D01*
X37282500Y42174167D01*
X37330119Y42221786D01*
X37425357Y42269405D01*
X37472976Y42269405D01*
X37568214Y42221786D01*
X37615833Y42174167D01*
X37663452Y42078929D01*
X37663452Y41888452D01*
X37711071Y41793214D01*
X37758690Y41745595D01*
X37853929Y41697976D01*
X38044405Y41697976D01*
X38139643Y41745595D01*
X38187262Y41793214D01*
X38234881Y41888452D01*
X38234881Y42078929D01*
X38187262Y42174167D01*
X38139643Y42221786D01*
X38044405Y42269405D01*
X37853929Y42269405D01*
X37758690Y42221786D01*
X37711071Y42174167D01*
X37663452Y42078929D01*
X32996143Y15663143D02*
X33043762Y15615524D01*
X33091381Y15472667D01*
X33091381Y15377429D01*
X33043762Y15234571D01*
X32948524Y15139333D01*
X32853286Y15091714D01*
X32662810Y15044095D01*
X32519952Y15044095D01*
X32329476Y15091714D01*
X32234238Y15139333D01*
X32139000Y15234571D01*
X32091381Y15377429D01*
X32091381Y15472667D01*
X32139000Y15615524D01*
X32186619Y15663143D01*
X33091381Y16615524D02*
X33091381Y16044095D01*
X33091381Y16329809D02*
X32091381Y16329809D01*
X32234238Y16234571D01*
X32329476Y16139333D01*
X32377095Y16044095D01*
X32091381Y16948857D02*
X32091381Y17615524D01*
X33091381Y17186952D01*
X39663643Y40364643D02*
X39711262Y40317024D01*
X39758881Y40174167D01*
X39758881Y40078929D01*
X39711262Y39936071D01*
X39616024Y39840833D01*
X39520786Y39793214D01*
X39330310Y39745595D01*
X39187452Y39745595D01*
X38996976Y39793214D01*
X38901738Y39840833D01*
X38806500Y39936071D01*
X38758881Y40078929D01*
X38758881Y40174167D01*
X38806500Y40317024D01*
X38854119Y40364643D01*
X39758881Y41317024D02*
X39758881Y40745595D01*
X39758881Y41031309D02*
X38758881Y41031309D01*
X38901738Y40936071D01*
X38996976Y40840833D01*
X39044595Y40745595D01*
X38758881Y42174167D02*
X38758881Y41983690D01*
X38806500Y41888452D01*
X38854119Y41840833D01*
X38996976Y41745595D01*
X39187452Y41697976D01*
X39568405Y41697976D01*
X39663643Y41745595D01*
X39711262Y41793214D01*
X39758881Y41888452D01*
X39758881Y42078929D01*
X39711262Y42174167D01*
X39663643Y42221786D01*
X39568405Y42269405D01*
X39330310Y42269405D01*
X39235071Y42221786D01*
X39187452Y42174167D01*
X39139833Y42078929D01*
X39139833Y41888452D01*
X39187452Y41793214D01*
X39235071Y41745595D01*
X39330310Y41697976D01*
X31472143Y15282143D02*
X31519762Y15234524D01*
X31567381Y15091667D01*
X31567381Y14996429D01*
X31519762Y14853571D01*
X31424524Y14758333D01*
X31329286Y14710714D01*
X31138810Y14663095D01*
X30995952Y14663095D01*
X30805476Y14710714D01*
X30710238Y14758333D01*
X30615000Y14853571D01*
X30567381Y14996429D01*
X30567381Y15091667D01*
X30615000Y15234524D01*
X30662619Y15282143D01*
X31567381Y16234524D02*
X31567381Y15663095D01*
X31567381Y15948809D02*
X30567381Y15948809D01*
X30710238Y15853571D01*
X30805476Y15758333D01*
X30853095Y15663095D01*
X30567381Y17139286D02*
X30567381Y16663095D01*
X31043571Y16615476D01*
X30995952Y16663095D01*
X30948333Y16758333D01*
X30948333Y16996429D01*
X30995952Y17091667D01*
X31043571Y17139286D01*
X31138810Y17186905D01*
X31376905Y17186905D01*
X31472143Y17139286D01*
X31519762Y17091667D01*
X31567381Y16996429D01*
X31567381Y16758333D01*
X31519762Y16663095D01*
X31472143Y16615476D01*
X23097143Y15287143D02*
X23144762Y15239524D01*
X23192381Y15096667D01*
X23192381Y15001429D01*
X23144762Y14858571D01*
X23049524Y14763333D01*
X22954286Y14715714D01*
X22763810Y14668095D01*
X22620952Y14668095D01*
X22430476Y14715714D01*
X22335238Y14763333D01*
X22240000Y14858571D01*
X22192381Y15001429D01*
X22192381Y15096667D01*
X22240000Y15239524D01*
X22287619Y15287143D01*
X23192381Y16239524D02*
X23192381Y15668095D01*
X23192381Y15953809D02*
X22192381Y15953809D01*
X22335238Y15858571D01*
X22430476Y15763333D01*
X22478095Y15668095D01*
X22525714Y17096667D02*
X23192381Y17096667D01*
X22144762Y16858571D02*
X22859048Y16620476D01*
X22859048Y17239524D01*
X14263643Y35284643D02*
X14311262Y35237024D01*
X14358881Y35094167D01*
X14358881Y34998929D01*
X14311262Y34856071D01*
X14216024Y34760833D01*
X14120786Y34713214D01*
X13930310Y34665595D01*
X13787452Y34665595D01*
X13596976Y34713214D01*
X13501738Y34760833D01*
X13406500Y34856071D01*
X13358881Y34998929D01*
X13358881Y35094167D01*
X13406500Y35237024D01*
X13454119Y35284643D01*
X14358881Y36237024D02*
X14358881Y35665595D01*
X14358881Y35951309D02*
X13358881Y35951309D01*
X13501738Y35856071D01*
X13596976Y35760833D01*
X13644595Y35665595D01*
X13358881Y36570357D02*
X13358881Y37189405D01*
X13739833Y36856071D01*
X13739833Y36998929D01*
X13787452Y37094167D01*
X13835071Y37141786D01*
X13930310Y37189405D01*
X14168405Y37189405D01*
X14263643Y37141786D01*
X14311262Y37094167D01*
X14358881Y36998929D01*
X14358881Y36713214D01*
X14311262Y36617976D01*
X14263643Y36570357D01*
X24597143Y15287143D02*
X24644762Y15239524D01*
X24692381Y15096667D01*
X24692381Y15001429D01*
X24644762Y14858571D01*
X24549524Y14763333D01*
X24454286Y14715714D01*
X24263810Y14668095D01*
X24120952Y14668095D01*
X23930476Y14715714D01*
X23835238Y14763333D01*
X23740000Y14858571D01*
X23692381Y15001429D01*
X23692381Y15096667D01*
X23740000Y15239524D01*
X23787619Y15287143D01*
X24692381Y16239524D02*
X24692381Y15668095D01*
X24692381Y15953809D02*
X23692381Y15953809D01*
X23835238Y15858571D01*
X23930476Y15763333D01*
X23978095Y15668095D01*
X23787619Y16620476D02*
X23740000Y16668095D01*
X23692381Y16763333D01*
X23692381Y17001429D01*
X23740000Y17096667D01*
X23787619Y17144286D01*
X23882857Y17191905D01*
X23978095Y17191905D01*
X24120952Y17144286D01*
X24692381Y16572857D01*
X24692381Y17191905D01*
X12676143Y35284643D02*
X12723762Y35237024D01*
X12771381Y35094167D01*
X12771381Y34998929D01*
X12723762Y34856071D01*
X12628524Y34760833D01*
X12533286Y34713214D01*
X12342810Y34665595D01*
X12199952Y34665595D01*
X12009476Y34713214D01*
X11914238Y34760833D01*
X11819000Y34856071D01*
X11771381Y34998929D01*
X11771381Y35094167D01*
X11819000Y35237024D01*
X11866619Y35284643D01*
X12771381Y36237024D02*
X12771381Y35665595D01*
X12771381Y35951309D02*
X11771381Y35951309D01*
X11914238Y35856071D01*
X12009476Y35760833D01*
X12057095Y35665595D01*
X12771381Y37189405D02*
X12771381Y36617976D01*
X12771381Y36903690D02*
X11771381Y36903690D01*
X11914238Y36808452D01*
X12009476Y36713214D01*
X12057095Y36617976D01*
X9501143Y35221143D02*
X9548762Y35173524D01*
X9596381Y35030667D01*
X9596381Y34935429D01*
X9548762Y34792571D01*
X9453524Y34697333D01*
X9358286Y34649714D01*
X9167810Y34602095D01*
X9024952Y34602095D01*
X8834476Y34649714D01*
X8739238Y34697333D01*
X8644000Y34792571D01*
X8596381Y34935429D01*
X8596381Y35030667D01*
X8644000Y35173524D01*
X8691619Y35221143D01*
X9596381Y36173524D02*
X9596381Y35602095D01*
X9596381Y35887809D02*
X8596381Y35887809D01*
X8739238Y35792571D01*
X8834476Y35697333D01*
X8882095Y35602095D01*
X8596381Y36792571D02*
X8596381Y36887810D01*
X8644000Y36983048D01*
X8691619Y37030667D01*
X8786857Y37078286D01*
X8977333Y37125905D01*
X9215429Y37125905D01*
X9405905Y37078286D01*
X9501143Y37030667D01*
X9548762Y36983048D01*
X9596381Y36887810D01*
X9596381Y36792571D01*
X9548762Y36697333D01*
X9501143Y36649714D01*
X9405905Y36602095D01*
X9215429Y36554476D01*
X8977333Y36554476D01*
X8786857Y36602095D01*
X8691619Y36649714D01*
X8644000Y36697333D01*
X8596381Y36792571D01*
X11088643Y36205334D02*
X11136262Y36157715D01*
X11183881Y36014858D01*
X11183881Y35919620D01*
X11136262Y35776762D01*
X11041024Y35681524D01*
X10945786Y35633905D01*
X10755310Y35586286D01*
X10612452Y35586286D01*
X10421976Y35633905D01*
X10326738Y35681524D01*
X10231500Y35776762D01*
X10183881Y35919620D01*
X10183881Y36014858D01*
X10231500Y36157715D01*
X10279119Y36205334D01*
X11183881Y36681524D02*
X11183881Y36872000D01*
X11136262Y36967239D01*
X11088643Y37014858D01*
X10945786Y37110096D01*
X10755310Y37157715D01*
X10374357Y37157715D01*
X10279119Y37110096D01*
X10231500Y37062477D01*
X10183881Y36967239D01*
X10183881Y36776762D01*
X10231500Y36681524D01*
X10279119Y36633905D01*
X10374357Y36586286D01*
X10612452Y36586286D01*
X10707690Y36633905D01*
X10755310Y36681524D01*
X10802929Y36776762D01*
X10802929Y36967239D01*
X10755310Y37062477D01*
X10707690Y37110096D01*
X10612452Y37157715D01*
X17326334Y56710857D02*
X17278715Y56663238D01*
X17135858Y56615619D01*
X17040620Y56615619D01*
X16897762Y56663238D01*
X16802524Y56758476D01*
X16754905Y56853714D01*
X16707286Y57044190D01*
X16707286Y57187048D01*
X16754905Y57377524D01*
X16802524Y57472762D01*
X16897762Y57568000D01*
X17040620Y57615619D01*
X17135858Y57615619D01*
X17278715Y57568000D01*
X17326334Y57520381D01*
X17897762Y57187048D02*
X17802524Y57234667D01*
X17754905Y57282286D01*
X17707286Y57377524D01*
X17707286Y57425143D01*
X17754905Y57520381D01*
X17802524Y57568000D01*
X17897762Y57615619D01*
X18088239Y57615619D01*
X18183477Y57568000D01*
X18231096Y57520381D01*
X18278715Y57425143D01*
X18278715Y57377524D01*
X18231096Y57282286D01*
X18183477Y57234667D01*
X18088239Y57187048D01*
X17897762Y57187048D01*
X17802524Y57139429D01*
X17754905Y57091810D01*
X17707286Y56996571D01*
X17707286Y56806095D01*
X17754905Y56710857D01*
X17802524Y56663238D01*
X17897762Y56615619D01*
X18088239Y56615619D01*
X18183477Y56663238D01*
X18231096Y56710857D01*
X18278715Y56806095D01*
X18278715Y56996571D01*
X18231096Y57091810D01*
X18183477Y57139429D01*
X18088239Y57187048D01*
X45235834Y36268857D02*
X45188215Y36221238D01*
X45045358Y36173619D01*
X44950120Y36173619D01*
X44807262Y36221238D01*
X44712024Y36316476D01*
X44664405Y36411714D01*
X44616786Y36602190D01*
X44616786Y36745048D01*
X44664405Y36935524D01*
X44712024Y37030762D01*
X44807262Y37126000D01*
X44950120Y37173619D01*
X45045358Y37173619D01*
X45188215Y37126000D01*
X45235834Y37078381D01*
X45569167Y37173619D02*
X46235834Y37173619D01*
X45807262Y36173619D01*
X27340334Y52474857D02*
X27292715Y52427238D01*
X27149858Y52379619D01*
X27054620Y52379619D01*
X26911762Y52427238D01*
X26816524Y52522476D01*
X26768905Y52617714D01*
X26721286Y52808190D01*
X26721286Y52951048D01*
X26768905Y53141524D01*
X26816524Y53236762D01*
X26911762Y53332000D01*
X27054620Y53379619D01*
X27149858Y53379619D01*
X27292715Y53332000D01*
X27340334Y53284381D01*
X28197477Y53379619D02*
X28007000Y53379619D01*
X27911762Y53332000D01*
X27864143Y53284381D01*
X27768905Y53141524D01*
X27721286Y52951048D01*
X27721286Y52570095D01*
X27768905Y52474857D01*
X27816524Y52427238D01*
X27911762Y52379619D01*
X28102239Y52379619D01*
X28197477Y52427238D01*
X28245096Y52474857D01*
X28292715Y52570095D01*
X28292715Y52808190D01*
X28245096Y52903429D01*
X28197477Y52951048D01*
X28102239Y52998667D01*
X27911762Y52998667D01*
X27816524Y52951048D01*
X27768905Y52903429D01*
X27721286Y52808190D01*
X45299334Y21854357D02*
X45251715Y21806738D01*
X45108858Y21759119D01*
X45013620Y21759119D01*
X44870762Y21806738D01*
X44775524Y21901976D01*
X44727905Y21997214D01*
X44680286Y22187690D01*
X44680286Y22330548D01*
X44727905Y22521024D01*
X44775524Y22616262D01*
X44870762Y22711500D01*
X45013620Y22759119D01*
X45108858Y22759119D01*
X45251715Y22711500D01*
X45299334Y22663881D01*
X46204096Y22759119D02*
X45727905Y22759119D01*
X45680286Y22282929D01*
X45727905Y22330548D01*
X45823143Y22378167D01*
X46061239Y22378167D01*
X46156477Y22330548D01*
X46204096Y22282929D01*
X46251715Y22187690D01*
X46251715Y21949595D01*
X46204096Y21854357D01*
X46156477Y21806738D01*
X46061239Y21759119D01*
X45823143Y21759119D01*
X45727905Y21806738D01*
X45680286Y21854357D01*
X39076334Y10233857D02*
X39028715Y10186238D01*
X38885858Y10138619D01*
X38790620Y10138619D01*
X38647762Y10186238D01*
X38552524Y10281476D01*
X38504905Y10376714D01*
X38457286Y10567190D01*
X38457286Y10710048D01*
X38504905Y10900524D01*
X38552524Y10995762D01*
X38647762Y11091000D01*
X38790620Y11138619D01*
X38885858Y11138619D01*
X39028715Y11091000D01*
X39076334Y11043381D01*
X39933477Y10805286D02*
X39933477Y10138619D01*
X39695381Y11186238D02*
X39457286Y10471952D01*
X40076334Y10471952D01*
X34840334Y10274857D02*
X34792715Y10227238D01*
X34649858Y10179619D01*
X34554620Y10179619D01*
X34411762Y10227238D01*
X34316524Y10322476D01*
X34268905Y10417714D01*
X34221286Y10608190D01*
X34221286Y10751048D01*
X34268905Y10941524D01*
X34316524Y11036762D01*
X34411762Y11132000D01*
X34554620Y11179619D01*
X34649858Y11179619D01*
X34792715Y11132000D01*
X34840334Y11084381D01*
X35173667Y11179619D02*
X35792715Y11179619D01*
X35459381Y10798667D01*
X35602239Y10798667D01*
X35697477Y10751048D01*
X35745096Y10703429D01*
X35792715Y10608190D01*
X35792715Y10370095D01*
X35745096Y10274857D01*
X35697477Y10227238D01*
X35602239Y10179619D01*
X35316524Y10179619D01*
X35221286Y10227238D01*
X35173667Y10274857D01*
X40226334Y56710857D02*
X40178715Y56663238D01*
X40035858Y56615619D01*
X39940620Y56615619D01*
X39797762Y56663238D01*
X39702524Y56758476D01*
X39654905Y56853714D01*
X39607286Y57044190D01*
X39607286Y57187048D01*
X39654905Y57377524D01*
X39702524Y57472762D01*
X39797762Y57568000D01*
X39940620Y57615619D01*
X40035858Y57615619D01*
X40178715Y57568000D01*
X40226334Y57520381D01*
X40607286Y57520381D02*
X40654905Y57568000D01*
X40750143Y57615619D01*
X40988239Y57615619D01*
X41083477Y57568000D01*
X41131096Y57520381D01*
X41178715Y57425143D01*
X41178715Y57329905D01*
X41131096Y57187048D01*
X40559667Y56615619D01*
X41178715Y56615619D01*
%LPC*%
D14*
X4180000Y62210000D03*
X4180000Y62860000D03*
X4180000Y63510000D03*
X4180000Y64160000D03*
X4180000Y64810000D03*
D15*
X3855000Y60410000D03*
X3855000Y66610000D03*
D16*
X1180000Y67610000D03*
X1180000Y59410000D03*
D17*
X7800000Y47750000D03*
D18*
X10800000Y42850000D03*
D19*
X13800000Y47750000D03*
D20*
X9100000Y59550000D03*
X11900000Y59550000D03*
D21*
X50005000Y64370000D03*
D22*
X51275000Y64370000D03*
X50005000Y63100000D03*
X51275000Y63100000D03*
X50005000Y61830000D03*
X51275000Y61830000D03*
X50005000Y60560000D03*
X51275000Y60560000D03*
X50005000Y59290000D03*
X51275000Y59290000D03*
D23*
X18200000Y14102500D03*
X18200000Y12197500D03*
D20*
X16990000Y47730000D03*
X16990000Y44930000D03*
X35500000Y58150000D03*
X35500000Y60950000D03*
X22500000Y58150000D03*
X22500000Y60950000D03*
D24*
X27190000Y2630000D03*
D25*
X24650000Y2630000D03*
X22110000Y2630000D03*
X19570000Y2630000D03*
X17030000Y2630000D03*
X14490000Y2630000D03*
D10*
G36*
X47298000Y27896000D02*
X49222000Y27896000D01*
X49222000Y25972000D01*
X47298000Y25972000D01*
X47298000Y27896000D01*
X47298000Y27896000D01*
G37*
D26*
X48260000Y29474000D03*
X48260000Y32014000D03*
X48260000Y34554000D03*
X48260000Y37094000D03*
X48260000Y39634000D03*
X48260000Y42174000D03*
X48260000Y44714000D03*
X48260000Y47254000D03*
X48260000Y49794000D03*
D10*
G36*
X47298000Y4128000D02*
X47298000Y6052000D01*
X49222000Y6052000D01*
X49222000Y4128000D01*
X47298000Y4128000D01*
X47298000Y4128000D01*
G37*
D26*
X48260000Y7630000D03*
X48260000Y10170000D03*
X48260000Y12710000D03*
X48260000Y15250000D03*
X48260000Y17790000D03*
X48260000Y22870000D03*
X48260000Y20330000D03*
D10*
G36*
X4118000Y21908000D02*
X4118000Y23832000D01*
X6042000Y23832000D01*
X6042000Y21908000D01*
X4118000Y21908000D01*
X4118000Y21908000D01*
G37*
D26*
X5080000Y25410000D03*
X5080000Y27950000D03*
X5080000Y30490000D03*
X5080000Y33030000D03*
X5080000Y35570000D03*
X5080000Y38110000D03*
X5080000Y40650000D03*
D10*
G36*
X6042000Y6052000D02*
X6042000Y4128000D01*
X4118000Y4128000D01*
X4118000Y6052000D01*
X6042000Y6052000D01*
X6042000Y6052000D01*
G37*
D26*
X5080000Y7630000D03*
X5080000Y10170000D03*
X5080000Y12710000D03*
X5080000Y15250000D03*
X5080000Y17790000D03*
D27*
X8890000Y8900000D03*
D28*
X11430000Y8900000D03*
X13970000Y8900000D03*
X16510000Y8900000D03*
X19050000Y8900000D03*
X21590000Y8900000D03*
X24130000Y8900000D03*
X26670000Y8900000D03*
X29210000Y8900000D03*
X31750000Y8900000D03*
X34290000Y8900000D03*
X36830000Y8900000D03*
X39370000Y8900000D03*
X41910000Y8900000D03*
X44450000Y8900000D03*
X8890000Y6360000D03*
X11430000Y6360000D03*
X13970000Y6360000D03*
X16510000Y6360000D03*
X19050000Y6360000D03*
X21590000Y6360000D03*
X24130000Y6360000D03*
X26670000Y6360000D03*
X29210000Y6360000D03*
X31750000Y6360000D03*
X34290000Y6360000D03*
X36830000Y6360000D03*
X39370000Y6360000D03*
X41910000Y6360000D03*
X44450000Y6360000D03*
D10*
G36*
X49838000Y27896000D02*
X51762000Y27896000D01*
X51762000Y25972000D01*
X49838000Y25972000D01*
X49838000Y27896000D01*
X49838000Y27896000D01*
G37*
D26*
X50800000Y29474000D03*
X50800000Y32014000D03*
X50800000Y34554000D03*
X50800000Y37094000D03*
X50800000Y39634000D03*
X50800000Y42174000D03*
X50800000Y44714000D03*
X50800000Y47254000D03*
X50800000Y49794000D03*
D10*
G36*
X49838000Y4128000D02*
X49838000Y6052000D01*
X51762000Y6052000D01*
X51762000Y4128000D01*
X49838000Y4128000D01*
X49838000Y4128000D01*
G37*
D26*
X50800000Y7630000D03*
X50800000Y10170000D03*
X50800000Y12710000D03*
X50800000Y15250000D03*
X50800000Y17790000D03*
X50800000Y22870000D03*
X50800000Y20330000D03*
D10*
G36*
X1578000Y21908000D02*
X1578000Y23832000D01*
X3502000Y23832000D01*
X3502000Y21908000D01*
X1578000Y21908000D01*
X1578000Y21908000D01*
G37*
D26*
X2540000Y25410000D03*
X2540000Y27950000D03*
X2540000Y30490000D03*
X2540000Y33030000D03*
X2540000Y35570000D03*
X2540000Y38110000D03*
X2540000Y40650000D03*
D10*
G36*
X3502000Y6052000D02*
X3502000Y4128000D01*
X1578000Y4128000D01*
X1578000Y6052000D01*
X3502000Y6052000D01*
X3502000Y6052000D01*
G37*
D26*
X2540000Y7630000D03*
X2540000Y10170000D03*
X2540000Y12710000D03*
X2540000Y15250000D03*
X2540000Y17790000D03*
D29*
X7620000Y2550000D03*
X35560000Y2550000D03*
X2540000Y54620000D03*
X50800000Y53350000D03*
D27*
X8890000Y66050000D03*
D28*
X11430000Y66050000D03*
X13970000Y66050000D03*
X16510000Y66050000D03*
X19050000Y66050000D03*
X21590000Y66050000D03*
X24130000Y66050000D03*
X26670000Y66050000D03*
X29210000Y66050000D03*
X31750000Y66050000D03*
X34290000Y66050000D03*
X36830000Y66050000D03*
X39370000Y66050000D03*
X41910000Y66050000D03*
X44450000Y66050000D03*
X8890000Y63510000D03*
X11430000Y63510000D03*
X13970000Y63510000D03*
X16510000Y63510000D03*
X19050000Y63510000D03*
X21590000Y63510000D03*
X24130000Y63510000D03*
X26670000Y63510000D03*
X29210000Y63510000D03*
X31750000Y63510000D03*
X34290000Y63510000D03*
X36830000Y63510000D03*
X39370000Y63510000D03*
X41910000Y63510000D03*
X44450000Y63510000D03*
D30*
X13000000Y19350000D03*
X9000000Y19350000D03*
X13000000Y12550000D03*
X9000000Y12550000D03*
D31*
X34200000Y22790000D03*
D32*
X34200000Y23350000D03*
X34200000Y23850000D03*
X34200000Y24350000D03*
X34200000Y24850000D03*
X34200000Y25350000D03*
X34200000Y25850000D03*
X34200000Y26350000D03*
X34200000Y26850000D03*
X34200000Y27350000D03*
X34200000Y27850000D03*
X34200000Y28350000D03*
X34200000Y28850000D03*
X34200000Y29350000D03*
X34200000Y29850000D03*
X34200000Y30350000D03*
X34200000Y30850000D03*
X34200000Y31350000D03*
X34200000Y31850000D03*
X34200000Y32350000D03*
X34200000Y32850000D03*
X34200000Y33350000D03*
X34200000Y33850000D03*
X34200000Y34350000D03*
D31*
X34200000Y34910000D03*
D33*
X32560000Y36550000D03*
D34*
X32000000Y36550000D03*
X31500000Y36550000D03*
X31000000Y36550000D03*
X30500000Y36550000D03*
X30000000Y36550000D03*
X29500000Y36550000D03*
X29000000Y36550000D03*
X28500000Y36550000D03*
X28000000Y36550000D03*
X27500000Y36550000D03*
X27000000Y36550000D03*
X26500000Y36550000D03*
X26000000Y36550000D03*
X25500000Y36550000D03*
X25000000Y36550000D03*
X24500000Y36550000D03*
X24000000Y36550000D03*
X23500000Y36550000D03*
X23000000Y36550000D03*
X22500000Y36550000D03*
X22000000Y36550000D03*
X21500000Y36550000D03*
X21000000Y36550000D03*
D33*
X20440000Y36550000D03*
D31*
X18800000Y34910000D03*
D32*
X18800000Y34350000D03*
X18800000Y33850000D03*
X18800000Y33350000D03*
X18800000Y32850000D03*
X18800000Y32350000D03*
X18800000Y31850000D03*
X18800000Y31350000D03*
X18800000Y30850000D03*
X18800000Y30350000D03*
X18800000Y29850000D03*
X18800000Y29350000D03*
X18800000Y28850000D03*
X18800000Y28350000D03*
X18800000Y27850000D03*
X18800000Y27350000D03*
X18800000Y26850000D03*
X18800000Y26350000D03*
X18800000Y25850000D03*
X18800000Y25350000D03*
X18800000Y24850000D03*
X18800000Y24350000D03*
X18800000Y23850000D03*
X18800000Y23350000D03*
D31*
X18800000Y22790000D03*
D33*
X20440000Y21150000D03*
D34*
X21000000Y21150000D03*
X21500000Y21150000D03*
X22000000Y21150000D03*
X22500000Y21150000D03*
X23000000Y21150000D03*
X23500000Y21150000D03*
X24000000Y21150000D03*
X24500000Y21150000D03*
X25000000Y21150000D03*
X25500000Y21150000D03*
X26000000Y21150000D03*
X26500000Y21150000D03*
X27000000Y21150000D03*
X27500000Y21150000D03*
X28000000Y21150000D03*
X28500000Y21150000D03*
X29000000Y21150000D03*
X29500000Y21150000D03*
X30000000Y21150000D03*
X30500000Y21150000D03*
X31000000Y21150000D03*
X31500000Y21150000D03*
X32000000Y21150000D03*
D33*
X32560000Y21150000D03*
D10*
G36*
X34150000Y14150000D02*
X34150000Y16750000D01*
X35850000Y16750000D01*
X35850000Y14150000D01*
X34150000Y14150000D01*
X34150000Y14150000D01*
G37*
G36*
X38350000Y14150000D02*
X38350000Y16750000D01*
X40050000Y16750000D01*
X40050000Y14150000D01*
X38350000Y14150000D01*
X38350000Y14150000D01*
G37*
D35*
X35500000Y47950000D03*
D36*
X35500000Y54150000D03*
X33200000Y54150000D03*
X37800000Y54150000D03*
D35*
X22500000Y47950000D03*
D36*
X22500000Y54150000D03*
X20200000Y54150000D03*
X24800000Y54150000D03*
D37*
X41800000Y24450000D03*
X41800000Y34450000D03*
D30*
X9049000Y24717000D03*
X13049000Y24717000D03*
X9049000Y31517000D03*
X13049000Y31517000D03*
D38*
X30600000Y55712000D03*
X30600000Y54188000D03*
D39*
X44754800Y60044800D03*
X46278800Y60044800D03*
D38*
X28400000Y13912000D03*
X28400000Y12388000D03*
X26900000Y13912000D03*
X26900000Y12388000D03*
X37800000Y38912000D03*
X37800000Y37388000D03*
X32600000Y13912000D03*
X32600000Y12388000D03*
X39300000Y37388000D03*
X39300000Y38912000D03*
X31100000Y13912000D03*
X31100000Y12388000D03*
X22700000Y13912000D03*
X22700000Y12388000D03*
X13906500Y37896000D03*
X13906500Y39420000D03*
X24200000Y13912000D03*
X24200000Y12388000D03*
X12319000Y37896000D03*
X12319000Y39420000D03*
X9144000Y37896000D03*
X9144000Y39420000D03*
X10731500Y37896000D03*
X10731500Y39420000D03*
X17500000Y54188000D03*
X17500000Y55712000D03*
X43600000Y37412000D03*
X43600000Y35888000D03*
X27500000Y55712000D03*
X27500000Y54188000D03*
X43700000Y23012000D03*
X43700000Y21488000D03*
X39200000Y11988000D03*
X39200000Y13512000D03*
X35000000Y13512000D03*
X35000000Y11988000D03*
X40400000Y54188000D03*
X40400000Y55712000D03*
M02*
