G04 #@! TF.FileFunction,Copper,L2,Bot,Signal*
%FSLAX46Y46*%
G04 Gerber Fmt 4.6, Leading zero omitted, Abs format (unit mm)*
G04 Created by KiCad (PCBNEW (after 2015-mar-04 BZR unknown)-product) date 2015年06月14日日曜日 16:42:44*
%MOMM*%
G01*
G04 APERTURE LIST*
%ADD10C,0.100000*%
%ADD11R,2.000000X4.000000*%
%ADD12R,4.000000X2.000000*%
%ADD13R,2.000000X4.500000*%
%ADD14R,1.000000X1.000000*%
%ADD15C,1.000000*%
%ADD16R,1.727200X2.032000*%
%ADD17O,1.727200X2.032000*%
%ADD18C,1.524000*%
%ADD19R,1.530000X1.530000*%
%ADD20C,1.530000*%
%ADD21C,0.600000*%
%ADD22C,0.254000*%
%ADD23C,0.635000*%
%ADD24C,0.381000*%
%ADD25C,0.127000*%
G04 APERTURE END LIST*
D10*
D11*
X7800000Y47750000D03*
D12*
X10800000Y42850000D03*
D13*
X13800000Y47750000D03*
D14*
X50005000Y64370000D03*
D15*
X51275000Y64370000D03*
X50005000Y63100000D03*
X51275000Y63100000D03*
X50005000Y61830000D03*
X51275000Y61830000D03*
X50005000Y60560000D03*
X51275000Y60560000D03*
X50005000Y59290000D03*
X51275000Y59290000D03*
D16*
X27190000Y2630000D03*
D17*
X24650000Y2630000D03*
X22110000Y2630000D03*
X19570000Y2630000D03*
X17030000Y2630000D03*
X14490000Y2630000D03*
D10*
G36*
X47498000Y27696000D02*
X49022000Y27696000D01*
X49022000Y26172000D01*
X47498000Y26172000D01*
X47498000Y27696000D01*
X47498000Y27696000D01*
G37*
D18*
X48260000Y29474000D03*
X48260000Y32014000D03*
X48260000Y34554000D03*
X48260000Y37094000D03*
X48260000Y39634000D03*
X48260000Y42174000D03*
X48260000Y44714000D03*
X48260000Y47254000D03*
X48260000Y49794000D03*
D10*
G36*
X47498000Y4328000D02*
X47498000Y5852000D01*
X49022000Y5852000D01*
X49022000Y4328000D01*
X47498000Y4328000D01*
X47498000Y4328000D01*
G37*
D18*
X48260000Y7630000D03*
X48260000Y10170000D03*
X48260000Y12710000D03*
X48260000Y15250000D03*
X48260000Y17790000D03*
X48260000Y22870000D03*
X48260000Y20330000D03*
D10*
G36*
X4318000Y22108000D02*
X4318000Y23632000D01*
X5842000Y23632000D01*
X5842000Y22108000D01*
X4318000Y22108000D01*
X4318000Y22108000D01*
G37*
D18*
X5080000Y25410000D03*
X5080000Y27950000D03*
X5080000Y30490000D03*
X5080000Y33030000D03*
X5080000Y35570000D03*
X5080000Y38110000D03*
X5080000Y40650000D03*
D10*
G36*
X5842000Y5852000D02*
X5842000Y4328000D01*
X4318000Y4328000D01*
X4318000Y5852000D01*
X5842000Y5852000D01*
X5842000Y5852000D01*
G37*
D18*
X5080000Y7630000D03*
X5080000Y10170000D03*
X5080000Y12710000D03*
X5080000Y15250000D03*
X5080000Y17790000D03*
D19*
X8890000Y8900000D03*
D20*
X11430000Y8900000D03*
X13970000Y8900000D03*
X16510000Y8900000D03*
X19050000Y8900000D03*
X21590000Y8900000D03*
X24130000Y8900000D03*
X26670000Y8900000D03*
X29210000Y8900000D03*
X31750000Y8900000D03*
X34290000Y8900000D03*
X36830000Y8900000D03*
X39370000Y8900000D03*
X41910000Y8900000D03*
X44450000Y8900000D03*
X8890000Y6360000D03*
X11430000Y6360000D03*
X13970000Y6360000D03*
X16510000Y6360000D03*
X19050000Y6360000D03*
X21590000Y6360000D03*
X24130000Y6360000D03*
X26670000Y6360000D03*
X29210000Y6360000D03*
X31750000Y6360000D03*
X34290000Y6360000D03*
X36830000Y6360000D03*
X39370000Y6360000D03*
X41910000Y6360000D03*
X44450000Y6360000D03*
D14*
X18100000Y41750000D03*
X19600000Y41750000D03*
X16600000Y41750000D03*
X20200000Y13650000D03*
X20200000Y15150000D03*
X20200000Y12150000D03*
D10*
G36*
X50038000Y27696000D02*
X51562000Y27696000D01*
X51562000Y26172000D01*
X50038000Y26172000D01*
X50038000Y27696000D01*
X50038000Y27696000D01*
G37*
D18*
X50800000Y29474000D03*
X50800000Y32014000D03*
X50800000Y34554000D03*
X50800000Y37094000D03*
X50800000Y39634000D03*
X50800000Y42174000D03*
X50800000Y44714000D03*
X50800000Y47254000D03*
X50800000Y49794000D03*
D10*
G36*
X50038000Y4328000D02*
X50038000Y5852000D01*
X51562000Y5852000D01*
X51562000Y4328000D01*
X50038000Y4328000D01*
X50038000Y4328000D01*
G37*
D18*
X50800000Y7630000D03*
X50800000Y10170000D03*
X50800000Y12710000D03*
X50800000Y15250000D03*
X50800000Y17790000D03*
X50800000Y22870000D03*
X50800000Y20330000D03*
D10*
G36*
X1778000Y22108000D02*
X1778000Y23632000D01*
X3302000Y23632000D01*
X3302000Y22108000D01*
X1778000Y22108000D01*
X1778000Y22108000D01*
G37*
D18*
X2540000Y25410000D03*
X2540000Y27950000D03*
X2540000Y30490000D03*
X2540000Y33030000D03*
X2540000Y35570000D03*
X2540000Y38110000D03*
X2540000Y40650000D03*
D10*
G36*
X3302000Y5852000D02*
X3302000Y4328000D01*
X1778000Y4328000D01*
X1778000Y5852000D01*
X3302000Y5852000D01*
X3302000Y5852000D01*
G37*
D18*
X2540000Y7630000D03*
X2540000Y10170000D03*
X2540000Y12710000D03*
X2540000Y15250000D03*
X2540000Y17790000D03*
D19*
X8890000Y66050000D03*
D20*
X11430000Y66050000D03*
X13970000Y66050000D03*
X16510000Y66050000D03*
X19050000Y66050000D03*
X21590000Y66050000D03*
X24130000Y66050000D03*
X26670000Y66050000D03*
X29210000Y66050000D03*
X31750000Y66050000D03*
X34290000Y66050000D03*
X36830000Y66050000D03*
X39370000Y66050000D03*
X41910000Y66050000D03*
X44450000Y66050000D03*
X8890000Y63510000D03*
X11430000Y63510000D03*
X13970000Y63510000D03*
X16510000Y63510000D03*
X19050000Y63510000D03*
X21590000Y63510000D03*
X24130000Y63510000D03*
X26670000Y63510000D03*
X29210000Y63510000D03*
X31750000Y63510000D03*
X34290000Y63510000D03*
X36830000Y63510000D03*
X39370000Y63510000D03*
X41910000Y63510000D03*
X44450000Y63510000D03*
D14*
X9398000Y52882000D03*
X7898000Y52882000D03*
X10898000Y52882000D03*
D21*
X9906000Y49326000D03*
X11684000Y49326000D03*
X9906000Y47802000D03*
X11684000Y47802000D03*
X9906000Y46024000D03*
X11684000Y46024000D03*
X7112000Y58470000D03*
X7112000Y55930000D03*
X5334000Y58470000D03*
X5334000Y55930000D03*
X5334000Y53644000D03*
X8128000Y57200000D03*
X11310000Y21920000D03*
X15270641Y22330000D03*
X15580000Y34670000D03*
X42960000Y38790000D03*
X40780000Y40080000D03*
X47559420Y57060000D03*
X36992560Y27954440D03*
X41800000Y28740000D03*
X7840000Y37860000D03*
X15850061Y23569998D03*
X15280000Y32260000D03*
X39080000Y30017238D03*
X35900000Y29830000D03*
X40710000Y10710000D03*
X36560501Y28600885D03*
X41730000Y29850000D03*
X9100000Y57370000D03*
X17839711Y10929713D03*
X17211353Y23254769D03*
X9179998Y22020000D03*
X15270657Y25918940D03*
X17524198Y26998639D03*
X42875559Y13194500D03*
X36258500Y26929420D03*
X44944940Y27803624D03*
X25590500Y5003000D03*
X20291699Y26715440D03*
X27432000Y26339000D03*
X18770000Y21870000D03*
X18770288Y16239132D03*
X29742414Y26286883D03*
X45551300Y14561700D03*
X28754693Y28764695D03*
X44752240Y13442757D03*
X30543500Y32371500D03*
X45100000Y12540000D03*
X44407100Y18407400D03*
X22680000Y15310000D03*
X24813972Y29806543D03*
X39439998Y36310000D03*
X33540000Y36580000D03*
X40261616Y36551769D03*
X25026587Y24404751D03*
X26485136Y22970051D03*
X6926753Y7813823D03*
X24563643Y23811619D03*
X23207618Y27775458D03*
X33560000Y19639200D03*
X32700000Y32000000D03*
X37330000Y11870000D03*
X29770580Y18849420D03*
X32069998Y16720000D03*
X31790000Y14970000D03*
X26160000Y17438533D03*
X26999998Y17650000D03*
X42525811Y18122022D03*
X36900250Y29434424D03*
X23174379Y11068552D03*
X40940000Y30030000D03*
X29046927Y26573976D03*
X46520000Y16050000D03*
X25969689Y27115112D03*
X8960000Y40900000D03*
X43770000Y52950543D03*
X43320000Y59850000D03*
X31550000Y4450000D03*
X6839420Y5830580D03*
X17110000Y15380000D03*
X17200000Y19000000D03*
X20770000Y19430000D03*
X30850446Y27487008D03*
X23855226Y34897679D03*
X30960000Y30780000D03*
X26720000Y38650000D03*
X35814000Y31770580D03*
X32360000Y43530000D03*
X26175219Y27838909D03*
X25078599Y29102202D03*
X25590502Y28498000D03*
X22850000Y41890000D03*
X29590002Y38355000D03*
X30175200Y39547000D03*
X23617823Y41719216D03*
X31070597Y32908428D03*
X26360000Y42430000D03*
X22577314Y43470000D03*
X43190178Y11674479D03*
X35939980Y34150000D03*
X45810000Y34410000D03*
X30901235Y26529500D03*
X22614800Y38677300D03*
X29828424Y31092152D03*
X21040000Y39310002D03*
X34880000Y19100000D03*
X36708080Y32013360D03*
X46538650Y32109983D03*
X47409998Y56230000D03*
X30140231Y27238575D03*
X23947520Y34147557D03*
X31390000Y22780000D03*
X31740375Y26649036D03*
X28466285Y43721138D03*
X23990000Y19170000D03*
X17303976Y28453994D03*
X14960000Y28569998D03*
X7450000Y12060000D03*
X17259372Y27702905D03*
X16835888Y26030000D03*
X4870000Y20100000D03*
X21455080Y26021500D03*
X25260000Y19440000D03*
X22987000Y22973500D03*
X50639711Y57690289D03*
X21861442Y30212303D03*
X28470000Y15299420D03*
X25880000Y10220000D03*
X27170000Y11080000D03*
X29314931Y15578547D03*
X19430000Y43390000D03*
X22297893Y41264477D03*
X9230000Y60960000D03*
X8470020Y61930000D03*
X21427118Y41452556D03*
X18710000Y15370000D03*
D22*
X15580000Y34670000D02*
X16600000Y35690000D01*
X16600000Y35690000D02*
X16600000Y41750000D01*
D23*
X7800000Y47750000D02*
X3660000Y47750000D01*
X3660000Y47750000D02*
X870000Y44960000D01*
X870000Y44960000D02*
X870000Y34470000D01*
X870000Y34470000D02*
X1050000Y34290000D01*
X1050000Y34290000D02*
X3290000Y34290000D01*
X3290000Y34290000D02*
X3800000Y33780000D01*
X3800000Y33780000D02*
X3800000Y29210000D01*
X3800000Y29210000D02*
X2540000Y27950000D01*
D22*
X11734264Y21920000D02*
X11310000Y21920000D01*
X14860641Y21920000D02*
X11734264Y21920000D01*
X15270641Y22330000D02*
X14860641Y21920000D01*
D23*
X5080000Y27950000D02*
X7120000Y29990000D01*
X7120000Y29990000D02*
X7120000Y33830000D01*
X7120000Y33830000D02*
X7960000Y34670000D01*
X7960000Y34670000D02*
X15580000Y34670000D01*
D22*
X42660001Y39089999D02*
X42960000Y38790000D01*
X41670000Y40080000D02*
X42660001Y39089999D01*
X40780000Y40080000D02*
X41670000Y40080000D01*
D23*
X2540000Y27950000D02*
X5080000Y27950000D01*
X10800000Y42850000D02*
X10800000Y42590000D01*
X7800000Y47750000D02*
X7800000Y45850000D01*
X7800000Y45850000D02*
X10800000Y42850000D01*
X2540000Y25410000D02*
X5080000Y25410000D01*
D22*
X50005000Y59290000D02*
X47775000Y57060000D01*
X47775000Y57060000D02*
X47559420Y57060000D01*
X7800000Y52784000D02*
X7898000Y52882000D01*
X7800000Y47750000D02*
X7800000Y52784000D01*
X37416824Y27954440D02*
X36992560Y27954440D01*
X41014440Y27954440D02*
X37416824Y27954440D01*
X41800000Y28740000D02*
X41014440Y27954440D01*
D23*
X5080000Y38110000D02*
X7590000Y38110000D01*
X7590000Y38110000D02*
X7840000Y37860000D01*
D22*
X15850061Y23994262D02*
X15850061Y23569998D01*
X15280000Y32260000D02*
X15850061Y31689939D01*
X15850061Y31689939D02*
X15850061Y23994262D01*
D24*
X40710000Y10710000D02*
X40650000Y10650000D01*
X40650000Y10650000D02*
X40650000Y7620000D01*
X40650000Y7620000D02*
X41910000Y6360000D01*
D22*
X22340000Y2650000D02*
X24020000Y970000D01*
X24020000Y970000D02*
X29070000Y970000D01*
X29070000Y970000D02*
X33010000Y4910000D01*
X33010000Y4910000D02*
X33010000Y7148750D01*
X33010000Y7148750D02*
X33431250Y7570000D01*
X33431250Y7570000D02*
X40700000Y7570000D01*
X36324264Y29830000D02*
X36511502Y30017238D01*
X35900000Y29830000D02*
X36324264Y29830000D01*
X36511502Y30017238D02*
X39080000Y30017238D01*
D24*
X5080000Y33030000D02*
X5100000Y33030000D01*
D22*
X44450000Y63510000D02*
X46820000Y63510000D01*
X46820000Y63510000D02*
X47680000Y64370000D01*
X47680000Y64370000D02*
X50005000Y64370000D01*
D23*
X40700000Y62180000D02*
X39370000Y63510000D01*
X43120000Y62180000D02*
X40700000Y62180000D01*
X44450000Y63510000D02*
X43120000Y62180000D01*
D22*
X41730000Y29850000D02*
X40480885Y28600885D01*
X40480885Y28600885D02*
X36886135Y28600885D01*
X36886135Y28600885D02*
X36560501Y28600885D01*
X39370000Y6360000D02*
X38130000Y5120000D01*
X2550000Y3590000D02*
X1660000Y3590000D01*
X1660000Y3590000D02*
X1180000Y4070000D01*
X38130000Y5120000D02*
X33890000Y5120000D01*
X33890000Y5120000D02*
X29230000Y460000D01*
X29230000Y460000D02*
X5680000Y460000D01*
X5680000Y460000D02*
X2550000Y3590000D01*
X1180000Y4070000D02*
X1180000Y6450000D01*
X1180000Y6450000D02*
X590000Y7040000D01*
X1778001Y29728001D02*
X2540000Y30490000D01*
X590000Y7040000D02*
X590000Y28540000D01*
X590000Y28540000D02*
X1778001Y29728001D01*
X10898000Y54122000D02*
X10898000Y52882000D01*
X9100000Y55920000D02*
X10898000Y54122000D01*
X9100000Y57370000D02*
X9100000Y55920000D01*
D23*
X5080000Y22870000D02*
X2540000Y22870000D01*
D22*
X18139710Y11229712D02*
X17839711Y10929713D01*
X20200000Y12150000D02*
X19059998Y12150000D01*
X19059998Y12150000D02*
X18139710Y11229712D01*
X16256462Y24209660D02*
X16256462Y32146583D01*
X18100000Y33990121D02*
X18100000Y40996000D01*
X18100000Y40996000D02*
X18100000Y41750000D01*
X16256462Y32146583D02*
X18100000Y33990121D01*
X17211353Y23254769D02*
X16256462Y24209660D01*
X19600000Y42504000D02*
X19600000Y41750000D01*
X20010000Y42914000D02*
X19600000Y42504000D01*
X20010000Y47524750D02*
X20010000Y42914000D01*
X7077780Y60456970D02*
X20010000Y47524750D01*
X7077780Y67142530D02*
X7077780Y60456970D01*
X7955250Y68020000D02*
X7077780Y67142530D01*
X42480000Y68020000D02*
X7955250Y68020000D01*
X44450000Y66050000D02*
X42480000Y68020000D01*
X20291699Y26715440D02*
X20007139Y27000000D01*
X20007139Y27000000D02*
X17525559Y27000000D01*
X17525559Y27000000D02*
X17524198Y26998639D01*
X9179998Y22020000D02*
X9790000Y22020000D01*
X9790000Y22020000D02*
X10360000Y22590000D01*
X10360000Y22590000D02*
X14210000Y22590000D01*
X14210000Y22590000D02*
X15270657Y23650657D01*
X15270657Y23650657D02*
X15270657Y25918940D01*
X42451295Y13194500D02*
X42875559Y13194500D01*
X27241500Y5003000D02*
X27940000Y5701500D01*
X36474500Y13194500D02*
X42451295Y13194500D01*
X32335500Y7430000D02*
X33020000Y8114500D01*
X27940000Y7070000D02*
X28300000Y7430000D01*
X25590500Y5003000D02*
X27241500Y5003000D01*
X27940000Y5701500D02*
X27940000Y7070000D01*
X28300000Y7430000D02*
X32335500Y7430000D01*
X33020000Y8114500D02*
X33020000Y9740000D01*
X33020000Y9740000D02*
X36474500Y13194500D01*
X29618074Y28525074D02*
X34662846Y28525074D01*
X36682764Y26929420D02*
X36258500Y26929420D01*
X34662846Y28525074D02*
X35958501Y27229419D01*
X44944940Y27803624D02*
X44070736Y26929420D01*
X27432000Y26339000D02*
X29618074Y28525074D01*
X35958501Y27229419D02*
X36258500Y26929420D01*
X44070736Y26929420D02*
X36682764Y26929420D01*
X18770000Y22294264D02*
X18770000Y21870000D01*
X16672221Y27031194D02*
X18770000Y24933415D01*
X21979401Y39610599D02*
X21979401Y37294772D01*
X18770000Y24933415D02*
X18770000Y22294264D01*
X20847717Y47836533D02*
X20847717Y40742283D01*
X20847717Y40742283D02*
X21979401Y39610599D01*
X7890600Y60793650D02*
X20847717Y47836533D01*
X7890600Y62510600D02*
X7890600Y60793650D01*
X8890000Y63510000D02*
X7890600Y62510600D01*
X16672221Y31987592D02*
X16672221Y27031194D01*
X21979401Y37294772D02*
X16672221Y31987592D01*
X44074189Y37324189D02*
X47654000Y40904000D01*
X24066500Y29196500D02*
X24066500Y29979730D01*
X31410959Y37324189D02*
X44074189Y37324189D01*
X26601561Y16325811D02*
X28074978Y17799228D01*
X30905811Y18390061D02*
X30905811Y20107675D01*
X28074978Y17799228D02*
X30314978Y17799228D01*
X30314978Y17799228D02*
X30905811Y18390061D01*
X50038001Y43952001D02*
X50800000Y44714000D01*
X25267065Y27995935D02*
X24066500Y29196500D01*
X20200000Y15929700D02*
X20596111Y16325811D01*
X24066500Y29979730D02*
X31410959Y37324189D01*
X25267065Y25746421D02*
X25267065Y27995935D01*
X20596111Y16325811D02*
X26601561Y16325811D01*
X48954000Y40904000D02*
X49530000Y41480000D01*
X49530000Y41480000D02*
X49530000Y43444000D01*
X49530000Y43444000D02*
X50038001Y43952001D01*
X47654000Y40904000D02*
X48954000Y40904000D01*
X30905811Y20107675D02*
X25267065Y25746421D01*
X20200000Y15150000D02*
X20200000Y15929700D01*
X19070287Y15939133D02*
X18770288Y16239132D01*
X19079720Y15929700D02*
X19070287Y15939133D01*
X20200000Y15929700D02*
X19079720Y15929700D01*
X34896721Y14586721D02*
X29974999Y9664999D01*
X45526279Y14586721D02*
X34896721Y14586721D01*
X45551300Y14561700D02*
X45526279Y14586721D01*
X29974999Y9664999D02*
X29210000Y8900000D01*
X48260000Y26934000D02*
X47411000Y26085000D01*
X47411000Y26085000D02*
X34925000Y26085000D01*
X34925000Y26085000D02*
X32910501Y28099499D01*
X29464000Y27796250D02*
X29464000Y26989561D01*
X32910501Y28099499D02*
X29767249Y28099499D01*
X29767249Y28099499D02*
X29464000Y27796250D01*
X29464000Y26989561D02*
X29742414Y26711147D01*
X29742414Y26711147D02*
X29742414Y26286883D01*
X44421096Y13773901D02*
X44452241Y13742756D01*
X44452241Y13742756D02*
X44752240Y13442757D01*
X31750000Y9981873D02*
X35542028Y13773901D01*
X31750000Y8900000D02*
X31750000Y9981873D01*
X35542028Y13773901D02*
X44421096Y13773901D01*
X29054692Y29064694D02*
X28754693Y28764695D01*
X33224151Y30609401D02*
X32134750Y29520000D01*
X43376000Y29474000D02*
X42240599Y30609401D01*
X48260000Y29474000D02*
X43376000Y29474000D01*
X42240599Y30609401D02*
X33224151Y30609401D01*
X32134750Y29520000D02*
X29509998Y29520000D01*
X29509998Y29520000D02*
X29054692Y29064694D01*
X30794476Y32120524D02*
X30543500Y32371500D01*
X31838038Y32120524D02*
X30794476Y32120524D01*
X32406916Y32689402D02*
X31838038Y32120524D01*
X47584598Y32689402D02*
X32406916Y32689402D01*
X48260000Y32014000D02*
X47584598Y32689402D01*
X34290000Y8900000D02*
X34290000Y9690000D01*
X34290000Y9690000D02*
X37070590Y12470590D01*
X37070590Y12470590D02*
X44606326Y12470590D01*
X44606326Y12470590D02*
X44675736Y12540000D01*
X44675736Y12540000D02*
X45100000Y12540000D01*
X41991033Y18464434D02*
X32129684Y18464434D01*
X44407100Y18407400D02*
X43982836Y18407400D01*
X43688813Y18701423D02*
X42228022Y18701423D01*
X30651660Y16986410D02*
X28411659Y16986409D01*
X42228022Y18701423D02*
X41991033Y18464434D01*
X26735250Y15310000D02*
X23104264Y15310000D01*
X43982836Y18407400D02*
X43688813Y18701423D01*
X28411659Y16986409D02*
X26735250Y15310000D01*
X23104264Y15310000D02*
X22680000Y15310000D01*
X32129684Y18464434D02*
X30651660Y16986410D01*
X31002155Y35994726D02*
X25113971Y30106542D01*
X39124724Y35994726D02*
X31002155Y35994726D01*
X25113971Y30106542D02*
X24813972Y29806543D01*
X39439998Y36310000D02*
X39124724Y35994726D01*
X45150001Y35950001D02*
X39799997Y35950001D01*
X46294000Y37094000D02*
X45150001Y35950001D01*
X48260000Y37094000D02*
X46294000Y37094000D01*
X39739997Y36010001D02*
X39439998Y36310000D01*
X39799997Y35950001D02*
X39739997Y36010001D01*
X33540000Y36580000D02*
X33849402Y36889402D01*
X33849402Y36889402D02*
X39923983Y36889402D01*
X39923983Y36889402D02*
X39961617Y36851768D01*
X39961617Y36851768D02*
X40261616Y36551769D01*
X45177019Y36551769D02*
X40685880Y36551769D01*
X40685880Y36551769D02*
X40261616Y36551769D01*
X48260000Y39634000D02*
X47498001Y38872001D01*
X47497251Y38872001D02*
X45177019Y36551769D01*
X47498001Y38872001D02*
X47497251Y38872001D01*
X25026587Y24829015D02*
X25026587Y24404751D01*
X48260000Y42174000D02*
X43816599Y37730599D01*
X24828548Y27859702D02*
X24828548Y25027054D01*
X24828548Y25027054D02*
X25026587Y24829015D01*
X31242619Y37730599D02*
X23660090Y30148070D01*
X43816599Y37730599D02*
X31242619Y37730599D01*
X23660090Y29028160D02*
X24828548Y27859702D01*
X23660090Y30148070D02*
X23660090Y29028160D01*
X51300000Y51100000D02*
X51990000Y50410000D01*
X28122080Y36334310D02*
X28122080Y39011580D01*
X22440862Y30653090D02*
X28122080Y36334310D01*
X51414000Y45984000D02*
X50223900Y45984000D01*
X34655309Y40735809D02*
X45019500Y51100000D01*
X49715899Y45475999D02*
X49021999Y45475999D01*
X51990000Y46560000D02*
X51414000Y45984000D01*
X51990000Y50410000D02*
X51990000Y46560000D01*
X29846310Y40735809D02*
X34655309Y40735809D01*
X28122080Y39011580D02*
X29846310Y40735809D01*
X23577833Y26547729D02*
X22440862Y27684700D01*
X23577833Y22982403D02*
X23577833Y26547729D01*
X25572290Y22749690D02*
X23810546Y22749690D01*
X25793000Y22970400D02*
X25572290Y22749690D01*
X22440862Y27684700D02*
X22440862Y30653090D01*
X23810546Y22749690D02*
X23577833Y22982403D01*
X49021999Y45475999D02*
X48260000Y44714000D01*
X50223900Y45984000D02*
X49715899Y45475999D01*
X45019500Y51100000D02*
X51300000Y51100000D01*
X25793349Y22970051D02*
X26060872Y22970051D01*
X26060872Y22970051D02*
X26485136Y22970051D01*
X25793000Y22970400D02*
X25793349Y22970051D01*
X6926753Y8238087D02*
X6926753Y7813823D01*
X6926753Y9396753D02*
X6926753Y8238087D01*
X7870000Y10340000D02*
X6926753Y9396753D01*
X9508236Y10340000D02*
X7870000Y10340000D01*
X17612425Y18444189D02*
X9508236Y10340000D01*
X25084689Y18444189D02*
X17612425Y18444189D01*
X25884694Y19244194D02*
X25084689Y18444189D01*
X25884694Y22878706D02*
X25884694Y19244194D01*
X25793000Y22970400D02*
X25884694Y22878706D01*
X24422138Y27691362D02*
X24422138Y23953124D01*
X28934899Y35997629D02*
X23253680Y30316410D01*
X28934900Y38674900D02*
X28934899Y35997629D01*
X29226411Y38966410D02*
X28934900Y38674900D01*
X23253681Y28859819D02*
X24422138Y27691362D01*
X34610160Y38966410D02*
X29226411Y38966410D01*
X42897750Y47254000D02*
X34610160Y38966410D01*
X48260000Y47254000D02*
X42897750Y47254000D01*
X24422138Y23953124D02*
X24563643Y23811619D01*
X23253680Y30316410D02*
X23253681Y28859819D01*
X28528490Y36165970D02*
X22847272Y30484751D01*
X22847272Y30484751D02*
X22847272Y28135804D01*
X30014650Y40329399D02*
X28528490Y38843240D01*
X44288250Y49794000D02*
X34823649Y40329399D01*
X34823649Y40329399D02*
X30014650Y40329399D01*
X22907619Y28075457D02*
X23207618Y27775458D01*
X28528490Y38843240D02*
X28528490Y36165970D01*
X48260000Y49794000D02*
X44288250Y49794000D01*
X22847272Y28135804D02*
X22907619Y28075457D01*
X12856600Y12538864D02*
X17949105Y17631369D01*
X17949105Y17631369D02*
X25441369Y17631369D01*
X12856600Y7473400D02*
X12856600Y12538864D01*
X13970000Y6360000D02*
X12856600Y7473400D01*
X23507617Y27475459D02*
X23207618Y27775458D01*
X23984242Y26998834D02*
X23507617Y27475459D01*
X30100000Y18270000D02*
X30350000Y18520000D01*
X26080000Y18270000D02*
X30100000Y18270000D01*
X30350000Y18520000D02*
X30350000Y19970200D01*
X24789114Y23156100D02*
X24361648Y23156100D01*
X24361648Y23156100D02*
X23984242Y23533506D01*
X23984242Y23533506D02*
X23984242Y26998834D01*
X26766327Y23553873D02*
X25186887Y23553873D01*
X25441369Y17631369D02*
X26080000Y18270000D01*
X30350000Y19970200D02*
X26766327Y23553873D01*
X25186887Y23553873D02*
X24789114Y23156100D01*
X32700000Y32000000D02*
X32380000Y31680000D01*
X26771590Y27110854D02*
X26446189Y26785453D01*
X32380000Y31680000D02*
X29558089Y31680000D01*
X29558089Y31680000D02*
X26771590Y28893501D01*
X32113786Y20049200D02*
X33160000Y20049200D01*
X26771590Y28893501D02*
X26771590Y27110854D01*
X26446189Y26785453D02*
X26446189Y25716797D01*
X26446189Y25716797D02*
X32113786Y20049200D01*
X33160000Y20049200D02*
X33560000Y19649200D01*
X33560000Y19649200D02*
X33560000Y19639200D01*
X37754264Y11870000D02*
X37330000Y11870000D01*
X41520000Y11870000D02*
X37754264Y11870000D01*
X43170000Y10220000D02*
X41520000Y11870000D01*
X43170000Y8130000D02*
X43170000Y10220000D01*
X43670000Y7630000D02*
X43170000Y8130000D01*
X45380000Y7630000D02*
X43670000Y7630000D01*
X47920000Y5090000D02*
X45380000Y7630000D01*
X48260000Y5090000D02*
X47920000Y5090000D01*
X32494262Y16720000D02*
X32069998Y16720000D01*
X46790000Y16720000D02*
X32494262Y16720000D01*
X46970000Y16540000D02*
X46790000Y16720000D01*
X49570000Y15810000D02*
X48840000Y16540000D01*
X49570000Y14010000D02*
X49570000Y15810000D01*
X48840000Y16540000D02*
X46970000Y16540000D01*
X49730000Y13850000D02*
X49570000Y14010000D01*
X49730000Y9100000D02*
X49730000Y13850000D01*
X48260000Y7630000D02*
X49730000Y9100000D01*
X11430000Y8900000D02*
X11430000Y11687014D01*
X11430000Y11687014D02*
X17780765Y18037779D01*
X25253029Y18037779D02*
X26064670Y18849420D01*
X17780765Y18037779D02*
X25253029Y18037779D01*
X26064670Y18849420D02*
X29346316Y18849420D01*
X29346316Y18849420D02*
X29770580Y18849420D01*
X48260000Y10170000D02*
X49323590Y11233590D01*
X47011600Y13970000D02*
X45831601Y15149999D01*
X49323590Y11233590D02*
X49323590Y13636410D01*
X31810000Y14970000D02*
X31790000Y14970000D01*
X49323590Y13636410D02*
X48990000Y13970000D01*
X48990000Y13970000D02*
X47011600Y13970000D01*
X45831601Y15149999D02*
X31989999Y15149999D01*
X31989999Y15149999D02*
X31810000Y14970000D01*
X18117447Y17224961D02*
X25946428Y17224961D01*
X13970000Y8900000D02*
X13970000Y13077514D01*
X13970000Y13077514D02*
X18117447Y17224961D01*
X25946428Y17224961D02*
X26160000Y17438533D01*
X48260000Y12710000D02*
X46490000Y12710000D01*
X46490000Y12710000D02*
X45019689Y14180311D01*
X45019689Y14180311D02*
X35330311Y14180311D01*
X35330311Y14180311D02*
X30480000Y9330000D01*
X28131659Y7836409D02*
X27739150Y7443900D01*
X30480000Y9330000D02*
X30480000Y8130000D01*
X30480000Y8130000D02*
X30186409Y7836409D01*
X17966100Y7443900D02*
X17274999Y8135001D01*
X30186409Y7836409D02*
X28131659Y7836409D01*
X27739150Y7443900D02*
X17966100Y7443900D01*
X17274999Y8135001D02*
X16510000Y8900000D01*
X48260000Y15250000D02*
X46472486Y15250000D01*
X46472486Y15250000D02*
X46132486Y15590000D01*
X46132486Y15590000D02*
X30960000Y15590000D01*
X29802820Y11457520D02*
X27930000Y9584700D01*
X27930000Y9584700D02*
X27930000Y8360000D01*
X19814999Y8135001D02*
X19050000Y8900000D01*
X30960000Y15590000D02*
X29802820Y14432820D01*
X29802820Y14432820D02*
X29802820Y11457520D01*
X27930000Y8360000D02*
X27420700Y7850700D01*
X27420700Y7850700D02*
X20099300Y7850700D01*
X20099300Y7850700D02*
X19814999Y8135001D01*
X26999998Y17298998D02*
X26999998Y17650000D01*
X26519551Y16818551D02*
X26999998Y17298998D01*
X18451613Y16818551D02*
X26519551Y16818551D01*
X18030000Y16396938D02*
X18451613Y16818551D01*
X18030000Y15437514D02*
X18030000Y16396938D01*
X16740000Y14147514D02*
X18030000Y15437514D01*
X16740000Y11210000D02*
X16740000Y14147514D01*
X19050000Y8900000D02*
X16740000Y11210000D01*
X42857833Y17790000D02*
X42825810Y17822023D01*
X23174379Y11068552D02*
X28685827Y16580000D01*
X30820000Y16580000D02*
X31998923Y17758923D01*
X42825810Y17822023D02*
X42525811Y18122022D01*
X28685827Y16580000D02*
X30820000Y16580000D01*
X48260000Y17790000D02*
X42857833Y17790000D01*
X42162712Y17758923D02*
X42225812Y17822023D01*
X31998923Y17758923D02*
X42162712Y17758923D01*
X42225812Y17822023D02*
X42525811Y18122022D01*
X36903644Y29437818D02*
X36900250Y29434424D01*
X40940000Y30030000D02*
X40347818Y29437818D01*
X40347818Y29437818D02*
X36903644Y29437818D01*
X29396410Y11626410D02*
X29396410Y14601160D01*
X29396410Y14601160D02*
X30845250Y16050000D01*
X30845250Y16050000D02*
X46095736Y16050000D01*
X46095736Y16050000D02*
X46520000Y16050000D01*
X26670000Y8900000D02*
X29396410Y11626410D01*
X31204485Y22108001D02*
X29046927Y24265559D01*
X47498001Y22108001D02*
X31204485Y22108001D01*
X48260000Y22870000D02*
X47498001Y22108001D01*
X29046927Y24265559D02*
X29046927Y26149712D01*
X29046927Y26149712D02*
X29046927Y26573976D01*
X48260000Y20330000D02*
X35240800Y20330000D01*
X35240800Y20330000D02*
X33790000Y18879200D01*
X33790000Y18879200D02*
X31969700Y18879200D01*
X31969700Y18879200D02*
X31312400Y18221900D01*
X31312400Y18221900D02*
X31312400Y20275836D01*
X25969689Y26690848D02*
X25969689Y27115112D01*
X31312400Y20275836D02*
X25969689Y25618547D01*
X25969689Y25618547D02*
X25969689Y26690848D01*
X21500000Y15157514D02*
X21500000Y11530000D01*
X23365001Y9664999D02*
X24130000Y8900000D01*
X31312400Y18221900D02*
X30483318Y17392818D01*
X30483318Y17392818D02*
X28243318Y17392818D01*
X28243318Y17392818D02*
X26769901Y15919401D01*
X22261887Y15919401D02*
X21500000Y15157514D01*
X21500000Y11530000D02*
X23365001Y9664999D01*
X26769901Y15919401D02*
X22261887Y15919401D01*
X7610000Y40900000D02*
X8960000Y40900000D01*
X6090000Y39380000D02*
X7610000Y40900000D01*
X4040000Y39380000D02*
X6090000Y39380000D01*
X3840000Y39180000D02*
X4040000Y39380000D01*
X3840000Y36870000D02*
X3840000Y39180000D01*
X2540000Y35570000D02*
X3840000Y36870000D01*
X14720000Y2650000D02*
X14720000Y3180000D01*
X14720000Y3180000D02*
X15940000Y4400000D01*
X15940000Y4400000D02*
X31500000Y4400000D01*
X31500000Y4400000D02*
X31550000Y4450000D01*
X51275000Y59290000D02*
X50000000Y58015000D01*
X50000000Y58015000D02*
X50000000Y57340000D01*
X50000000Y57340000D02*
X48300000Y55640000D01*
X48300000Y55640000D02*
X47100000Y55640000D01*
X47100000Y55640000D02*
X43320000Y59420000D01*
X43320000Y59420000D02*
X43320000Y59850000D01*
X43770000Y52950543D02*
X43770000Y58975736D01*
X43320000Y59425736D02*
X43320000Y59850000D01*
X43770000Y58975736D02*
X43320000Y59425736D01*
X5080000Y35570000D02*
X2540000Y35570000D01*
X44430000Y6340000D02*
X44450000Y6360000D01*
X44420000Y6340000D02*
X44430000Y6340000D01*
X7139419Y5530581D02*
X6839420Y5830580D01*
X7403590Y5266410D02*
X7139419Y5530581D01*
X9738339Y4876411D02*
X9348340Y5266410D01*
X16510000Y6360000D02*
X15026411Y4876411D01*
X9348340Y5266410D02*
X7403590Y5266410D01*
X15026411Y4876411D02*
X9738339Y4876411D01*
X5216410Y5226410D02*
X5080000Y5090000D01*
X15240000Y13510000D02*
X17110000Y15380000D01*
X15240000Y8260000D02*
X15240000Y13510000D01*
X15890000Y7610000D02*
X15240000Y8260000D01*
X7637514Y7570000D02*
X7227514Y7160000D01*
X9570000Y7570000D02*
X7637514Y7570000D01*
X10150000Y6990000D02*
X9570000Y7570000D01*
X10150000Y5610000D02*
X10150000Y6990000D01*
X14858071Y5282821D02*
X10477179Y5282821D01*
X15250000Y5674750D02*
X14858071Y5282821D01*
X15250000Y7030000D02*
X15250000Y5674750D01*
X15830000Y7610000D02*
X15250000Y7030000D01*
X10477179Y5282821D02*
X10150000Y5610000D01*
X16981900Y7610000D02*
X15830000Y7610000D01*
X5550000Y7160000D02*
X5080000Y7630000D01*
X7227514Y7160000D02*
X5550000Y7160000D01*
X18231900Y6360000D02*
X16981900Y7610000D01*
X19050000Y6360000D02*
X18231900Y6360000D01*
X5080000Y15250000D02*
X13450000Y15250000D01*
X13450000Y15250000D02*
X13834000Y15634000D01*
X26670000Y6360000D02*
X25862486Y6360000D01*
X24462486Y4960000D02*
X15750000Y4960000D01*
X25862486Y6360000D02*
X24462486Y4960000D01*
X6260000Y5240000D02*
X6260000Y6320000D01*
X15750000Y4960000D02*
X14920000Y4130000D01*
X14920000Y4130000D02*
X9910000Y4130000D01*
X4030000Y6670000D02*
X4030000Y8550000D01*
X9910000Y4130000D02*
X9180000Y4860000D01*
X4390000Y8910000D02*
X5650000Y8910000D01*
X9180000Y4860000D02*
X6640000Y4860000D01*
X6640000Y4860000D02*
X6260000Y5240000D01*
X6260000Y6320000D02*
X6170000Y6410000D01*
X6170000Y6410000D02*
X4290000Y6410000D01*
X4290000Y6410000D02*
X4030000Y6670000D01*
X4030000Y8550000D02*
X4390000Y8910000D01*
X5650000Y8910000D02*
X7520000Y10780000D01*
X7520000Y10780000D02*
X8980000Y10780000D01*
X8980000Y10780000D02*
X13834000Y15634000D01*
X5464000Y15634000D02*
X5080000Y15250000D01*
X13834000Y15634000D02*
X16900001Y18700001D01*
X16900001Y18700001D02*
X17200000Y19000000D01*
X20620000Y19280000D02*
X20770000Y19430000D01*
X18750000Y19280000D02*
X20620000Y19280000D01*
X17970000Y20060000D02*
X18750000Y19280000D01*
X7350000Y20060000D02*
X17970000Y20060000D01*
X5080000Y17790000D02*
X7350000Y20060000D01*
X34925250Y25510000D02*
X32753955Y27681295D01*
X49376000Y25510000D02*
X34925250Y25510000D01*
X32753955Y27681295D02*
X31044733Y27681295D01*
X50800000Y26934000D02*
X49376000Y25510000D01*
X31044733Y27681295D02*
X30850446Y27487008D01*
X30686700Y64573300D02*
X30686700Y43875197D01*
X25890000Y36932453D02*
X24155225Y35197678D01*
X24155225Y35197678D02*
X23855226Y34897679D01*
X25890000Y39078497D02*
X25890000Y36932453D01*
X30686700Y43875197D02*
X25890000Y39078497D01*
X29210000Y66050000D02*
X30686700Y64573300D01*
X26720000Y39333746D02*
X26720000Y39074264D01*
X32811100Y64988900D02*
X32811100Y45424846D01*
X26720000Y39074264D02*
X26720000Y38650000D01*
X32811100Y45424846D02*
X26720000Y39333746D01*
X31750000Y66050000D02*
X32811100Y64988900D01*
X49730410Y30543590D02*
X42881159Y30543591D01*
X33064604Y31024604D02*
X32820000Y30780000D01*
X31384264Y30780000D02*
X30960000Y30780000D01*
X50800000Y29474000D02*
X49730410Y30543590D01*
X42881159Y30543591D02*
X42400146Y31024604D01*
X42400146Y31024604D02*
X33064604Y31024604D01*
X32820000Y30780000D02*
X31384264Y30780000D01*
X36113999Y31470581D02*
X35814000Y31770580D01*
X42568487Y31431013D02*
X36153567Y31431013D01*
X36153567Y31431013D02*
X36113999Y31470581D01*
X43049500Y30950000D02*
X42568487Y31431013D01*
X49736000Y30950000D02*
X43049500Y30950000D01*
X50800000Y32014000D02*
X49736000Y30950000D01*
X33217900Y44387900D02*
X32659999Y43829999D01*
X33217900Y64977900D02*
X33217900Y44387900D01*
X34290000Y66050000D02*
X33217900Y64977900D01*
X32659999Y43829999D02*
X32360000Y43530000D01*
X26175219Y27838909D02*
X26175219Y28263173D01*
X26175219Y28263173D02*
X26365180Y28453134D01*
X30680790Y33502221D02*
X26365180Y29186611D01*
X26365180Y29186611D02*
X26365180Y28453134D01*
X49748221Y33502221D02*
X30680790Y33502221D01*
X50800000Y34554000D02*
X49748221Y33502221D01*
X37594999Y65285001D02*
X36830000Y66050000D01*
X48070000Y65390000D02*
X47470000Y64790000D01*
X52150000Y65390000D02*
X48070000Y65390000D01*
X38090000Y64790000D02*
X37594999Y65285001D01*
X47470000Y64790000D02*
X38090000Y64790000D01*
X52940000Y64600000D02*
X52150000Y65390000D01*
X52940000Y36694000D02*
X52940000Y64600000D01*
X50800000Y34554000D02*
X52940000Y36694000D01*
X50800000Y37094000D02*
X49742410Y36036410D01*
X49742410Y36036410D02*
X45851659Y36036409D01*
X45851659Y36036409D02*
X44991059Y35175809D01*
X44991059Y35175809D02*
X31152206Y35175809D01*
X25378598Y29402201D02*
X25078599Y29102202D01*
X31152206Y35175809D02*
X25378598Y29402201D01*
X25890501Y28797999D02*
X25590502Y28498000D01*
X52070000Y38364000D02*
X52070000Y36610000D01*
X31373218Y34769399D02*
X25890501Y29286682D01*
X45159399Y34769399D02*
X31373218Y34769399D01*
X51090000Y35630000D02*
X46020000Y35630000D01*
X25890501Y29286682D02*
X25890501Y28797999D01*
X52070000Y36610000D02*
X51090000Y35630000D01*
X50800000Y39634000D02*
X52070000Y38364000D01*
X46020000Y35630000D02*
X45159399Y34769399D01*
X23149999Y42189999D02*
X22850000Y41890000D01*
X23156715Y47826535D02*
X23156715Y42196715D01*
X11430000Y59553250D02*
X23156715Y47826535D01*
X23156715Y42196715D02*
X23149999Y42189999D01*
X11430000Y63510000D02*
X11430000Y59553250D01*
X30014266Y38355000D02*
X29590002Y38355000D01*
X34573500Y38355000D02*
X30014266Y38355000D01*
X50800000Y47254000D02*
X49596000Y46050000D01*
X42268500Y46050000D02*
X34573500Y38355000D01*
X49596000Y46050000D02*
X42268500Y46050000D01*
X30599464Y39547000D02*
X30175200Y39547000D01*
X34616000Y39547000D02*
X30599464Y39547000D01*
X49530000Y48524000D02*
X43593000Y48524000D01*
X50800000Y49794000D02*
X49530000Y48524000D01*
X43593000Y48524000D02*
X34616000Y39547000D01*
X23617823Y42143480D02*
X23617823Y41719216D01*
X23617823Y47940177D02*
X23617823Y42143480D01*
X13970000Y57588000D02*
X23617823Y47940177D01*
X13970000Y63510000D02*
X13970000Y57588000D01*
X8890000Y66050000D02*
X9909000Y66050000D01*
X15240000Y66690000D02*
X15240000Y65490000D01*
X9909000Y66050000D02*
X11066180Y67207180D01*
X14722820Y67207180D02*
X15240000Y66690000D01*
X11066180Y67207180D02*
X14722820Y67207180D01*
X15240000Y65490000D02*
X15960000Y64770000D01*
X15960000Y64770000D02*
X24720000Y64770000D01*
X25450000Y64040000D02*
X25450000Y49040000D01*
X24720000Y64770000D02*
X25450000Y64040000D01*
X25450000Y49040000D02*
X25960000Y48530000D01*
X25960000Y48530000D02*
X25960000Y42830000D01*
X25960000Y42830000D02*
X26360000Y42430000D01*
X50800000Y5090000D02*
X52730000Y7020000D01*
X51674189Y33095811D02*
X31255811Y33095811D01*
X52730000Y7020000D02*
X52730000Y32040000D01*
X52730000Y32040000D02*
X51674189Y33095811D01*
X31255811Y33095811D02*
X31070597Y32910597D01*
X31070597Y32910597D02*
X31070597Y32908428D01*
X10120000Y60288500D02*
X22577314Y47831186D01*
X22577314Y47831186D02*
X22577314Y43894264D01*
X10120000Y64740000D02*
X10120000Y60288500D01*
X22577314Y43894264D02*
X22577314Y43470000D01*
X11430000Y66050000D02*
X10120000Y64740000D01*
X50800000Y7630000D02*
X49550000Y6380000D01*
X49550000Y6380000D02*
X47340000Y6380000D01*
X47340000Y6380000D02*
X45850000Y7870000D01*
X45850000Y7870000D02*
X45850000Y10090000D01*
X45850000Y10090000D02*
X44565520Y11374480D01*
X43490177Y11374480D02*
X43190178Y11674479D01*
X44565520Y11374480D02*
X43490177Y11374480D01*
X36029979Y34060001D02*
X45460001Y34060001D01*
X35939980Y34150000D02*
X36029979Y34060001D01*
X45460001Y34060001D02*
X45510001Y34110001D01*
X45510001Y34110001D02*
X45810000Y34410000D01*
X51041930Y25002820D02*
X34857680Y25002820D01*
X50800000Y10170000D02*
X52323590Y11693590D01*
X30901235Y26648767D02*
X30901235Y26529500D01*
X34857680Y25002820D02*
X32619820Y27240680D01*
X52323590Y23721160D02*
X51041930Y25002820D01*
X52323590Y11693590D02*
X52323590Y23721160D01*
X31493148Y27240680D02*
X30901235Y26648767D01*
X32619820Y27240680D02*
X31493148Y27240680D01*
X22614800Y39101564D02*
X22614800Y38677300D01*
X24332816Y47799934D02*
X24332816Y41544564D01*
X24332816Y41544564D02*
X22614800Y39826548D01*
X13970000Y66050000D02*
X15439000Y64581000D01*
X15439000Y64581000D02*
X15439000Y56693750D01*
X15439000Y56693750D02*
X24332816Y47799934D01*
X22614800Y39826548D02*
X22614800Y39101564D01*
X27178000Y26918401D02*
X27178000Y28441728D01*
X31121326Y21616410D02*
X26852599Y25885137D01*
X26852599Y26593000D02*
X27178000Y26918401D01*
X29528425Y30792153D02*
X29828424Y31092152D01*
X27178000Y28441728D02*
X29528425Y30792153D01*
X48683590Y21616410D02*
X31121326Y21616410D01*
X49758599Y20541401D02*
X48683590Y21616410D01*
X49758599Y17001401D02*
X49758599Y20541401D01*
X50210000Y16550000D02*
X49758599Y17001401D01*
X51917180Y13827180D02*
X51917180Y15872820D01*
X50800000Y12710000D02*
X51917180Y13827180D01*
X51917180Y15872820D02*
X51240000Y16550000D01*
X26852599Y25885137D02*
X26852599Y26593000D01*
X51240000Y16550000D02*
X50210000Y16550000D01*
X8123590Y67613590D02*
X7484190Y66974190D01*
X7484190Y66974190D02*
X7484190Y60625310D01*
X20440000Y47669500D02*
X20440000Y39910002D01*
X16510000Y66050000D02*
X14946410Y67613590D01*
X14946410Y67613590D02*
X8123590Y67613590D01*
X7484190Y60625310D02*
X20440000Y47669500D01*
X20440000Y39910002D02*
X20740001Y39610001D01*
X20740001Y39610001D02*
X21040000Y39310002D01*
X49301401Y18578599D02*
X48772167Y19107833D01*
X49301401Y16748599D02*
X49301401Y18578599D01*
X35304264Y19100000D02*
X34880000Y19100000D01*
X48772167Y19107833D02*
X35312097Y19107833D01*
X50800000Y15250000D02*
X49301401Y16748599D01*
X35312097Y19107833D02*
X35304264Y19100000D01*
X46538650Y32109983D02*
X36804703Y32109983D01*
X36804703Y32109983D02*
X36708080Y32013360D01*
X47409998Y56330002D02*
X47409998Y56230000D01*
X46980000Y56760000D02*
X47409998Y56330002D01*
X46980000Y60920000D02*
X46980000Y56760000D01*
X36420000Y61530000D02*
X46370000Y61530000D01*
X35560000Y62390000D02*
X36420000Y61530000D01*
X46370000Y61530000D02*
X46980000Y60920000D01*
X35560000Y66620000D02*
X35560000Y62390000D01*
X34770000Y67410000D02*
X35560000Y66620000D01*
X22950000Y67410000D02*
X34770000Y67410000D01*
X21590000Y66050000D02*
X22950000Y67410000D01*
X30321815Y26632727D02*
X30140231Y26814311D01*
X31390000Y22780000D02*
X30321815Y23848185D01*
X30140231Y26814311D02*
X30140231Y27238575D01*
X30321815Y23848185D02*
X30321815Y26632727D01*
X26670000Y66050000D02*
X27940000Y64780000D01*
X27940000Y64780000D02*
X29780000Y64780000D01*
X29780000Y64780000D02*
X30280000Y64280000D01*
X25483590Y39246837D02*
X25483590Y37350461D01*
X30280000Y64280000D02*
X30280000Y44043247D01*
X30280000Y44043247D02*
X25483590Y39246837D01*
X25483590Y37350461D02*
X23241000Y35107871D01*
X23241000Y35107871D02*
X23241000Y34657500D01*
X23241000Y34657500D02*
X23750943Y34147557D01*
X23750943Y34147557D02*
X23947520Y34147557D01*
X49570000Y24100000D02*
X32710000Y24100000D01*
X32710000Y24100000D02*
X31689999Y23079999D01*
X50800000Y22870000D02*
X49570000Y24100000D01*
X31689999Y23079999D02*
X31390000Y22780000D01*
X50873590Y24596410D02*
X33793001Y24596410D01*
X33793001Y24596410D02*
X32040374Y26349037D01*
X51917180Y21447180D02*
X51917180Y23552820D01*
X50800000Y20330000D02*
X51917180Y21447180D01*
X51917180Y23552820D02*
X50873590Y24596410D01*
X32040374Y26349037D02*
X31740375Y26649036D01*
X28166286Y44021137D02*
X28466285Y43721138D01*
X25410000Y64770000D02*
X27290000Y64770000D01*
X27930000Y64130000D02*
X27930000Y44257423D01*
X27290000Y64770000D02*
X27930000Y64130000D01*
X24130000Y66050000D02*
X25410000Y64770000D01*
X27930000Y44257423D02*
X28166286Y44021137D01*
X1810000Y13990000D02*
X3730000Y13990000D01*
X2540000Y5090000D02*
X3581401Y6131401D01*
X3581401Y6131401D02*
X3581401Y8588599D01*
X1900000Y8900000D02*
X1402820Y9397180D01*
X23680599Y18850599D02*
X23990000Y19160000D01*
X3581401Y8588599D02*
X3270000Y8900000D01*
X3780000Y15990000D02*
X4290000Y16500000D01*
X3270000Y8900000D02*
X1900000Y8900000D01*
X1402820Y9397180D02*
X1402820Y13582820D01*
X4290000Y16500000D02*
X13260000Y16500000D01*
X3780000Y14040000D02*
X3780000Y15990000D01*
X1402820Y13582820D02*
X1810000Y13990000D01*
X23990000Y19160000D02*
X23990000Y19170000D01*
X3730000Y13990000D02*
X3780000Y14040000D01*
X18529401Y18850599D02*
X23680599Y18850599D01*
X13260000Y16500000D02*
X16390000Y19630000D01*
X16390000Y19630000D02*
X17750000Y19630000D01*
X17750000Y19630000D02*
X18529401Y18850599D01*
X2540000Y7630000D02*
X996410Y9173590D01*
X996410Y9173590D02*
X996410Y18916410D01*
X996410Y18916410D02*
X2940000Y20860000D01*
X2940000Y20860000D02*
X5600000Y20860000D01*
X5600000Y20860000D02*
X13309998Y28569998D01*
X13309998Y28569998D02*
X14535736Y28569998D01*
X14535736Y28569998D02*
X14960000Y28569998D01*
X24739226Y41376224D02*
X23450000Y40086998D01*
X19050000Y53657500D02*
X24739226Y47968274D01*
X23450000Y38190621D02*
X17303976Y32044597D01*
X23450000Y40086998D02*
X23450000Y38190621D01*
X17303976Y32044597D02*
X17303976Y28878258D01*
X19050000Y63510000D02*
X19050000Y53657500D01*
X17303976Y28878258D02*
X17303976Y28453994D01*
X24739226Y47968274D02*
X24739226Y41376224D01*
X21590000Y63510000D02*
X21590000Y51692250D01*
X21590000Y51692250D02*
X25145636Y48136614D01*
X23856410Y39918658D02*
X23856409Y38022280D01*
X23856409Y38022280D02*
X17940000Y32105871D01*
X25145636Y48136614D02*
X25145635Y41207883D01*
X25145635Y41207883D02*
X23856410Y39918658D01*
X17940000Y32105871D02*
X17940000Y27959269D01*
X17683636Y27702905D02*
X17259372Y27702905D01*
X17940000Y27959269D02*
X17683636Y27702905D01*
X7450000Y12060000D02*
X6830000Y11440000D01*
X3810000Y11440000D02*
X2540000Y10170000D01*
X6830000Y11440000D02*
X3810000Y11440000D01*
X17470000Y21940000D02*
X16870599Y21340599D01*
X16870599Y21340599D02*
X6660599Y21340599D01*
X6660599Y21340599D02*
X5420000Y20100000D01*
X5420000Y20100000D02*
X5294264Y20100000D01*
X5294264Y20100000D02*
X4870000Y20100000D01*
X20875679Y26950883D02*
X20875679Y23108165D01*
X20062814Y27763748D02*
X20875679Y26950883D01*
X18491887Y21280599D02*
X17832486Y21940000D01*
X24130000Y49727000D02*
X25552046Y48304954D01*
X19048113Y21280599D02*
X18491887Y21280599D01*
X24262818Y37853939D02*
X20062813Y33653932D01*
X25552046Y48304954D02*
X25552046Y41039544D01*
X17832486Y21940000D02*
X17470000Y21940000D01*
X24262819Y39750317D02*
X24262818Y37853939D01*
X20875679Y23108165D02*
X19048113Y21280599D01*
X25552046Y41039544D02*
X24262819Y39750317D01*
X24130000Y63510000D02*
X24130000Y49727000D01*
X20062813Y33653932D02*
X20062814Y27763748D01*
X17470000Y21940000D02*
X17880000Y22350000D01*
X17880000Y22350000D02*
X17880000Y23580000D01*
X16840000Y26025888D02*
X16835888Y26030000D01*
X17880000Y23580000D02*
X16840000Y24620000D01*
X16840000Y24620000D02*
X16840000Y26025888D01*
X21455080Y25597236D02*
X21455080Y26021500D01*
X2540000Y15250000D02*
X1402820Y16387180D01*
X1402820Y16387180D02*
X1402820Y18658070D01*
X5498113Y19490599D02*
X6881703Y20874189D01*
X1402820Y18658070D02*
X2235349Y19490599D01*
X2235349Y19490599D02*
X5498113Y19490599D01*
X20264189Y20874189D02*
X21455080Y22065080D01*
X6881703Y20874189D02*
X20264189Y20874189D01*
X21455080Y22065080D02*
X21455080Y25597236D01*
X26670000Y63510000D02*
X27434999Y62745001D01*
X27434999Y42347748D02*
X24669228Y39581976D01*
X21455080Y26946232D02*
X21455080Y26445764D01*
X24669227Y37685598D02*
X20469222Y33485593D01*
X24669228Y39581976D02*
X24669227Y37685598D01*
X27434999Y62745001D02*
X27434999Y42347748D01*
X20469222Y33485593D02*
X20469223Y27932089D01*
X21455080Y26445764D02*
X21455080Y26021500D01*
X20469223Y27932089D02*
X21455080Y26946232D01*
X3810000Y19060000D02*
X3301999Y18551999D01*
X5642264Y19060000D02*
X3810000Y19060000D01*
X7050043Y20467779D02*
X5642264Y19060000D01*
X20632900Y20526600D02*
X20574079Y20467779D01*
X3301999Y18551999D02*
X2540000Y17790000D01*
X20574079Y20467779D02*
X7050043Y20467779D01*
X29210000Y63510000D02*
X29210000Y43547998D01*
X22034500Y21928200D02*
X20632900Y20526600D01*
X22034500Y26941562D02*
X22034500Y21928200D01*
X20875632Y33317253D02*
X20875632Y28100430D01*
X25077180Y37518801D02*
X20875632Y33317253D01*
X29210000Y43547998D02*
X25077180Y39415177D01*
X20875632Y28100430D02*
X22034500Y26941562D01*
X25077180Y39415177D02*
X25077180Y37518801D01*
X20632900Y20526600D02*
X24173400Y20526600D01*
X24173400Y20526600D02*
X24960001Y19739999D01*
X24960001Y19739999D02*
X25260000Y19440000D01*
X22987000Y26563812D02*
X22987000Y23397764D01*
X21282041Y30643771D02*
X21282041Y28268771D01*
X27309260Y36670990D02*
X21282041Y30643771D01*
X50639711Y57364461D02*
X45518841Y52243591D01*
X22987000Y23397764D02*
X22987000Y22973500D01*
X27309260Y39348260D02*
X27309260Y36670990D01*
X29509629Y41548628D02*
X27309260Y39348260D01*
X34318629Y41548629D02*
X29509629Y41548628D01*
X45013591Y52243591D02*
X34318629Y41548629D01*
X21282041Y28268771D02*
X22987000Y26563812D01*
X45518841Y52243591D02*
X45013591Y52243591D01*
X50639711Y57690289D02*
X50639711Y57364461D01*
X51275000Y63100000D02*
X52533590Y61841410D01*
X52533590Y61841410D02*
X52533590Y58603590D01*
X21861442Y30648422D02*
X21861442Y30636567D01*
X52533590Y58603590D02*
X45436410Y51506410D01*
X29677970Y41142219D02*
X27715670Y39179920D01*
X27715669Y36502649D02*
X21861442Y30648422D01*
X45436410Y51506410D02*
X44851160Y51506410D01*
X44851160Y51506410D02*
X34486969Y41142219D01*
X34486969Y41142219D02*
X29677970Y41142219D01*
X27715670Y39179920D02*
X27715669Y36502649D01*
X21861442Y30636567D02*
X21861442Y30212303D01*
X25880000Y10220000D02*
X26370000Y10710000D01*
X26370000Y10710000D02*
X26370000Y13199420D01*
X26370000Y13199420D02*
X28170001Y14999421D01*
X28170001Y14999421D02*
X28470000Y15299420D01*
X29314931Y15578547D02*
X29314931Y15094431D01*
X28990000Y14769500D02*
X28990000Y13180000D01*
X29314931Y15094431D02*
X28990000Y14769500D01*
X28990000Y13180000D02*
X27170000Y11360000D01*
X27170000Y11360000D02*
X27170000Y11080000D01*
X19430000Y46950000D02*
X19430000Y43814264D01*
X19430000Y47000000D02*
X19430000Y46950000D01*
X19430000Y43814264D02*
X19430000Y43390000D01*
X9398000Y52242000D02*
X9398000Y52882000D01*
X10060000Y51580000D02*
X9398000Y52242000D01*
X15290000Y51580000D02*
X10060000Y51580000D01*
X19430000Y47440000D02*
X15290000Y51580000D01*
X19430000Y46950000D02*
X19430000Y47440000D01*
X21997894Y41564476D02*
X22297893Y41264477D01*
X9529999Y60660001D02*
X9529999Y60303751D01*
X9230000Y60960000D02*
X9529999Y60660001D01*
X9529999Y60303751D02*
X21997894Y47835856D01*
X21997894Y47835856D02*
X21997894Y41564476D01*
X8470020Y61930000D02*
X8470020Y60788980D01*
X21427118Y41876820D02*
X21427118Y41452556D01*
X21427118Y47831882D02*
X21427118Y41876820D01*
X8470020Y60788980D02*
X21427118Y47831882D01*
X18710000Y14945736D02*
X18710000Y15370000D01*
X20200000Y13650000D02*
X19446000Y13650000D01*
X18710000Y14386000D02*
X18710000Y14945736D01*
X19446000Y13650000D02*
X18710000Y14386000D01*
D25*
G36*
X17537100Y22492034D02*
X17227533Y22182467D01*
X16728565Y21683499D01*
X9855266Y21683499D01*
X9856603Y21683630D01*
X9886966Y21692798D01*
X9917342Y21701622D01*
X9918942Y21702452D01*
X9920669Y21702973D01*
X9948646Y21717849D01*
X9976757Y21732420D01*
X9978165Y21733545D01*
X9979758Y21734391D01*
X10004302Y21754410D01*
X10029058Y21774171D01*
X10031568Y21776647D01*
X10031619Y21776688D01*
X10031658Y21776736D01*
X10032467Y21777533D01*
X10502034Y22247100D01*
X14210000Y22247100D01*
X14241535Y22250192D01*
X14273077Y22252952D01*
X14274803Y22253454D01*
X14276603Y22253630D01*
X14306966Y22262798D01*
X14337342Y22271622D01*
X14338942Y22272452D01*
X14340669Y22272973D01*
X14368646Y22287849D01*
X14396757Y22302420D01*
X14398165Y22303545D01*
X14399758Y22304391D01*
X14424302Y22324410D01*
X14449058Y22344171D01*
X14451568Y22346647D01*
X14451619Y22346688D01*
X14451658Y22346736D01*
X14452467Y22347533D01*
X15408187Y23303254D01*
X15443797Y23247997D01*
X15514078Y23175220D01*
X15597157Y23117479D01*
X15689868Y23076974D01*
X15788681Y23055249D01*
X15889832Y23053130D01*
X15989468Y23070698D01*
X16083794Y23107285D01*
X16169217Y23161496D01*
X16242484Y23231267D01*
X16300804Y23313941D01*
X16341955Y23406367D01*
X16364369Y23505026D01*
X16365908Y23615280D01*
X16695808Y23285380D01*
X16694775Y23211391D01*
X16713039Y23111880D01*
X16750283Y23017811D01*
X16805089Y22932768D01*
X16875370Y22859991D01*
X16958449Y22802250D01*
X17051160Y22761745D01*
X17149973Y22740020D01*
X17251124Y22737901D01*
X17350760Y22755469D01*
X17445086Y22792056D01*
X17530509Y22846267D01*
X17537100Y22852544D01*
X17537100Y22492034D01*
X17537100Y22492034D01*
G37*
X17537100Y22492034D02*
X17227533Y22182467D01*
X16728565Y21683499D01*
X9855266Y21683499D01*
X9856603Y21683630D01*
X9886966Y21692798D01*
X9917342Y21701622D01*
X9918942Y21702452D01*
X9920669Y21702973D01*
X9948646Y21717849D01*
X9976757Y21732420D01*
X9978165Y21733545D01*
X9979758Y21734391D01*
X10004302Y21754410D01*
X10029058Y21774171D01*
X10031568Y21776647D01*
X10031619Y21776688D01*
X10031658Y21776736D01*
X10032467Y21777533D01*
X10502034Y22247100D01*
X14210000Y22247100D01*
X14241535Y22250192D01*
X14273077Y22252952D01*
X14274803Y22253454D01*
X14276603Y22253630D01*
X14306966Y22262798D01*
X14337342Y22271622D01*
X14338942Y22272452D01*
X14340669Y22272973D01*
X14368646Y22287849D01*
X14396757Y22302420D01*
X14398165Y22303545D01*
X14399758Y22304391D01*
X14424302Y22324410D01*
X14449058Y22344171D01*
X14451568Y22346647D01*
X14451619Y22346688D01*
X14451658Y22346736D01*
X14452467Y22347533D01*
X15408187Y23303254D01*
X15443797Y23247997D01*
X15514078Y23175220D01*
X15597157Y23117479D01*
X15689868Y23076974D01*
X15788681Y23055249D01*
X15889832Y23053130D01*
X15989468Y23070698D01*
X16083794Y23107285D01*
X16169217Y23161496D01*
X16242484Y23231267D01*
X16300804Y23313941D01*
X16341955Y23406367D01*
X16364369Y23505026D01*
X16365908Y23615280D01*
X16695808Y23285380D01*
X16694775Y23211391D01*
X16713039Y23111880D01*
X16750283Y23017811D01*
X16805089Y22932768D01*
X16875370Y22859991D01*
X16958449Y22802250D01*
X17051160Y22761745D01*
X17149973Y22740020D01*
X17251124Y22737901D01*
X17350760Y22755469D01*
X17445086Y22792056D01*
X17530509Y22846267D01*
X17537100Y22852544D01*
X17537100Y22492034D01*
G36*
X21636501Y37436806D02*
X18442900Y34243205D01*
X18442900Y40996000D01*
X18442900Y41033055D01*
X18600000Y41033055D01*
X18635035Y41035903D01*
X18693174Y41054083D01*
X18743967Y41087709D01*
X18783410Y41134131D01*
X18808392Y41189688D01*
X18816945Y41250000D01*
X18816945Y42250000D01*
X18814097Y42285035D01*
X18795917Y42343174D01*
X18762291Y42393967D01*
X18715869Y42433410D01*
X18660312Y42458392D01*
X18600000Y42466945D01*
X17600000Y42466945D01*
X17564965Y42464097D01*
X17506826Y42445917D01*
X17456033Y42412291D01*
X17416590Y42365869D01*
X17391608Y42310312D01*
X17383055Y42250000D01*
X17383055Y41250000D01*
X17385903Y41214965D01*
X17404083Y41156826D01*
X17437709Y41106033D01*
X17484131Y41066590D01*
X17539688Y41041608D01*
X17600000Y41033055D01*
X17757100Y41033055D01*
X17757100Y40996000D01*
X17757100Y34132155D01*
X17363500Y33738555D01*
X17363500Y41224047D01*
X17363500Y41275952D01*
X17363500Y41497625D01*
X17363500Y42002375D01*
X17363500Y42224048D01*
X17363500Y42275953D01*
X17353374Y42326861D01*
X17333510Y42374814D01*
X17304673Y42417972D01*
X17267971Y42454674D01*
X17224814Y42483511D01*
X17176860Y42503374D01*
X17125952Y42513500D01*
X16852375Y42513500D01*
X16786500Y42447625D01*
X16786500Y41936500D01*
X17297625Y41936500D01*
X17363500Y42002375D01*
X17363500Y41497625D01*
X17297625Y41563500D01*
X16786500Y41563500D01*
X16786500Y41052375D01*
X16852375Y40986500D01*
X17125952Y40986500D01*
X17176860Y40996626D01*
X17224814Y41016489D01*
X17267971Y41045326D01*
X17304673Y41082028D01*
X17333510Y41125186D01*
X17353374Y41173139D01*
X17363500Y41224047D01*
X17363500Y33738555D01*
X16413500Y32788555D01*
X16413500Y41052375D01*
X16413500Y41563500D01*
X16413500Y41936500D01*
X16413500Y42447625D01*
X16347625Y42513500D01*
X16074048Y42513500D01*
X16023140Y42503374D01*
X15975186Y42483511D01*
X15932029Y42454674D01*
X15895327Y42417972D01*
X15866490Y42374814D01*
X15846626Y42326861D01*
X15836500Y42275953D01*
X15836500Y42224048D01*
X15836500Y42002375D01*
X15902375Y41936500D01*
X16413500Y41936500D01*
X16413500Y41563500D01*
X15902375Y41563500D01*
X15836500Y41497625D01*
X15836500Y41275952D01*
X15836500Y41224047D01*
X15846626Y41173139D01*
X15866490Y41125186D01*
X15895327Y41082028D01*
X15932029Y41045326D01*
X15975186Y41016489D01*
X16023140Y40996626D01*
X16074048Y40986500D01*
X16347625Y40986500D01*
X16413500Y41052375D01*
X16413500Y32788555D01*
X16013995Y32389050D01*
X15993874Y32364555D01*
X15973531Y32340310D01*
X15972664Y32338735D01*
X15971517Y32337337D01*
X15956536Y32309399D01*
X15941290Y32281666D01*
X15940744Y32279946D01*
X15939893Y32278358D01*
X15930637Y32248086D01*
X15921055Y32217876D01*
X15920853Y32216084D01*
X15920327Y32214360D01*
X15917128Y32182874D01*
X15913595Y32151371D01*
X15913570Y32147847D01*
X15913564Y32147780D01*
X15913569Y32147719D01*
X15913562Y32146583D01*
X15913562Y32111372D01*
X15794798Y32230136D01*
X15795922Y32310587D01*
X15776271Y32409833D01*
X15737717Y32503372D01*
X15681728Y32587641D01*
X15610438Y32659431D01*
X15526562Y32716006D01*
X15433294Y32755212D01*
X15334187Y32775556D01*
X15233016Y32776262D01*
X15133635Y32757305D01*
X15039829Y32719404D01*
X15016945Y32704430D01*
X15016945Y45500000D01*
X15016945Y50000000D01*
X15014097Y50035035D01*
X14995917Y50093174D01*
X14962291Y50143967D01*
X14915869Y50183410D01*
X14860312Y50208392D01*
X14800000Y50216945D01*
X12800000Y50216945D01*
X12764965Y50214097D01*
X12706826Y50195917D01*
X12656033Y50162291D01*
X12616590Y50115869D01*
X12591608Y50060312D01*
X12583055Y50000000D01*
X12583055Y45500000D01*
X12585903Y45464965D01*
X12604083Y45406826D01*
X12637709Y45356033D01*
X12684131Y45316590D01*
X12739688Y45291608D01*
X12800000Y45283055D01*
X14800000Y45283055D01*
X14835035Y45285903D01*
X14893174Y45304083D01*
X14943967Y45337709D01*
X14983410Y45384131D01*
X15008392Y45439688D01*
X15016945Y45500000D01*
X15016945Y32704430D01*
X14955171Y32664006D01*
X14882886Y32593219D01*
X14825726Y32509739D01*
X14785870Y32416747D01*
X14764835Y32317785D01*
X14763422Y32216622D01*
X14781686Y32117111D01*
X14818930Y32023042D01*
X14873736Y31937999D01*
X14944017Y31865222D01*
X15027096Y31807481D01*
X15119807Y31766976D01*
X15218620Y31745251D01*
X15311766Y31743300D01*
X15507161Y31547905D01*
X15507161Y26379174D01*
X15423951Y26414152D01*
X15324844Y26434496D01*
X15223673Y26435202D01*
X15124292Y26416245D01*
X15030486Y26378344D01*
X14945828Y26322946D01*
X14873543Y26252159D01*
X14816383Y26168679D01*
X14776527Y26075687D01*
X14755492Y25976725D01*
X14754079Y25875562D01*
X14772343Y25776051D01*
X14809587Y25681982D01*
X14864393Y25596939D01*
X14927757Y25531325D01*
X14927757Y23792691D01*
X14067965Y22932900D01*
X10360000Y22932900D01*
X10328464Y22929809D01*
X10296923Y22927048D01*
X10295196Y22926547D01*
X10293397Y22926370D01*
X10263079Y22917217D01*
X10232658Y22908379D01*
X10231052Y22907547D01*
X10229331Y22907027D01*
X10201428Y22892192D01*
X10173243Y22877581D01*
X10171831Y22876455D01*
X10170242Y22875609D01*
X10145724Y22855614D01*
X10120942Y22835829D01*
X10118431Y22833354D01*
X10118381Y22833312D01*
X10118341Y22833265D01*
X10117533Y22832467D01*
X9647966Y22362900D01*
X9566573Y22362900D01*
X9510436Y22419431D01*
X9426560Y22476006D01*
X9333292Y22515212D01*
X9234185Y22535556D01*
X9133014Y22536262D01*
X9033633Y22517305D01*
X8939827Y22479404D01*
X8855169Y22424006D01*
X8782884Y22353219D01*
X8725724Y22269739D01*
X8685868Y22176747D01*
X8664833Y22077785D01*
X8663420Y21976622D01*
X8681684Y21877111D01*
X8718928Y21783042D01*
X8773734Y21697999D01*
X8787736Y21683499D01*
X6908433Y21683499D01*
X13452032Y28227098D01*
X14535736Y28227098D01*
X14573918Y28227098D01*
X14624017Y28175220D01*
X14707096Y28117479D01*
X14799807Y28076974D01*
X14898620Y28055249D01*
X14999771Y28053130D01*
X15099407Y28070698D01*
X15193733Y28107285D01*
X15279156Y28161496D01*
X15352423Y28231267D01*
X15410743Y28313941D01*
X15451894Y28406367D01*
X15474308Y28505026D01*
X15475922Y28620585D01*
X15456271Y28719831D01*
X15417717Y28813370D01*
X15361728Y28897639D01*
X15290438Y28969429D01*
X15206562Y29026004D01*
X15113294Y29065210D01*
X15014187Y29085554D01*
X14913016Y29086260D01*
X14813635Y29067303D01*
X14719829Y29029402D01*
X14635171Y28974004D01*
X14572771Y28912898D01*
X14535736Y28912898D01*
X13309998Y28912898D01*
X13278462Y28909807D01*
X13246921Y28907046D01*
X13245194Y28906545D01*
X13243395Y28906368D01*
X13213077Y28897215D01*
X13182656Y28888377D01*
X13181050Y28887545D01*
X13179329Y28887025D01*
X13151426Y28872190D01*
X13123241Y28857579D01*
X13121829Y28856453D01*
X13120240Y28855607D01*
X13095722Y28835612D01*
X13070940Y28815827D01*
X13068429Y28813352D01*
X13068379Y28813310D01*
X13068339Y28813263D01*
X13067531Y28812465D01*
X13063500Y28808434D01*
X13063500Y41824048D01*
X13063500Y42597625D01*
X13063500Y43102375D01*
X13063500Y43875952D01*
X13053374Y43926860D01*
X13033511Y43974814D01*
X13004674Y44017971D01*
X12967972Y44054673D01*
X12924814Y44083510D01*
X12876861Y44103374D01*
X12825953Y44113500D01*
X12774048Y44113500D01*
X12199922Y44113500D01*
X12199922Y46074587D01*
X12199922Y47852587D01*
X12199922Y49376587D01*
X12180271Y49475833D01*
X12141717Y49569372D01*
X12085728Y49653641D01*
X12014438Y49725431D01*
X11930562Y49782006D01*
X11837294Y49821212D01*
X11738187Y49841556D01*
X11637016Y49842262D01*
X11537635Y49823305D01*
X11443829Y49785404D01*
X11359171Y49730006D01*
X11286886Y49659219D01*
X11229726Y49575739D01*
X11189870Y49482747D01*
X11168835Y49383785D01*
X11167422Y49282622D01*
X11185686Y49183111D01*
X11222930Y49089042D01*
X11277736Y49003999D01*
X11348017Y48931222D01*
X11431096Y48873481D01*
X11523807Y48832976D01*
X11622620Y48811251D01*
X11723771Y48809132D01*
X11823407Y48826700D01*
X11917733Y48863287D01*
X12003156Y48917498D01*
X12076423Y48987269D01*
X12134743Y49069943D01*
X12175894Y49162369D01*
X12198308Y49261028D01*
X12199922Y49376587D01*
X12199922Y47852587D01*
X12180271Y47951833D01*
X12141717Y48045372D01*
X12085728Y48129641D01*
X12014438Y48201431D01*
X11930562Y48258006D01*
X11837294Y48297212D01*
X11738187Y48317556D01*
X11637016Y48318262D01*
X11537635Y48299305D01*
X11443829Y48261404D01*
X11359171Y48206006D01*
X11286886Y48135219D01*
X11229726Y48051739D01*
X11189870Y47958747D01*
X11168835Y47859785D01*
X11167422Y47758622D01*
X11185686Y47659111D01*
X11222930Y47565042D01*
X11277736Y47479999D01*
X11348017Y47407222D01*
X11431096Y47349481D01*
X11523807Y47308976D01*
X11622620Y47287251D01*
X11723771Y47285132D01*
X11823407Y47302700D01*
X11917733Y47339287D01*
X12003156Y47393498D01*
X12076423Y47463269D01*
X12134743Y47545943D01*
X12175894Y47638369D01*
X12198308Y47737028D01*
X12199922Y47852587D01*
X12199922Y46074587D01*
X12180271Y46173833D01*
X12141717Y46267372D01*
X12085728Y46351641D01*
X12014438Y46423431D01*
X11930562Y46480006D01*
X11837294Y46519212D01*
X11738187Y46539556D01*
X11637016Y46540262D01*
X11537635Y46521305D01*
X11443829Y46483404D01*
X11359171Y46428006D01*
X11286886Y46357219D01*
X11229726Y46273739D01*
X11189870Y46180747D01*
X11168835Y46081785D01*
X11167422Y45980622D01*
X11185686Y45881111D01*
X11222930Y45787042D01*
X11277736Y45701999D01*
X11348017Y45629222D01*
X11431096Y45571481D01*
X11523807Y45530976D01*
X11622620Y45509251D01*
X11723771Y45507132D01*
X11823407Y45524700D01*
X11917733Y45561287D01*
X12003156Y45615498D01*
X12076423Y45685269D01*
X12134743Y45767943D01*
X12175894Y45860369D01*
X12198308Y45959028D01*
X12199922Y46074587D01*
X12199922Y44113500D01*
X11052375Y44113500D01*
X10986500Y44047625D01*
X10986500Y43036500D01*
X12997625Y43036500D01*
X13063500Y43102375D01*
X13063500Y42597625D01*
X12997625Y42663500D01*
X10986500Y42663500D01*
X10986500Y41652375D01*
X11052375Y41586500D01*
X12774048Y41586500D01*
X12825953Y41586500D01*
X12876861Y41596626D01*
X12924814Y41616490D01*
X12967972Y41645327D01*
X13004674Y41682029D01*
X13033511Y41725186D01*
X13053374Y41773140D01*
X13063500Y41824048D01*
X13063500Y28808434D01*
X10613500Y26358434D01*
X10613500Y41652375D01*
X10613500Y42663500D01*
X10613500Y43036500D01*
X10613500Y44047625D01*
X10547625Y44113500D01*
X10421922Y44113500D01*
X10421922Y46074587D01*
X10421922Y47852587D01*
X10421922Y49376587D01*
X10402271Y49475833D01*
X10363717Y49569372D01*
X10307728Y49653641D01*
X10236438Y49725431D01*
X10152562Y49782006D01*
X10059294Y49821212D01*
X9960187Y49841556D01*
X9859016Y49842262D01*
X9759635Y49823305D01*
X9665829Y49785404D01*
X9581171Y49730006D01*
X9508886Y49659219D01*
X9451726Y49575739D01*
X9411870Y49482747D01*
X9390835Y49383785D01*
X9389422Y49282622D01*
X9407686Y49183111D01*
X9444930Y49089042D01*
X9499736Y49003999D01*
X9570017Y48931222D01*
X9653096Y48873481D01*
X9745807Y48832976D01*
X9844620Y48811251D01*
X9945771Y48809132D01*
X10045407Y48826700D01*
X10139733Y48863287D01*
X10225156Y48917498D01*
X10298423Y48987269D01*
X10356743Y49069943D01*
X10397894Y49162369D01*
X10420308Y49261028D01*
X10421922Y49376587D01*
X10421922Y47852587D01*
X10402271Y47951833D01*
X10363717Y48045372D01*
X10307728Y48129641D01*
X10236438Y48201431D01*
X10152562Y48258006D01*
X10059294Y48297212D01*
X9960187Y48317556D01*
X9859016Y48318262D01*
X9759635Y48299305D01*
X9665829Y48261404D01*
X9581171Y48206006D01*
X9508886Y48135219D01*
X9451726Y48051739D01*
X9411870Y47958747D01*
X9390835Y47859785D01*
X9389422Y47758622D01*
X9407686Y47659111D01*
X9444930Y47565042D01*
X9499736Y47479999D01*
X9570017Y47407222D01*
X9653096Y47349481D01*
X9745807Y47308976D01*
X9844620Y47287251D01*
X9945771Y47285132D01*
X10045407Y47302700D01*
X10139733Y47339287D01*
X10225156Y47393498D01*
X10298423Y47463269D01*
X10356743Y47545943D01*
X10397894Y47638369D01*
X10420308Y47737028D01*
X10421922Y47852587D01*
X10421922Y46074587D01*
X10402271Y46173833D01*
X10363717Y46267372D01*
X10307728Y46351641D01*
X10236438Y46423431D01*
X10152562Y46480006D01*
X10059294Y46519212D01*
X9960187Y46539556D01*
X9859016Y46540262D01*
X9759635Y46521305D01*
X9665829Y46483404D01*
X9581171Y46428006D01*
X9508886Y46357219D01*
X9451726Y46273739D01*
X9411870Y46180747D01*
X9390835Y46081785D01*
X9389422Y45980622D01*
X9407686Y45881111D01*
X9444930Y45787042D01*
X9499736Y45701999D01*
X9570017Y45629222D01*
X9653096Y45571481D01*
X9745807Y45530976D01*
X9844620Y45509251D01*
X9945771Y45507132D01*
X10045407Y45524700D01*
X10139733Y45561287D01*
X10225156Y45615498D01*
X10298423Y45685269D01*
X10356743Y45767943D01*
X10397894Y45860369D01*
X10420308Y45959028D01*
X10421922Y46074587D01*
X10421922Y44113500D01*
X9063500Y44113500D01*
X9063500Y45724047D01*
X9063500Y45775952D01*
X9063500Y47497625D01*
X9063500Y48002375D01*
X9063500Y49724048D01*
X9063500Y49775953D01*
X9053374Y49826861D01*
X9033510Y49874814D01*
X9004673Y49917972D01*
X8967971Y49954674D01*
X8924814Y49983511D01*
X8876860Y50003374D01*
X8825952Y50013500D01*
X8661500Y50013500D01*
X8661500Y52356047D01*
X8661500Y52407952D01*
X8661500Y52629625D01*
X8661500Y53134375D01*
X8661500Y53356048D01*
X8661500Y53407953D01*
X8651374Y53458861D01*
X8631510Y53506814D01*
X8602673Y53549972D01*
X8565971Y53586674D01*
X8522814Y53615511D01*
X8474860Y53635374D01*
X8423952Y53645500D01*
X8150375Y53645500D01*
X8084500Y53579625D01*
X8084500Y53068500D01*
X8595625Y53068500D01*
X8661500Y53134375D01*
X8661500Y52629625D01*
X8595625Y52695500D01*
X8084500Y52695500D01*
X8084500Y52184375D01*
X8150375Y52118500D01*
X8423952Y52118500D01*
X8474860Y52128626D01*
X8522814Y52148489D01*
X8565971Y52177326D01*
X8602673Y52214028D01*
X8631510Y52257186D01*
X8651374Y52305139D01*
X8661500Y52356047D01*
X8661500Y50013500D01*
X8052375Y50013500D01*
X7986500Y49947625D01*
X7986500Y47936500D01*
X8997625Y47936500D01*
X9063500Y48002375D01*
X9063500Y47497625D01*
X8997625Y47563500D01*
X7986500Y47563500D01*
X7986500Y45552375D01*
X8052375Y45486500D01*
X8825952Y45486500D01*
X8876860Y45496626D01*
X8924814Y45516489D01*
X8967971Y45545326D01*
X9004673Y45582028D01*
X9033510Y45625186D01*
X9053374Y45673139D01*
X9063500Y45724047D01*
X9063500Y44113500D01*
X8825952Y44113500D01*
X8774047Y44113500D01*
X8723139Y44103374D01*
X8675186Y44083510D01*
X8632028Y44054673D01*
X8595326Y44017971D01*
X8566489Y43974814D01*
X8546626Y43926860D01*
X8536500Y43875952D01*
X8536500Y43102375D01*
X8602375Y43036500D01*
X10613500Y43036500D01*
X10613500Y42663500D01*
X8602375Y42663500D01*
X8536500Y42597625D01*
X8536500Y41824048D01*
X8546626Y41773140D01*
X8566489Y41725186D01*
X8595326Y41682029D01*
X8632028Y41645327D01*
X8675186Y41616490D01*
X8723139Y41596626D01*
X8774047Y41586500D01*
X8825952Y41586500D01*
X10547625Y41586500D01*
X10613500Y41652375D01*
X10613500Y26358434D01*
X9475922Y25220856D01*
X9475922Y40950587D01*
X9456271Y41049833D01*
X9417717Y41143372D01*
X9361728Y41227641D01*
X9290438Y41299431D01*
X9206562Y41356006D01*
X9113294Y41395212D01*
X9014187Y41415556D01*
X8913016Y41416262D01*
X8813635Y41397305D01*
X8719829Y41359404D01*
X8635171Y41304006D01*
X8572771Y41242900D01*
X7711500Y41242900D01*
X7711500Y52184375D01*
X7711500Y52695500D01*
X7711500Y53068500D01*
X7711500Y53579625D01*
X7645625Y53645500D01*
X7627922Y53645500D01*
X7627922Y55980587D01*
X7608271Y56079833D01*
X7569717Y56173372D01*
X7513728Y56257641D01*
X7442438Y56329431D01*
X7358562Y56386006D01*
X7265294Y56425212D01*
X7166187Y56445556D01*
X7065016Y56446262D01*
X6965635Y56427305D01*
X6871829Y56389404D01*
X6787171Y56334006D01*
X6714886Y56263219D01*
X6657726Y56179739D01*
X6617870Y56086747D01*
X6596835Y55987785D01*
X6595422Y55886622D01*
X6613686Y55787111D01*
X6650930Y55693042D01*
X6705736Y55607999D01*
X6776017Y55535222D01*
X6859096Y55477481D01*
X6951807Y55436976D01*
X7050620Y55415251D01*
X7151771Y55413132D01*
X7251407Y55430700D01*
X7345733Y55467287D01*
X7431156Y55521498D01*
X7504423Y55591269D01*
X7562743Y55673943D01*
X7603894Y55766369D01*
X7626308Y55865028D01*
X7627922Y55980587D01*
X7627922Y53645500D01*
X7372048Y53645500D01*
X7321140Y53635374D01*
X7273186Y53615511D01*
X7230029Y53586674D01*
X7193327Y53549972D01*
X7164490Y53506814D01*
X7144626Y53458861D01*
X7134500Y53407953D01*
X7134500Y53356048D01*
X7134500Y53134375D01*
X7200375Y53068500D01*
X7711500Y53068500D01*
X7711500Y52695500D01*
X7200375Y52695500D01*
X7134500Y52629625D01*
X7134500Y52407952D01*
X7134500Y52356047D01*
X7144626Y52305139D01*
X7164490Y52257186D01*
X7193327Y52214028D01*
X7230029Y52177326D01*
X7273186Y52148489D01*
X7321140Y52128626D01*
X7372048Y52118500D01*
X7645625Y52118500D01*
X7711500Y52184375D01*
X7711500Y41242900D01*
X7613500Y41242900D01*
X7613500Y45552375D01*
X7613500Y47563500D01*
X7613500Y47936500D01*
X7613500Y49947625D01*
X7547625Y50013500D01*
X6774048Y50013500D01*
X6723140Y50003374D01*
X6675186Y49983511D01*
X6632029Y49954674D01*
X6595327Y49917972D01*
X6566490Y49874814D01*
X6546626Y49826861D01*
X6536500Y49775953D01*
X6536500Y49724048D01*
X6536500Y48002375D01*
X6602375Y47936500D01*
X7613500Y47936500D01*
X7613500Y47563500D01*
X6602375Y47563500D01*
X6536500Y47497625D01*
X6536500Y45775952D01*
X6536500Y45724047D01*
X6546626Y45673139D01*
X6566490Y45625186D01*
X6595327Y45582028D01*
X6632029Y45545326D01*
X6675186Y45516489D01*
X6723140Y45496626D01*
X6774048Y45486500D01*
X7547625Y45486500D01*
X7613500Y45552375D01*
X7613500Y41242900D01*
X7610000Y41242900D01*
X7578459Y41239808D01*
X7546924Y41237048D01*
X7545197Y41236547D01*
X7543397Y41236370D01*
X7513067Y41227213D01*
X7482658Y41218379D01*
X7481052Y41217547D01*
X7479331Y41217027D01*
X7451428Y41202192D01*
X7423243Y41187581D01*
X7421831Y41186455D01*
X7420242Y41185609D01*
X7395724Y41165614D01*
X7370942Y41145829D01*
X7368431Y41143354D01*
X7368381Y41143312D01*
X7368341Y41143265D01*
X7367533Y41142467D01*
X5947966Y39722900D01*
X5394095Y39722900D01*
X5523047Y39772917D01*
X5684969Y39875675D01*
X5823848Y40007928D01*
X5934394Y40164637D01*
X6012396Y40339833D01*
X6054884Y40526844D01*
X6057942Y40745888D01*
X6020693Y40934012D01*
X5947613Y41111318D01*
X5849922Y41258354D01*
X5849922Y53694587D01*
X5849922Y55980587D01*
X5849922Y58520587D01*
X5830271Y58619833D01*
X5791717Y58713372D01*
X5735728Y58797641D01*
X5664438Y58869431D01*
X5580562Y58926006D01*
X5487294Y58965212D01*
X5388187Y58985556D01*
X5287016Y58986262D01*
X5187635Y58967305D01*
X5093829Y58929404D01*
X5009171Y58874006D01*
X4936886Y58803219D01*
X4879726Y58719739D01*
X4839870Y58626747D01*
X4818835Y58527785D01*
X4817422Y58426622D01*
X4835686Y58327111D01*
X4872930Y58233042D01*
X4927736Y58147999D01*
X4998017Y58075222D01*
X5081096Y58017481D01*
X5173807Y57976976D01*
X5272620Y57955251D01*
X5373771Y57953132D01*
X5473407Y57970700D01*
X5567733Y58007287D01*
X5653156Y58061498D01*
X5726423Y58131269D01*
X5784743Y58213943D01*
X5825894Y58306369D01*
X5848308Y58405028D01*
X5849922Y58520587D01*
X5849922Y55980587D01*
X5830271Y56079833D01*
X5791717Y56173372D01*
X5735728Y56257641D01*
X5664438Y56329431D01*
X5580562Y56386006D01*
X5487294Y56425212D01*
X5388187Y56445556D01*
X5287016Y56446262D01*
X5187635Y56427305D01*
X5093829Y56389404D01*
X5009171Y56334006D01*
X4936886Y56263219D01*
X4879726Y56179739D01*
X4839870Y56086747D01*
X4818835Y55987785D01*
X4817422Y55886622D01*
X4835686Y55787111D01*
X4872930Y55693042D01*
X4927736Y55607999D01*
X4998017Y55535222D01*
X5081096Y55477481D01*
X5173807Y55436976D01*
X5272620Y55415251D01*
X5373771Y55413132D01*
X5473407Y55430700D01*
X5567733Y55467287D01*
X5653156Y55521498D01*
X5726423Y55591269D01*
X5784743Y55673943D01*
X5825894Y55766369D01*
X5848308Y55865028D01*
X5849922Y55980587D01*
X5849922Y53694587D01*
X5830271Y53793833D01*
X5791717Y53887372D01*
X5735728Y53971641D01*
X5664438Y54043431D01*
X5580562Y54100006D01*
X5487294Y54139212D01*
X5388187Y54159556D01*
X5287016Y54160262D01*
X5187635Y54141305D01*
X5093829Y54103404D01*
X5009171Y54048006D01*
X4936886Y53977219D01*
X4879726Y53893739D01*
X4839870Y53800747D01*
X4818835Y53701785D01*
X4817422Y53600622D01*
X4835686Y53501111D01*
X4872930Y53407042D01*
X4927736Y53321999D01*
X4998017Y53249222D01*
X5081096Y53191481D01*
X5173807Y53150976D01*
X5272620Y53129251D01*
X5373771Y53127132D01*
X5473407Y53144700D01*
X5567733Y53181287D01*
X5653156Y53235498D01*
X5726423Y53305269D01*
X5784743Y53387943D01*
X5825894Y53480369D01*
X5848308Y53579028D01*
X5849922Y53694587D01*
X5849922Y41258354D01*
X5841485Y41271052D01*
X5706353Y41407131D01*
X5547364Y41514371D01*
X5370572Y41588687D01*
X5182713Y41627249D01*
X4990942Y41628588D01*
X4802562Y41592653D01*
X4624750Y41520812D01*
X4464279Y41415802D01*
X4343477Y41297505D01*
X4343477Y54796833D01*
X4274784Y55143762D01*
X4140012Y55470742D01*
X3944297Y55765317D01*
X3695093Y56016267D01*
X3401891Y56214034D01*
X3075860Y56351085D01*
X2729419Y56422199D01*
X2375762Y56424668D01*
X2028362Y56358398D01*
X1700449Y56225913D01*
X1404515Y56032259D01*
X1151831Y55784812D01*
X952022Y55492998D01*
X812698Y55167932D01*
X739167Y54821996D01*
X734229Y54468365D01*
X798073Y54120510D01*
X928265Y53791681D01*
X1119849Y53494402D01*
X1365525Y53239997D01*
X1655937Y53038155D01*
X1980022Y52896566D01*
X2325437Y52820621D01*
X2679025Y52813215D01*
X3027317Y52874628D01*
X3357047Y53002522D01*
X3655656Y53192025D01*
X3911770Y53435920D01*
X4115634Y53724915D01*
X4259483Y54048004D01*
X4337837Y54392880D01*
X4343477Y54796833D01*
X4343477Y41297505D01*
X4327260Y41281624D01*
X4218913Y41123387D01*
X4143364Y40947118D01*
X4103492Y40759533D01*
X4100814Y40567775D01*
X4135433Y40379150D01*
X4206031Y40200841D01*
X4309918Y40039640D01*
X4443137Y39901688D01*
X4600613Y39792239D01*
X4759322Y39722900D01*
X4040000Y39722900D01*
X4008464Y39719809D01*
X3976923Y39717048D01*
X3975196Y39716547D01*
X3973397Y39716370D01*
X3943079Y39707217D01*
X3912658Y39698379D01*
X3911052Y39697547D01*
X3909331Y39697027D01*
X3881428Y39682192D01*
X3853243Y39667581D01*
X3851831Y39666455D01*
X3850242Y39665609D01*
X3825724Y39645614D01*
X3800942Y39625829D01*
X3798431Y39623354D01*
X3798381Y39623312D01*
X3798341Y39623265D01*
X3797533Y39622467D01*
X3597533Y39422467D01*
X3577412Y39397972D01*
X3557069Y39373727D01*
X3556202Y39372152D01*
X3555055Y39370754D01*
X3540074Y39342816D01*
X3524828Y39315083D01*
X3524282Y39313363D01*
X3523431Y39311775D01*
X3517942Y39293824D01*
X3517942Y40745888D01*
X3480693Y40934012D01*
X3407613Y41111318D01*
X3301485Y41271052D01*
X3166353Y41407131D01*
X3007364Y41514371D01*
X2830572Y41588687D01*
X2642713Y41627249D01*
X2450942Y41628588D01*
X2262562Y41592653D01*
X2084750Y41520812D01*
X1924279Y41415802D01*
X1787260Y41281624D01*
X1678913Y41123387D01*
X1603364Y40947118D01*
X1563492Y40759533D01*
X1560814Y40567775D01*
X1595433Y40379150D01*
X1666031Y40200841D01*
X1769918Y40039640D01*
X1903137Y39901688D01*
X2060613Y39792239D01*
X2236350Y39715461D01*
X2423652Y39674280D01*
X2615387Y39670264D01*
X2804249Y39703566D01*
X2983047Y39772917D01*
X3144969Y39875675D01*
X3283848Y40007928D01*
X3394394Y40164637D01*
X3472396Y40339833D01*
X3514884Y40526844D01*
X3517942Y40745888D01*
X3517942Y39293824D01*
X3514175Y39281503D01*
X3504593Y39251293D01*
X3504391Y39249501D01*
X3503865Y39247777D01*
X3500666Y39216291D01*
X3497133Y39184788D01*
X3497108Y39181264D01*
X3497102Y39181197D01*
X3497107Y39181136D01*
X3497100Y39180000D01*
X3497100Y38311150D01*
X3480693Y38394012D01*
X3407613Y38571318D01*
X3301485Y38731052D01*
X3166353Y38867131D01*
X3007364Y38974371D01*
X2830572Y39048687D01*
X2642713Y39087249D01*
X2450942Y39088588D01*
X2262562Y39052653D01*
X2084750Y38980812D01*
X1924279Y38875802D01*
X1787260Y38741624D01*
X1678913Y38583387D01*
X1603364Y38407118D01*
X1563492Y38219533D01*
X1560814Y38027775D01*
X1595433Y37839150D01*
X1666031Y37660841D01*
X1769918Y37499640D01*
X1903137Y37361688D01*
X2060613Y37252239D01*
X2236350Y37175461D01*
X2423652Y37134280D01*
X2615387Y37130264D01*
X2804249Y37163566D01*
X2983047Y37232917D01*
X3144969Y37335675D01*
X3283848Y37467928D01*
X3394394Y37624637D01*
X3472396Y37799833D01*
X3497100Y37908568D01*
X3497100Y37012034D01*
X2945459Y36460394D01*
X2830572Y36508687D01*
X2642713Y36547249D01*
X2450942Y36548588D01*
X2262562Y36512653D01*
X2084750Y36440812D01*
X1924279Y36335802D01*
X1787260Y36201624D01*
X1678913Y36043387D01*
X1603364Y35867118D01*
X1563492Y35679533D01*
X1560814Y35487775D01*
X1595433Y35299150D01*
X1666031Y35120841D01*
X1769918Y34959640D01*
X1903137Y34821688D01*
X2060613Y34712239D01*
X2236350Y34635461D01*
X2423652Y34594280D01*
X2615387Y34590264D01*
X2804249Y34623566D01*
X2983047Y34692917D01*
X3144969Y34795675D01*
X3283848Y34927928D01*
X3394394Y35084637D01*
X3457822Y35227100D01*
X4163959Y35227100D01*
X4206031Y35120841D01*
X4309918Y34959640D01*
X4443137Y34821688D01*
X4600613Y34712239D01*
X4776350Y34635461D01*
X4963652Y34594280D01*
X5155387Y34590264D01*
X5344249Y34623566D01*
X5523047Y34692917D01*
X5684969Y34795675D01*
X5823848Y34927928D01*
X5934394Y35084637D01*
X6012396Y35259833D01*
X6054884Y35446844D01*
X6057942Y35665888D01*
X6020693Y35854012D01*
X5947613Y36031318D01*
X5841485Y36191052D01*
X5706353Y36327131D01*
X5547364Y36434371D01*
X5370572Y36508687D01*
X5182713Y36547249D01*
X4990942Y36548588D01*
X4802562Y36512653D01*
X4624750Y36440812D01*
X4464279Y36335802D01*
X4327260Y36201624D01*
X4218913Y36043387D01*
X4162986Y35912900D01*
X3456421Y35912900D01*
X3430565Y35975632D01*
X4082467Y36627533D01*
X4102587Y36652029D01*
X4122931Y36676273D01*
X4123797Y36677849D01*
X4124945Y36679246D01*
X4139925Y36707185D01*
X4155172Y36734917D01*
X4155717Y36736638D01*
X4156569Y36738225D01*
X4165824Y36768498D01*
X4175407Y36798707D01*
X4175608Y36800500D01*
X4176135Y36802223D01*
X4179333Y36833710D01*
X4182867Y36865212D01*
X4182891Y36868737D01*
X4182898Y36868803D01*
X4182892Y36868865D01*
X4182900Y36870000D01*
X4182900Y37719263D01*
X4206031Y37660841D01*
X4309918Y37499640D01*
X4443137Y37361688D01*
X4600613Y37252239D01*
X4776350Y37175461D01*
X4963652Y37134280D01*
X5155387Y37130264D01*
X5344249Y37163566D01*
X5523047Y37232917D01*
X5684969Y37335675D01*
X5823848Y37467928D01*
X5900507Y37576600D01*
X7369058Y37576600D01*
X7462829Y37482830D01*
X7543272Y37416753D01*
X7635017Y37367560D01*
X7734569Y37337124D01*
X7838138Y37326603D01*
X7941778Y37336400D01*
X8041540Y37366141D01*
X8133626Y37414693D01*
X8214528Y37480205D01*
X8281164Y37560185D01*
X8330997Y37651584D01*
X8362127Y37750922D01*
X8373370Y37854414D01*
X8364297Y37958121D01*
X8335254Y38058088D01*
X8287347Y38150511D01*
X8222400Y38231868D01*
X8217170Y38237171D01*
X7967171Y38487171D01*
X7929109Y38518435D01*
X7891353Y38550116D01*
X7888891Y38551470D01*
X7886727Y38553247D01*
X7843370Y38576495D01*
X7800129Y38600267D01*
X7797451Y38601117D01*
X7794983Y38602440D01*
X7747929Y38616826D01*
X7700900Y38631744D01*
X7698108Y38632058D01*
X7695430Y38632876D01*
X7646434Y38637854D01*
X7597447Y38643348D01*
X7591967Y38643387D01*
X7591862Y38643397D01*
X7591763Y38643388D01*
X7590000Y38643400D01*
X5899721Y38643400D01*
X5841485Y38731052D01*
X5706353Y38867131D01*
X5547364Y38974371D01*
X5398136Y39037100D01*
X6090000Y39037100D01*
X6121535Y39040192D01*
X6153077Y39042952D01*
X6154803Y39043454D01*
X6156603Y39043630D01*
X6186966Y39052798D01*
X6217342Y39061622D01*
X6218942Y39062452D01*
X6220669Y39062973D01*
X6248646Y39077849D01*
X6276757Y39092420D01*
X6278165Y39093545D01*
X6279758Y39094391D01*
X6304302Y39114410D01*
X6329058Y39134171D01*
X6331568Y39136647D01*
X6331619Y39136688D01*
X6331658Y39136736D01*
X6332467Y39137533D01*
X7752034Y40557100D01*
X8573918Y40557100D01*
X8624017Y40505222D01*
X8707096Y40447481D01*
X8799807Y40406976D01*
X8898620Y40385251D01*
X8999771Y40383132D01*
X9099407Y40400700D01*
X9193733Y40437287D01*
X9279156Y40491498D01*
X9352423Y40561269D01*
X9410743Y40643943D01*
X9451894Y40736369D01*
X9474308Y40835028D01*
X9475922Y40950587D01*
X9475922Y25220856D01*
X6108981Y21853915D01*
X6108981Y25354763D01*
X6108981Y27894763D01*
X6099985Y28096568D01*
X6057942Y28267708D01*
X6057942Y30585888D01*
X6057942Y33125888D01*
X6020693Y33314012D01*
X5947613Y33491318D01*
X5841485Y33651052D01*
X5706353Y33787131D01*
X5547364Y33894371D01*
X5370572Y33968687D01*
X5182713Y34007249D01*
X4990942Y34008588D01*
X4802562Y33972653D01*
X4624750Y33900812D01*
X4464279Y33795802D01*
X4327260Y33661624D01*
X4218913Y33503387D01*
X4143364Y33327118D01*
X4103492Y33139533D01*
X4100814Y32947775D01*
X4135433Y32759150D01*
X4206031Y32580841D01*
X4309918Y32419640D01*
X4443137Y32281688D01*
X4600613Y32172239D01*
X4776350Y32095461D01*
X4963652Y32054280D01*
X5155387Y32050264D01*
X5344249Y32083566D01*
X5523047Y32152917D01*
X5684969Y32255675D01*
X5823848Y32387928D01*
X5934394Y32544637D01*
X6012396Y32719833D01*
X6054884Y32906844D01*
X6057942Y33125888D01*
X6057942Y30585888D01*
X6020693Y30774012D01*
X5947613Y30951318D01*
X5841485Y31111052D01*
X5706353Y31247131D01*
X5547364Y31354371D01*
X5370572Y31428687D01*
X5182713Y31467249D01*
X4990942Y31468588D01*
X4802562Y31432653D01*
X4624750Y31360812D01*
X4464279Y31255802D01*
X4327260Y31121624D01*
X4218913Y30963387D01*
X4143364Y30787118D01*
X4103492Y30599533D01*
X4100814Y30407775D01*
X4135433Y30219150D01*
X4206031Y30040841D01*
X4309918Y29879640D01*
X4443137Y29741688D01*
X4600613Y29632239D01*
X4776350Y29555461D01*
X4963652Y29514280D01*
X5155387Y29510264D01*
X5344249Y29543566D01*
X5523047Y29612917D01*
X5684969Y29715675D01*
X5823848Y29847928D01*
X5934394Y30004637D01*
X6012396Y30179833D01*
X6054884Y30366844D01*
X6057942Y30585888D01*
X6057942Y28267708D01*
X6051792Y28292742D01*
X6009515Y28394806D01*
X5881071Y28487321D01*
X5617321Y28223571D01*
X5617321Y28751071D01*
X5524806Y28879515D01*
X5334920Y28948433D01*
X5135237Y28978981D01*
X4933432Y28969985D01*
X4737258Y28921792D01*
X4635194Y28879515D01*
X4542679Y28751071D01*
X5080000Y28213751D01*
X5617321Y28751071D01*
X5617321Y28223571D01*
X5343751Y27950000D01*
X5881071Y27412679D01*
X6009515Y27505194D01*
X6078433Y27695080D01*
X6108981Y27894763D01*
X6108981Y25354763D01*
X6099985Y25556568D01*
X6051792Y25752742D01*
X6009515Y25854806D01*
X5881071Y25947321D01*
X5617321Y25683571D01*
X5617321Y26211071D01*
X5617321Y27148929D01*
X5080000Y27686249D01*
X4816249Y27422499D01*
X4816249Y27950000D01*
X4278929Y28487321D01*
X4150485Y28394806D01*
X4081567Y28204920D01*
X4051019Y28005237D01*
X4060015Y27803432D01*
X4108208Y27607258D01*
X4150485Y27505194D01*
X4278929Y27412679D01*
X4816249Y27950000D01*
X4816249Y27422499D01*
X4542679Y27148929D01*
X4635194Y27020485D01*
X4825080Y26951567D01*
X5024763Y26921019D01*
X5226568Y26930015D01*
X5422742Y26978208D01*
X5524806Y27020485D01*
X5617321Y27148929D01*
X5617321Y26211071D01*
X5524806Y26339515D01*
X5334920Y26408433D01*
X5135237Y26438981D01*
X4933432Y26429985D01*
X4737258Y26381792D01*
X4635194Y26339515D01*
X4542679Y26211071D01*
X5080000Y25673751D01*
X5617321Y26211071D01*
X5617321Y25683571D01*
X5343751Y25410000D01*
X5881071Y24872679D01*
X6009515Y24965194D01*
X6078433Y25155080D01*
X6108981Y25354763D01*
X6108981Y21853915D01*
X6058945Y21803879D01*
X6058945Y22108000D01*
X6058945Y23632000D01*
X6056097Y23667035D01*
X6037917Y23725174D01*
X6004291Y23775967D01*
X5957869Y23815410D01*
X5902312Y23840392D01*
X5842000Y23848945D01*
X5617321Y23848945D01*
X5617321Y24608929D01*
X5080000Y25146249D01*
X4816249Y24882499D01*
X4816249Y25410000D01*
X4278929Y25947321D01*
X4150485Y25854806D01*
X4081567Y25664920D01*
X4051019Y25465237D01*
X4060015Y25263432D01*
X4108208Y25067258D01*
X4150485Y24965194D01*
X4278929Y24872679D01*
X4816249Y25410000D01*
X4816249Y24882499D01*
X4542679Y24608929D01*
X4635194Y24480485D01*
X4825080Y24411567D01*
X5024763Y24381019D01*
X5226568Y24390015D01*
X5422742Y24438208D01*
X5524806Y24480485D01*
X5617321Y24608929D01*
X5617321Y23848945D01*
X4318000Y23848945D01*
X4282965Y23846097D01*
X4224826Y23827917D01*
X4174033Y23794291D01*
X4134590Y23747869D01*
X4109608Y23692312D01*
X4101055Y23632000D01*
X4101055Y23403400D01*
X3568981Y23403400D01*
X3568981Y25354763D01*
X3568981Y27894763D01*
X3559985Y28096568D01*
X3511792Y28292742D01*
X3469515Y28394806D01*
X3341071Y28487321D01*
X3077321Y28223571D01*
X3077321Y28751071D01*
X2984806Y28879515D01*
X2794920Y28948433D01*
X2595237Y28978981D01*
X2393432Y28969985D01*
X2197258Y28921792D01*
X2095194Y28879515D01*
X2002679Y28751071D01*
X2540000Y28213751D01*
X3077321Y28751071D01*
X3077321Y28223571D01*
X2803751Y27950000D01*
X3341071Y27412679D01*
X3469515Y27505194D01*
X3538433Y27695080D01*
X3568981Y27894763D01*
X3568981Y25354763D01*
X3559985Y25556568D01*
X3511792Y25752742D01*
X3469515Y25854806D01*
X3341071Y25947321D01*
X3077321Y25683571D01*
X3077321Y26211071D01*
X3077321Y27148929D01*
X2540000Y27686249D01*
X2276249Y27422499D01*
X2276249Y27950000D01*
X1738929Y28487321D01*
X1610485Y28394806D01*
X1541567Y28204920D01*
X1511019Y28005237D01*
X1520015Y27803432D01*
X1568208Y27607258D01*
X1610485Y27505194D01*
X1738929Y27412679D01*
X2276249Y27950000D01*
X2276249Y27422499D01*
X2002679Y27148929D01*
X2095194Y27020485D01*
X2285080Y26951567D01*
X2484763Y26921019D01*
X2686568Y26930015D01*
X2882742Y26978208D01*
X2984806Y27020485D01*
X3077321Y27148929D01*
X3077321Y26211071D01*
X2984806Y26339515D01*
X2794920Y26408433D01*
X2595237Y26438981D01*
X2393432Y26429985D01*
X2197258Y26381792D01*
X2095194Y26339515D01*
X2002679Y26211071D01*
X2540000Y25673751D01*
X3077321Y26211071D01*
X3077321Y25683571D01*
X2803751Y25410000D01*
X3341071Y24872679D01*
X3469515Y24965194D01*
X3538433Y25155080D01*
X3568981Y25354763D01*
X3568981Y23403400D01*
X3518945Y23403400D01*
X3518945Y23632000D01*
X3516097Y23667035D01*
X3497917Y23725174D01*
X3464291Y23775967D01*
X3417869Y23815410D01*
X3362312Y23840392D01*
X3302000Y23848945D01*
X3077321Y23848945D01*
X3077321Y24608929D01*
X2540000Y25146249D01*
X2276249Y24882499D01*
X2276249Y25410000D01*
X1738929Y25947321D01*
X1610485Y25854806D01*
X1541567Y25664920D01*
X1511019Y25465237D01*
X1520015Y25263432D01*
X1568208Y25067258D01*
X1610485Y24965194D01*
X1738929Y24872679D01*
X2276249Y25410000D01*
X2276249Y24882499D01*
X2002679Y24608929D01*
X2095194Y24480485D01*
X2285080Y24411567D01*
X2484763Y24381019D01*
X2686568Y24390015D01*
X2882742Y24438208D01*
X2984806Y24480485D01*
X3077321Y24608929D01*
X3077321Y23848945D01*
X1778000Y23848945D01*
X1742965Y23846097D01*
X1684826Y23827917D01*
X1634033Y23794291D01*
X1594590Y23747869D01*
X1569608Y23692312D01*
X1561055Y23632000D01*
X1561055Y22108000D01*
X1563903Y22072965D01*
X1582083Y22014826D01*
X1615709Y21964033D01*
X1662131Y21924590D01*
X1717688Y21899608D01*
X1778000Y21891055D01*
X3302000Y21891055D01*
X3337035Y21893903D01*
X3395174Y21912083D01*
X3445967Y21945709D01*
X3485410Y21992131D01*
X3510392Y22047688D01*
X3518945Y22108000D01*
X3518945Y22336600D01*
X4101055Y22336600D01*
X4101055Y22108000D01*
X4103903Y22072965D01*
X4122083Y22014826D01*
X4155709Y21964033D01*
X4202131Y21924590D01*
X4257688Y21899608D01*
X4318000Y21891055D01*
X5842000Y21891055D01*
X5877035Y21893903D01*
X5935174Y21912083D01*
X5985967Y21945709D01*
X6025410Y21992131D01*
X6050392Y22047688D01*
X6058945Y22108000D01*
X6058945Y21803879D01*
X5457966Y21202900D01*
X2940000Y21202900D01*
X2908423Y21199805D01*
X2876923Y21197048D01*
X2875196Y21196547D01*
X2873397Y21196370D01*
X2843033Y21187203D01*
X2812658Y21178378D01*
X2811057Y21177549D01*
X2809331Y21177027D01*
X2781353Y21162152D01*
X2753243Y21147580D01*
X2751834Y21146456D01*
X2750242Y21145609D01*
X2725697Y21125591D01*
X2700942Y21105829D01*
X2698431Y21103354D01*
X2698381Y21103312D01*
X2698341Y21103265D01*
X2697533Y21102467D01*
X932900Y19337834D01*
X932900Y28397966D01*
X2020468Y29485534D01*
X2134773Y29599840D01*
X2236350Y29555461D01*
X2423652Y29514280D01*
X2615387Y29510264D01*
X2804249Y29543566D01*
X2983047Y29612917D01*
X3144969Y29715675D01*
X3283848Y29847928D01*
X3394394Y30004637D01*
X3472396Y30179833D01*
X3514884Y30366844D01*
X3517942Y30585888D01*
X3517942Y33125888D01*
X3480693Y33314012D01*
X3407613Y33491318D01*
X3301485Y33651052D01*
X3166353Y33787131D01*
X3007364Y33894371D01*
X2830572Y33968687D01*
X2642713Y34007249D01*
X2450942Y34008588D01*
X2262562Y33972653D01*
X2084750Y33900812D01*
X1924279Y33795802D01*
X1787260Y33661624D01*
X1678913Y33503387D01*
X1603364Y33327118D01*
X1563492Y33139533D01*
X1560814Y32947775D01*
X1595433Y32759150D01*
X1666031Y32580841D01*
X1769918Y32419640D01*
X1903137Y32281688D01*
X2060613Y32172239D01*
X2236350Y32095461D01*
X2423652Y32054280D01*
X2615387Y32050264D01*
X2804249Y32083566D01*
X2983047Y32152917D01*
X3144969Y32255675D01*
X3283848Y32387928D01*
X3394394Y32544637D01*
X3472396Y32719833D01*
X3514884Y32906844D01*
X3517942Y33125888D01*
X3517942Y30585888D01*
X3480693Y30774012D01*
X3407613Y30951318D01*
X3301485Y31111052D01*
X3166353Y31247131D01*
X3007364Y31354371D01*
X2830572Y31428687D01*
X2642713Y31467249D01*
X2450942Y31468588D01*
X2262562Y31432653D01*
X2084750Y31360812D01*
X1924279Y31255802D01*
X1787260Y31121624D01*
X1678913Y30963387D01*
X1603364Y30787118D01*
X1563492Y30599533D01*
X1560814Y30407775D01*
X1595433Y30219150D01*
X1648977Y30083912D01*
X1535534Y29970468D01*
X347533Y28782467D01*
X327412Y28757972D01*
X307069Y28733727D01*
X306202Y28732152D01*
X305055Y28730754D01*
X290074Y28702816D01*
X274828Y28675083D01*
X274282Y28673363D01*
X273431Y28671775D01*
X265500Y28645834D01*
X265500Y68324500D01*
X7801021Y68324500D01*
X7796603Y68322152D01*
X7768493Y68307580D01*
X7767084Y68306456D01*
X7765492Y68305609D01*
X7740947Y68285591D01*
X7716192Y68265829D01*
X7713681Y68263354D01*
X7713631Y68263312D01*
X7713591Y68263265D01*
X7712783Y68262467D01*
X6835313Y67384997D01*
X6815192Y67360502D01*
X6794849Y67336257D01*
X6793982Y67334682D01*
X6792835Y67333284D01*
X6777854Y67305346D01*
X6762608Y67277613D01*
X6762062Y67275893D01*
X6761211Y67274305D01*
X6751955Y67244033D01*
X6742373Y67213823D01*
X6742171Y67212031D01*
X6741645Y67210307D01*
X6738446Y67178821D01*
X6734913Y67147318D01*
X6734888Y67143794D01*
X6734882Y67143727D01*
X6734887Y67143666D01*
X6734880Y67142530D01*
X6734880Y60456970D01*
X6737971Y60425435D01*
X6740732Y60393893D01*
X6741233Y60392167D01*
X6741410Y60390367D01*
X6750577Y60360004D01*
X6759402Y60329628D01*
X6760231Y60328028D01*
X6760753Y60326301D01*
X6775628Y60298324D01*
X6790200Y60270213D01*
X6791324Y60268805D01*
X6792171Y60267212D01*
X6812189Y60242668D01*
X6831951Y60217912D01*
X6834426Y60215402D01*
X6834468Y60215351D01*
X6834515Y60215312D01*
X6835313Y60214503D01*
X9166861Y57882955D01*
X9154187Y57885556D01*
X9053016Y57886262D01*
X8953635Y57867305D01*
X8859829Y57829404D01*
X8775171Y57774006D01*
X8702886Y57703219D01*
X8645726Y57619739D01*
X8605870Y57526747D01*
X8587320Y57439481D01*
X8585717Y57443372D01*
X8529728Y57527641D01*
X8458438Y57599431D01*
X8374562Y57656006D01*
X8281294Y57695212D01*
X8182187Y57715556D01*
X8081016Y57716262D01*
X7981635Y57697305D01*
X7887829Y57659404D01*
X7803171Y57604006D01*
X7730886Y57533219D01*
X7673726Y57449739D01*
X7633870Y57356747D01*
X7627922Y57328764D01*
X7627922Y58520587D01*
X7608271Y58619833D01*
X7569717Y58713372D01*
X7513728Y58797641D01*
X7442438Y58869431D01*
X7358562Y58926006D01*
X7265294Y58965212D01*
X7166187Y58985556D01*
X7065016Y58986262D01*
X6965635Y58967305D01*
X6871829Y58929404D01*
X6787171Y58874006D01*
X6714886Y58803219D01*
X6657726Y58719739D01*
X6617870Y58626747D01*
X6596835Y58527785D01*
X6595422Y58426622D01*
X6613686Y58327111D01*
X6650930Y58233042D01*
X6705736Y58147999D01*
X6776017Y58075222D01*
X6859096Y58017481D01*
X6951807Y57976976D01*
X7050620Y57955251D01*
X7151771Y57953132D01*
X7251407Y57970700D01*
X7345733Y58007287D01*
X7431156Y58061498D01*
X7504423Y58131269D01*
X7562743Y58213943D01*
X7603894Y58306369D01*
X7626308Y58405028D01*
X7627922Y58520587D01*
X7627922Y57328764D01*
X7612835Y57257785D01*
X7611422Y57156622D01*
X7629686Y57057111D01*
X7666930Y56963042D01*
X7721736Y56877999D01*
X7792017Y56805222D01*
X7875096Y56747481D01*
X7967807Y56706976D01*
X8066620Y56685251D01*
X8167771Y56683132D01*
X8267407Y56700700D01*
X8361733Y56737287D01*
X8447156Y56791498D01*
X8520423Y56861269D01*
X8578743Y56943943D01*
X8619894Y57036369D01*
X8641093Y57129685D01*
X8693736Y57047999D01*
X8757100Y56982385D01*
X8757100Y55920000D01*
X8760191Y55888465D01*
X8762952Y55856923D01*
X8763453Y55855197D01*
X8763630Y55853397D01*
X8772797Y55823034D01*
X8781622Y55792658D01*
X8782451Y55791058D01*
X8782973Y55789331D01*
X8797848Y55761354D01*
X8812420Y55733243D01*
X8813544Y55731835D01*
X8814391Y55730242D01*
X8834409Y55705698D01*
X8854171Y55680942D01*
X8856646Y55678432D01*
X8856688Y55678381D01*
X8856735Y55678342D01*
X8857533Y55677533D01*
X10555100Y53979966D01*
X10555100Y53598945D01*
X10398000Y53598945D01*
X10362965Y53596097D01*
X10304826Y53577917D01*
X10254033Y53544291D01*
X10214590Y53497869D01*
X10189608Y53442312D01*
X10181055Y53382000D01*
X10181055Y52382000D01*
X10183903Y52346965D01*
X10202083Y52288826D01*
X10235709Y52238033D01*
X10282131Y52198590D01*
X10337688Y52173608D01*
X10398000Y52165055D01*
X11398000Y52165055D01*
X11433035Y52167903D01*
X11491174Y52186083D01*
X11541967Y52219709D01*
X11581410Y52266131D01*
X11606392Y52321688D01*
X11614945Y52382000D01*
X11614945Y53382000D01*
X11612097Y53417035D01*
X11593917Y53475174D01*
X11560291Y53525967D01*
X11513869Y53565410D01*
X11458312Y53590392D01*
X11398000Y53598945D01*
X11240900Y53598945D01*
X11240900Y54122000D01*
X11237808Y54153536D01*
X11235048Y54185077D01*
X11234546Y54186804D01*
X11234370Y54188603D01*
X11225202Y54218967D01*
X11216378Y54249342D01*
X11215548Y54250943D01*
X11215027Y54252669D01*
X11200151Y54280647D01*
X11185580Y54308757D01*
X11184455Y54310166D01*
X11183609Y54311758D01*
X11163590Y54336303D01*
X11143829Y54361058D01*
X11141353Y54363569D01*
X11141312Y54363619D01*
X11141264Y54363659D01*
X11140467Y54364467D01*
X9442900Y56062034D01*
X9442900Y56984110D01*
X9492423Y57031269D01*
X9550743Y57113943D01*
X9591894Y57206369D01*
X9614308Y57305028D01*
X9615922Y57420587D01*
X9612636Y57437180D01*
X15126915Y51922900D01*
X10202034Y51922900D01*
X9951314Y52173620D01*
X9991174Y52186083D01*
X10041967Y52219709D01*
X10081410Y52266131D01*
X10106392Y52321688D01*
X10114945Y52382000D01*
X10114945Y53382000D01*
X10112097Y53417035D01*
X10093917Y53475174D01*
X10060291Y53525967D01*
X10013869Y53565410D01*
X9958312Y53590392D01*
X9898000Y53598945D01*
X8898000Y53598945D01*
X8862965Y53596097D01*
X8804826Y53577917D01*
X8754033Y53544291D01*
X8714590Y53497869D01*
X8689608Y53442312D01*
X8681055Y53382000D01*
X8681055Y52382000D01*
X8683903Y52346965D01*
X8702083Y52288826D01*
X8735709Y52238033D01*
X8782131Y52198590D01*
X8837688Y52173608D01*
X8898000Y52165055D01*
X9064752Y52165055D01*
X9070797Y52145034D01*
X9079622Y52114658D01*
X9080451Y52113058D01*
X9080973Y52111331D01*
X9095848Y52083354D01*
X9110420Y52055243D01*
X9111544Y52053835D01*
X9112391Y52052242D01*
X9132409Y52027698D01*
X9152171Y52002942D01*
X9154646Y52000432D01*
X9154688Y52000381D01*
X9154735Y52000342D01*
X9155533Y51999533D01*
X9817533Y51337533D01*
X9842028Y51317413D01*
X9866273Y51297069D01*
X9867848Y51296203D01*
X9869246Y51295055D01*
X9897184Y51280075D01*
X9924917Y51264828D01*
X9926637Y51264283D01*
X9928225Y51263431D01*
X9958497Y51254176D01*
X9988707Y51244593D01*
X9990499Y51244392D01*
X9992223Y51243865D01*
X10023709Y51240667D01*
X10055212Y51237133D01*
X10058736Y51237109D01*
X10058803Y51237102D01*
X10058864Y51237108D01*
X10060000Y51237100D01*
X15147966Y51237100D01*
X19087100Y47297966D01*
X19087100Y47000000D01*
X19087100Y46950000D01*
X19087100Y43814264D01*
X19087100Y43776310D01*
X19032886Y43723219D01*
X18975726Y43639739D01*
X18935870Y43546747D01*
X18914835Y43447785D01*
X18913422Y43346622D01*
X18931686Y43247111D01*
X18968930Y43153042D01*
X19023736Y43067999D01*
X19094017Y42995222D01*
X19177096Y42937481D01*
X19269807Y42896976D01*
X19368620Y42875251D01*
X19469771Y42873132D01*
X19487286Y42876221D01*
X19357533Y42746467D01*
X19337412Y42721972D01*
X19317069Y42697727D01*
X19316202Y42696152D01*
X19315055Y42694754D01*
X19300074Y42666816D01*
X19284828Y42639083D01*
X19284282Y42637363D01*
X19283431Y42635775D01*
X19274175Y42605503D01*
X19264593Y42575293D01*
X19264391Y42573501D01*
X19263865Y42571777D01*
X19260666Y42540291D01*
X19257133Y42508788D01*
X19257108Y42505264D01*
X19257102Y42505197D01*
X19257107Y42505136D01*
X19257100Y42504000D01*
X19257100Y42466945D01*
X19100000Y42466945D01*
X19064965Y42464097D01*
X19006826Y42445917D01*
X18956033Y42412291D01*
X18916590Y42365869D01*
X18891608Y42310312D01*
X18883055Y42250000D01*
X18883055Y41250000D01*
X18885903Y41214965D01*
X18904083Y41156826D01*
X18937709Y41106033D01*
X18984131Y41066590D01*
X19039688Y41041608D01*
X19100000Y41033055D01*
X20097100Y41033055D01*
X20097100Y39910002D01*
X20100191Y39878467D01*
X20102952Y39846925D01*
X20103453Y39845199D01*
X20103630Y39843399D01*
X20112797Y39813036D01*
X20121622Y39782660D01*
X20122451Y39781060D01*
X20122973Y39779333D01*
X20137848Y39751356D01*
X20152420Y39723245D01*
X20153544Y39721837D01*
X20154391Y39720244D01*
X20174409Y39695700D01*
X20194171Y39670944D01*
X20196646Y39668434D01*
X20196688Y39668383D01*
X20196735Y39668344D01*
X20197533Y39667535D01*
X20497534Y39367534D01*
X20524455Y39340613D01*
X20523422Y39266624D01*
X20541686Y39167113D01*
X20578930Y39073044D01*
X20633736Y38988001D01*
X20704017Y38915224D01*
X20787096Y38857483D01*
X20879807Y38816978D01*
X20978620Y38795253D01*
X21079771Y38793134D01*
X21179407Y38810702D01*
X21273733Y38847289D01*
X21359156Y38901500D01*
X21432423Y38971271D01*
X21490743Y39053945D01*
X21531894Y39146371D01*
X21554308Y39245030D01*
X21555922Y39360589D01*
X21536271Y39459835D01*
X21497717Y39553374D01*
X21441728Y39637643D01*
X21370438Y39709433D01*
X21286562Y39766008D01*
X21193294Y39805214D01*
X21094187Y39825558D01*
X21008782Y39826154D01*
X20982468Y39852468D01*
X20782900Y40052036D01*
X20782900Y40322166D01*
X21636501Y39468565D01*
X21636501Y37436806D01*
X21636501Y37436806D01*
G37*
X21636501Y37436806D02*
X18442900Y34243205D01*
X18442900Y40996000D01*
X18442900Y41033055D01*
X18600000Y41033055D01*
X18635035Y41035903D01*
X18693174Y41054083D01*
X18743967Y41087709D01*
X18783410Y41134131D01*
X18808392Y41189688D01*
X18816945Y41250000D01*
X18816945Y42250000D01*
X18814097Y42285035D01*
X18795917Y42343174D01*
X18762291Y42393967D01*
X18715869Y42433410D01*
X18660312Y42458392D01*
X18600000Y42466945D01*
X17600000Y42466945D01*
X17564965Y42464097D01*
X17506826Y42445917D01*
X17456033Y42412291D01*
X17416590Y42365869D01*
X17391608Y42310312D01*
X17383055Y42250000D01*
X17383055Y41250000D01*
X17385903Y41214965D01*
X17404083Y41156826D01*
X17437709Y41106033D01*
X17484131Y41066590D01*
X17539688Y41041608D01*
X17600000Y41033055D01*
X17757100Y41033055D01*
X17757100Y40996000D01*
X17757100Y34132155D01*
X17363500Y33738555D01*
X17363500Y41224047D01*
X17363500Y41275952D01*
X17363500Y41497625D01*
X17363500Y42002375D01*
X17363500Y42224048D01*
X17363500Y42275953D01*
X17353374Y42326861D01*
X17333510Y42374814D01*
X17304673Y42417972D01*
X17267971Y42454674D01*
X17224814Y42483511D01*
X17176860Y42503374D01*
X17125952Y42513500D01*
X16852375Y42513500D01*
X16786500Y42447625D01*
X16786500Y41936500D01*
X17297625Y41936500D01*
X17363500Y42002375D01*
X17363500Y41497625D01*
X17297625Y41563500D01*
X16786500Y41563500D01*
X16786500Y41052375D01*
X16852375Y40986500D01*
X17125952Y40986500D01*
X17176860Y40996626D01*
X17224814Y41016489D01*
X17267971Y41045326D01*
X17304673Y41082028D01*
X17333510Y41125186D01*
X17353374Y41173139D01*
X17363500Y41224047D01*
X17363500Y33738555D01*
X16413500Y32788555D01*
X16413500Y41052375D01*
X16413500Y41563500D01*
X16413500Y41936500D01*
X16413500Y42447625D01*
X16347625Y42513500D01*
X16074048Y42513500D01*
X16023140Y42503374D01*
X15975186Y42483511D01*
X15932029Y42454674D01*
X15895327Y42417972D01*
X15866490Y42374814D01*
X15846626Y42326861D01*
X15836500Y42275953D01*
X15836500Y42224048D01*
X15836500Y42002375D01*
X15902375Y41936500D01*
X16413500Y41936500D01*
X16413500Y41563500D01*
X15902375Y41563500D01*
X15836500Y41497625D01*
X15836500Y41275952D01*
X15836500Y41224047D01*
X15846626Y41173139D01*
X15866490Y41125186D01*
X15895327Y41082028D01*
X15932029Y41045326D01*
X15975186Y41016489D01*
X16023140Y40996626D01*
X16074048Y40986500D01*
X16347625Y40986500D01*
X16413500Y41052375D01*
X16413500Y32788555D01*
X16013995Y32389050D01*
X15993874Y32364555D01*
X15973531Y32340310D01*
X15972664Y32338735D01*
X15971517Y32337337D01*
X15956536Y32309399D01*
X15941290Y32281666D01*
X15940744Y32279946D01*
X15939893Y32278358D01*
X15930637Y32248086D01*
X15921055Y32217876D01*
X15920853Y32216084D01*
X15920327Y32214360D01*
X15917128Y32182874D01*
X15913595Y32151371D01*
X15913570Y32147847D01*
X15913564Y32147780D01*
X15913569Y32147719D01*
X15913562Y32146583D01*
X15913562Y32111372D01*
X15794798Y32230136D01*
X15795922Y32310587D01*
X15776271Y32409833D01*
X15737717Y32503372D01*
X15681728Y32587641D01*
X15610438Y32659431D01*
X15526562Y32716006D01*
X15433294Y32755212D01*
X15334187Y32775556D01*
X15233016Y32776262D01*
X15133635Y32757305D01*
X15039829Y32719404D01*
X15016945Y32704430D01*
X15016945Y45500000D01*
X15016945Y50000000D01*
X15014097Y50035035D01*
X14995917Y50093174D01*
X14962291Y50143967D01*
X14915869Y50183410D01*
X14860312Y50208392D01*
X14800000Y50216945D01*
X12800000Y50216945D01*
X12764965Y50214097D01*
X12706826Y50195917D01*
X12656033Y50162291D01*
X12616590Y50115869D01*
X12591608Y50060312D01*
X12583055Y50000000D01*
X12583055Y45500000D01*
X12585903Y45464965D01*
X12604083Y45406826D01*
X12637709Y45356033D01*
X12684131Y45316590D01*
X12739688Y45291608D01*
X12800000Y45283055D01*
X14800000Y45283055D01*
X14835035Y45285903D01*
X14893174Y45304083D01*
X14943967Y45337709D01*
X14983410Y45384131D01*
X15008392Y45439688D01*
X15016945Y45500000D01*
X15016945Y32704430D01*
X14955171Y32664006D01*
X14882886Y32593219D01*
X14825726Y32509739D01*
X14785870Y32416747D01*
X14764835Y32317785D01*
X14763422Y32216622D01*
X14781686Y32117111D01*
X14818930Y32023042D01*
X14873736Y31937999D01*
X14944017Y31865222D01*
X15027096Y31807481D01*
X15119807Y31766976D01*
X15218620Y31745251D01*
X15311766Y31743300D01*
X15507161Y31547905D01*
X15507161Y26379174D01*
X15423951Y26414152D01*
X15324844Y26434496D01*
X15223673Y26435202D01*
X15124292Y26416245D01*
X15030486Y26378344D01*
X14945828Y26322946D01*
X14873543Y26252159D01*
X14816383Y26168679D01*
X14776527Y26075687D01*
X14755492Y25976725D01*
X14754079Y25875562D01*
X14772343Y25776051D01*
X14809587Y25681982D01*
X14864393Y25596939D01*
X14927757Y25531325D01*
X14927757Y23792691D01*
X14067965Y22932900D01*
X10360000Y22932900D01*
X10328464Y22929809D01*
X10296923Y22927048D01*
X10295196Y22926547D01*
X10293397Y22926370D01*
X10263079Y22917217D01*
X10232658Y22908379D01*
X10231052Y22907547D01*
X10229331Y22907027D01*
X10201428Y22892192D01*
X10173243Y22877581D01*
X10171831Y22876455D01*
X10170242Y22875609D01*
X10145724Y22855614D01*
X10120942Y22835829D01*
X10118431Y22833354D01*
X10118381Y22833312D01*
X10118341Y22833265D01*
X10117533Y22832467D01*
X9647966Y22362900D01*
X9566573Y22362900D01*
X9510436Y22419431D01*
X9426560Y22476006D01*
X9333292Y22515212D01*
X9234185Y22535556D01*
X9133014Y22536262D01*
X9033633Y22517305D01*
X8939827Y22479404D01*
X8855169Y22424006D01*
X8782884Y22353219D01*
X8725724Y22269739D01*
X8685868Y22176747D01*
X8664833Y22077785D01*
X8663420Y21976622D01*
X8681684Y21877111D01*
X8718928Y21783042D01*
X8773734Y21697999D01*
X8787736Y21683499D01*
X6908433Y21683499D01*
X13452032Y28227098D01*
X14535736Y28227098D01*
X14573918Y28227098D01*
X14624017Y28175220D01*
X14707096Y28117479D01*
X14799807Y28076974D01*
X14898620Y28055249D01*
X14999771Y28053130D01*
X15099407Y28070698D01*
X15193733Y28107285D01*
X15279156Y28161496D01*
X15352423Y28231267D01*
X15410743Y28313941D01*
X15451894Y28406367D01*
X15474308Y28505026D01*
X15475922Y28620585D01*
X15456271Y28719831D01*
X15417717Y28813370D01*
X15361728Y28897639D01*
X15290438Y28969429D01*
X15206562Y29026004D01*
X15113294Y29065210D01*
X15014187Y29085554D01*
X14913016Y29086260D01*
X14813635Y29067303D01*
X14719829Y29029402D01*
X14635171Y28974004D01*
X14572771Y28912898D01*
X14535736Y28912898D01*
X13309998Y28912898D01*
X13278462Y28909807D01*
X13246921Y28907046D01*
X13245194Y28906545D01*
X13243395Y28906368D01*
X13213077Y28897215D01*
X13182656Y28888377D01*
X13181050Y28887545D01*
X13179329Y28887025D01*
X13151426Y28872190D01*
X13123241Y28857579D01*
X13121829Y28856453D01*
X13120240Y28855607D01*
X13095722Y28835612D01*
X13070940Y28815827D01*
X13068429Y28813352D01*
X13068379Y28813310D01*
X13068339Y28813263D01*
X13067531Y28812465D01*
X13063500Y28808434D01*
X13063500Y41824048D01*
X13063500Y42597625D01*
X13063500Y43102375D01*
X13063500Y43875952D01*
X13053374Y43926860D01*
X13033511Y43974814D01*
X13004674Y44017971D01*
X12967972Y44054673D01*
X12924814Y44083510D01*
X12876861Y44103374D01*
X12825953Y44113500D01*
X12774048Y44113500D01*
X12199922Y44113500D01*
X12199922Y46074587D01*
X12199922Y47852587D01*
X12199922Y49376587D01*
X12180271Y49475833D01*
X12141717Y49569372D01*
X12085728Y49653641D01*
X12014438Y49725431D01*
X11930562Y49782006D01*
X11837294Y49821212D01*
X11738187Y49841556D01*
X11637016Y49842262D01*
X11537635Y49823305D01*
X11443829Y49785404D01*
X11359171Y49730006D01*
X11286886Y49659219D01*
X11229726Y49575739D01*
X11189870Y49482747D01*
X11168835Y49383785D01*
X11167422Y49282622D01*
X11185686Y49183111D01*
X11222930Y49089042D01*
X11277736Y49003999D01*
X11348017Y48931222D01*
X11431096Y48873481D01*
X11523807Y48832976D01*
X11622620Y48811251D01*
X11723771Y48809132D01*
X11823407Y48826700D01*
X11917733Y48863287D01*
X12003156Y48917498D01*
X12076423Y48987269D01*
X12134743Y49069943D01*
X12175894Y49162369D01*
X12198308Y49261028D01*
X12199922Y49376587D01*
X12199922Y47852587D01*
X12180271Y47951833D01*
X12141717Y48045372D01*
X12085728Y48129641D01*
X12014438Y48201431D01*
X11930562Y48258006D01*
X11837294Y48297212D01*
X11738187Y48317556D01*
X11637016Y48318262D01*
X11537635Y48299305D01*
X11443829Y48261404D01*
X11359171Y48206006D01*
X11286886Y48135219D01*
X11229726Y48051739D01*
X11189870Y47958747D01*
X11168835Y47859785D01*
X11167422Y47758622D01*
X11185686Y47659111D01*
X11222930Y47565042D01*
X11277736Y47479999D01*
X11348017Y47407222D01*
X11431096Y47349481D01*
X11523807Y47308976D01*
X11622620Y47287251D01*
X11723771Y47285132D01*
X11823407Y47302700D01*
X11917733Y47339287D01*
X12003156Y47393498D01*
X12076423Y47463269D01*
X12134743Y47545943D01*
X12175894Y47638369D01*
X12198308Y47737028D01*
X12199922Y47852587D01*
X12199922Y46074587D01*
X12180271Y46173833D01*
X12141717Y46267372D01*
X12085728Y46351641D01*
X12014438Y46423431D01*
X11930562Y46480006D01*
X11837294Y46519212D01*
X11738187Y46539556D01*
X11637016Y46540262D01*
X11537635Y46521305D01*
X11443829Y46483404D01*
X11359171Y46428006D01*
X11286886Y46357219D01*
X11229726Y46273739D01*
X11189870Y46180747D01*
X11168835Y46081785D01*
X11167422Y45980622D01*
X11185686Y45881111D01*
X11222930Y45787042D01*
X11277736Y45701999D01*
X11348017Y45629222D01*
X11431096Y45571481D01*
X11523807Y45530976D01*
X11622620Y45509251D01*
X11723771Y45507132D01*
X11823407Y45524700D01*
X11917733Y45561287D01*
X12003156Y45615498D01*
X12076423Y45685269D01*
X12134743Y45767943D01*
X12175894Y45860369D01*
X12198308Y45959028D01*
X12199922Y46074587D01*
X12199922Y44113500D01*
X11052375Y44113500D01*
X10986500Y44047625D01*
X10986500Y43036500D01*
X12997625Y43036500D01*
X13063500Y43102375D01*
X13063500Y42597625D01*
X12997625Y42663500D01*
X10986500Y42663500D01*
X10986500Y41652375D01*
X11052375Y41586500D01*
X12774048Y41586500D01*
X12825953Y41586500D01*
X12876861Y41596626D01*
X12924814Y41616490D01*
X12967972Y41645327D01*
X13004674Y41682029D01*
X13033511Y41725186D01*
X13053374Y41773140D01*
X13063500Y41824048D01*
X13063500Y28808434D01*
X10613500Y26358434D01*
X10613500Y41652375D01*
X10613500Y42663500D01*
X10613500Y43036500D01*
X10613500Y44047625D01*
X10547625Y44113500D01*
X10421922Y44113500D01*
X10421922Y46074587D01*
X10421922Y47852587D01*
X10421922Y49376587D01*
X10402271Y49475833D01*
X10363717Y49569372D01*
X10307728Y49653641D01*
X10236438Y49725431D01*
X10152562Y49782006D01*
X10059294Y49821212D01*
X9960187Y49841556D01*
X9859016Y49842262D01*
X9759635Y49823305D01*
X9665829Y49785404D01*
X9581171Y49730006D01*
X9508886Y49659219D01*
X9451726Y49575739D01*
X9411870Y49482747D01*
X9390835Y49383785D01*
X9389422Y49282622D01*
X9407686Y49183111D01*
X9444930Y49089042D01*
X9499736Y49003999D01*
X9570017Y48931222D01*
X9653096Y48873481D01*
X9745807Y48832976D01*
X9844620Y48811251D01*
X9945771Y48809132D01*
X10045407Y48826700D01*
X10139733Y48863287D01*
X10225156Y48917498D01*
X10298423Y48987269D01*
X10356743Y49069943D01*
X10397894Y49162369D01*
X10420308Y49261028D01*
X10421922Y49376587D01*
X10421922Y47852587D01*
X10402271Y47951833D01*
X10363717Y48045372D01*
X10307728Y48129641D01*
X10236438Y48201431D01*
X10152562Y48258006D01*
X10059294Y48297212D01*
X9960187Y48317556D01*
X9859016Y48318262D01*
X9759635Y48299305D01*
X9665829Y48261404D01*
X9581171Y48206006D01*
X9508886Y48135219D01*
X9451726Y48051739D01*
X9411870Y47958747D01*
X9390835Y47859785D01*
X9389422Y47758622D01*
X9407686Y47659111D01*
X9444930Y47565042D01*
X9499736Y47479999D01*
X9570017Y47407222D01*
X9653096Y47349481D01*
X9745807Y47308976D01*
X9844620Y47287251D01*
X9945771Y47285132D01*
X10045407Y47302700D01*
X10139733Y47339287D01*
X10225156Y47393498D01*
X10298423Y47463269D01*
X10356743Y47545943D01*
X10397894Y47638369D01*
X10420308Y47737028D01*
X10421922Y47852587D01*
X10421922Y46074587D01*
X10402271Y46173833D01*
X10363717Y46267372D01*
X10307728Y46351641D01*
X10236438Y46423431D01*
X10152562Y46480006D01*
X10059294Y46519212D01*
X9960187Y46539556D01*
X9859016Y46540262D01*
X9759635Y46521305D01*
X9665829Y46483404D01*
X9581171Y46428006D01*
X9508886Y46357219D01*
X9451726Y46273739D01*
X9411870Y46180747D01*
X9390835Y46081785D01*
X9389422Y45980622D01*
X9407686Y45881111D01*
X9444930Y45787042D01*
X9499736Y45701999D01*
X9570017Y45629222D01*
X9653096Y45571481D01*
X9745807Y45530976D01*
X9844620Y45509251D01*
X9945771Y45507132D01*
X10045407Y45524700D01*
X10139733Y45561287D01*
X10225156Y45615498D01*
X10298423Y45685269D01*
X10356743Y45767943D01*
X10397894Y45860369D01*
X10420308Y45959028D01*
X10421922Y46074587D01*
X10421922Y44113500D01*
X9063500Y44113500D01*
X9063500Y45724047D01*
X9063500Y45775952D01*
X9063500Y47497625D01*
X9063500Y48002375D01*
X9063500Y49724048D01*
X9063500Y49775953D01*
X9053374Y49826861D01*
X9033510Y49874814D01*
X9004673Y49917972D01*
X8967971Y49954674D01*
X8924814Y49983511D01*
X8876860Y50003374D01*
X8825952Y50013500D01*
X8661500Y50013500D01*
X8661500Y52356047D01*
X8661500Y52407952D01*
X8661500Y52629625D01*
X8661500Y53134375D01*
X8661500Y53356048D01*
X8661500Y53407953D01*
X8651374Y53458861D01*
X8631510Y53506814D01*
X8602673Y53549972D01*
X8565971Y53586674D01*
X8522814Y53615511D01*
X8474860Y53635374D01*
X8423952Y53645500D01*
X8150375Y53645500D01*
X8084500Y53579625D01*
X8084500Y53068500D01*
X8595625Y53068500D01*
X8661500Y53134375D01*
X8661500Y52629625D01*
X8595625Y52695500D01*
X8084500Y52695500D01*
X8084500Y52184375D01*
X8150375Y52118500D01*
X8423952Y52118500D01*
X8474860Y52128626D01*
X8522814Y52148489D01*
X8565971Y52177326D01*
X8602673Y52214028D01*
X8631510Y52257186D01*
X8651374Y52305139D01*
X8661500Y52356047D01*
X8661500Y50013500D01*
X8052375Y50013500D01*
X7986500Y49947625D01*
X7986500Y47936500D01*
X8997625Y47936500D01*
X9063500Y48002375D01*
X9063500Y47497625D01*
X8997625Y47563500D01*
X7986500Y47563500D01*
X7986500Y45552375D01*
X8052375Y45486500D01*
X8825952Y45486500D01*
X8876860Y45496626D01*
X8924814Y45516489D01*
X8967971Y45545326D01*
X9004673Y45582028D01*
X9033510Y45625186D01*
X9053374Y45673139D01*
X9063500Y45724047D01*
X9063500Y44113500D01*
X8825952Y44113500D01*
X8774047Y44113500D01*
X8723139Y44103374D01*
X8675186Y44083510D01*
X8632028Y44054673D01*
X8595326Y44017971D01*
X8566489Y43974814D01*
X8546626Y43926860D01*
X8536500Y43875952D01*
X8536500Y43102375D01*
X8602375Y43036500D01*
X10613500Y43036500D01*
X10613500Y42663500D01*
X8602375Y42663500D01*
X8536500Y42597625D01*
X8536500Y41824048D01*
X8546626Y41773140D01*
X8566489Y41725186D01*
X8595326Y41682029D01*
X8632028Y41645327D01*
X8675186Y41616490D01*
X8723139Y41596626D01*
X8774047Y41586500D01*
X8825952Y41586500D01*
X10547625Y41586500D01*
X10613500Y41652375D01*
X10613500Y26358434D01*
X9475922Y25220856D01*
X9475922Y40950587D01*
X9456271Y41049833D01*
X9417717Y41143372D01*
X9361728Y41227641D01*
X9290438Y41299431D01*
X9206562Y41356006D01*
X9113294Y41395212D01*
X9014187Y41415556D01*
X8913016Y41416262D01*
X8813635Y41397305D01*
X8719829Y41359404D01*
X8635171Y41304006D01*
X8572771Y41242900D01*
X7711500Y41242900D01*
X7711500Y52184375D01*
X7711500Y52695500D01*
X7711500Y53068500D01*
X7711500Y53579625D01*
X7645625Y53645500D01*
X7627922Y53645500D01*
X7627922Y55980587D01*
X7608271Y56079833D01*
X7569717Y56173372D01*
X7513728Y56257641D01*
X7442438Y56329431D01*
X7358562Y56386006D01*
X7265294Y56425212D01*
X7166187Y56445556D01*
X7065016Y56446262D01*
X6965635Y56427305D01*
X6871829Y56389404D01*
X6787171Y56334006D01*
X6714886Y56263219D01*
X6657726Y56179739D01*
X6617870Y56086747D01*
X6596835Y55987785D01*
X6595422Y55886622D01*
X6613686Y55787111D01*
X6650930Y55693042D01*
X6705736Y55607999D01*
X6776017Y55535222D01*
X6859096Y55477481D01*
X6951807Y55436976D01*
X7050620Y55415251D01*
X7151771Y55413132D01*
X7251407Y55430700D01*
X7345733Y55467287D01*
X7431156Y55521498D01*
X7504423Y55591269D01*
X7562743Y55673943D01*
X7603894Y55766369D01*
X7626308Y55865028D01*
X7627922Y55980587D01*
X7627922Y53645500D01*
X7372048Y53645500D01*
X7321140Y53635374D01*
X7273186Y53615511D01*
X7230029Y53586674D01*
X7193327Y53549972D01*
X7164490Y53506814D01*
X7144626Y53458861D01*
X7134500Y53407953D01*
X7134500Y53356048D01*
X7134500Y53134375D01*
X7200375Y53068500D01*
X7711500Y53068500D01*
X7711500Y52695500D01*
X7200375Y52695500D01*
X7134500Y52629625D01*
X7134500Y52407952D01*
X7134500Y52356047D01*
X7144626Y52305139D01*
X7164490Y52257186D01*
X7193327Y52214028D01*
X7230029Y52177326D01*
X7273186Y52148489D01*
X7321140Y52128626D01*
X7372048Y52118500D01*
X7645625Y52118500D01*
X7711500Y52184375D01*
X7711500Y41242900D01*
X7613500Y41242900D01*
X7613500Y45552375D01*
X7613500Y47563500D01*
X7613500Y47936500D01*
X7613500Y49947625D01*
X7547625Y50013500D01*
X6774048Y50013500D01*
X6723140Y50003374D01*
X6675186Y49983511D01*
X6632029Y49954674D01*
X6595327Y49917972D01*
X6566490Y49874814D01*
X6546626Y49826861D01*
X6536500Y49775953D01*
X6536500Y49724048D01*
X6536500Y48002375D01*
X6602375Y47936500D01*
X7613500Y47936500D01*
X7613500Y47563500D01*
X6602375Y47563500D01*
X6536500Y47497625D01*
X6536500Y45775952D01*
X6536500Y45724047D01*
X6546626Y45673139D01*
X6566490Y45625186D01*
X6595327Y45582028D01*
X6632029Y45545326D01*
X6675186Y45516489D01*
X6723140Y45496626D01*
X6774048Y45486500D01*
X7547625Y45486500D01*
X7613500Y45552375D01*
X7613500Y41242900D01*
X7610000Y41242900D01*
X7578459Y41239808D01*
X7546924Y41237048D01*
X7545197Y41236547D01*
X7543397Y41236370D01*
X7513067Y41227213D01*
X7482658Y41218379D01*
X7481052Y41217547D01*
X7479331Y41217027D01*
X7451428Y41202192D01*
X7423243Y41187581D01*
X7421831Y41186455D01*
X7420242Y41185609D01*
X7395724Y41165614D01*
X7370942Y41145829D01*
X7368431Y41143354D01*
X7368381Y41143312D01*
X7368341Y41143265D01*
X7367533Y41142467D01*
X5947966Y39722900D01*
X5394095Y39722900D01*
X5523047Y39772917D01*
X5684969Y39875675D01*
X5823848Y40007928D01*
X5934394Y40164637D01*
X6012396Y40339833D01*
X6054884Y40526844D01*
X6057942Y40745888D01*
X6020693Y40934012D01*
X5947613Y41111318D01*
X5849922Y41258354D01*
X5849922Y53694587D01*
X5849922Y55980587D01*
X5849922Y58520587D01*
X5830271Y58619833D01*
X5791717Y58713372D01*
X5735728Y58797641D01*
X5664438Y58869431D01*
X5580562Y58926006D01*
X5487294Y58965212D01*
X5388187Y58985556D01*
X5287016Y58986262D01*
X5187635Y58967305D01*
X5093829Y58929404D01*
X5009171Y58874006D01*
X4936886Y58803219D01*
X4879726Y58719739D01*
X4839870Y58626747D01*
X4818835Y58527785D01*
X4817422Y58426622D01*
X4835686Y58327111D01*
X4872930Y58233042D01*
X4927736Y58147999D01*
X4998017Y58075222D01*
X5081096Y58017481D01*
X5173807Y57976976D01*
X5272620Y57955251D01*
X5373771Y57953132D01*
X5473407Y57970700D01*
X5567733Y58007287D01*
X5653156Y58061498D01*
X5726423Y58131269D01*
X5784743Y58213943D01*
X5825894Y58306369D01*
X5848308Y58405028D01*
X5849922Y58520587D01*
X5849922Y55980587D01*
X5830271Y56079833D01*
X5791717Y56173372D01*
X5735728Y56257641D01*
X5664438Y56329431D01*
X5580562Y56386006D01*
X5487294Y56425212D01*
X5388187Y56445556D01*
X5287016Y56446262D01*
X5187635Y56427305D01*
X5093829Y56389404D01*
X5009171Y56334006D01*
X4936886Y56263219D01*
X4879726Y56179739D01*
X4839870Y56086747D01*
X4818835Y55987785D01*
X4817422Y55886622D01*
X4835686Y55787111D01*
X4872930Y55693042D01*
X4927736Y55607999D01*
X4998017Y55535222D01*
X5081096Y55477481D01*
X5173807Y55436976D01*
X5272620Y55415251D01*
X5373771Y55413132D01*
X5473407Y55430700D01*
X5567733Y55467287D01*
X5653156Y55521498D01*
X5726423Y55591269D01*
X5784743Y55673943D01*
X5825894Y55766369D01*
X5848308Y55865028D01*
X5849922Y55980587D01*
X5849922Y53694587D01*
X5830271Y53793833D01*
X5791717Y53887372D01*
X5735728Y53971641D01*
X5664438Y54043431D01*
X5580562Y54100006D01*
X5487294Y54139212D01*
X5388187Y54159556D01*
X5287016Y54160262D01*
X5187635Y54141305D01*
X5093829Y54103404D01*
X5009171Y54048006D01*
X4936886Y53977219D01*
X4879726Y53893739D01*
X4839870Y53800747D01*
X4818835Y53701785D01*
X4817422Y53600622D01*
X4835686Y53501111D01*
X4872930Y53407042D01*
X4927736Y53321999D01*
X4998017Y53249222D01*
X5081096Y53191481D01*
X5173807Y53150976D01*
X5272620Y53129251D01*
X5373771Y53127132D01*
X5473407Y53144700D01*
X5567733Y53181287D01*
X5653156Y53235498D01*
X5726423Y53305269D01*
X5784743Y53387943D01*
X5825894Y53480369D01*
X5848308Y53579028D01*
X5849922Y53694587D01*
X5849922Y41258354D01*
X5841485Y41271052D01*
X5706353Y41407131D01*
X5547364Y41514371D01*
X5370572Y41588687D01*
X5182713Y41627249D01*
X4990942Y41628588D01*
X4802562Y41592653D01*
X4624750Y41520812D01*
X4464279Y41415802D01*
X4343477Y41297505D01*
X4343477Y54796833D01*
X4274784Y55143762D01*
X4140012Y55470742D01*
X3944297Y55765317D01*
X3695093Y56016267D01*
X3401891Y56214034D01*
X3075860Y56351085D01*
X2729419Y56422199D01*
X2375762Y56424668D01*
X2028362Y56358398D01*
X1700449Y56225913D01*
X1404515Y56032259D01*
X1151831Y55784812D01*
X952022Y55492998D01*
X812698Y55167932D01*
X739167Y54821996D01*
X734229Y54468365D01*
X798073Y54120510D01*
X928265Y53791681D01*
X1119849Y53494402D01*
X1365525Y53239997D01*
X1655937Y53038155D01*
X1980022Y52896566D01*
X2325437Y52820621D01*
X2679025Y52813215D01*
X3027317Y52874628D01*
X3357047Y53002522D01*
X3655656Y53192025D01*
X3911770Y53435920D01*
X4115634Y53724915D01*
X4259483Y54048004D01*
X4337837Y54392880D01*
X4343477Y54796833D01*
X4343477Y41297505D01*
X4327260Y41281624D01*
X4218913Y41123387D01*
X4143364Y40947118D01*
X4103492Y40759533D01*
X4100814Y40567775D01*
X4135433Y40379150D01*
X4206031Y40200841D01*
X4309918Y40039640D01*
X4443137Y39901688D01*
X4600613Y39792239D01*
X4759322Y39722900D01*
X4040000Y39722900D01*
X4008464Y39719809D01*
X3976923Y39717048D01*
X3975196Y39716547D01*
X3973397Y39716370D01*
X3943079Y39707217D01*
X3912658Y39698379D01*
X3911052Y39697547D01*
X3909331Y39697027D01*
X3881428Y39682192D01*
X3853243Y39667581D01*
X3851831Y39666455D01*
X3850242Y39665609D01*
X3825724Y39645614D01*
X3800942Y39625829D01*
X3798431Y39623354D01*
X3798381Y39623312D01*
X3798341Y39623265D01*
X3797533Y39622467D01*
X3597533Y39422467D01*
X3577412Y39397972D01*
X3557069Y39373727D01*
X3556202Y39372152D01*
X3555055Y39370754D01*
X3540074Y39342816D01*
X3524828Y39315083D01*
X3524282Y39313363D01*
X3523431Y39311775D01*
X3517942Y39293824D01*
X3517942Y40745888D01*
X3480693Y40934012D01*
X3407613Y41111318D01*
X3301485Y41271052D01*
X3166353Y41407131D01*
X3007364Y41514371D01*
X2830572Y41588687D01*
X2642713Y41627249D01*
X2450942Y41628588D01*
X2262562Y41592653D01*
X2084750Y41520812D01*
X1924279Y41415802D01*
X1787260Y41281624D01*
X1678913Y41123387D01*
X1603364Y40947118D01*
X1563492Y40759533D01*
X1560814Y40567775D01*
X1595433Y40379150D01*
X1666031Y40200841D01*
X1769918Y40039640D01*
X1903137Y39901688D01*
X2060613Y39792239D01*
X2236350Y39715461D01*
X2423652Y39674280D01*
X2615387Y39670264D01*
X2804249Y39703566D01*
X2983047Y39772917D01*
X3144969Y39875675D01*
X3283848Y40007928D01*
X3394394Y40164637D01*
X3472396Y40339833D01*
X3514884Y40526844D01*
X3517942Y40745888D01*
X3517942Y39293824D01*
X3514175Y39281503D01*
X3504593Y39251293D01*
X3504391Y39249501D01*
X3503865Y39247777D01*
X3500666Y39216291D01*
X3497133Y39184788D01*
X3497108Y39181264D01*
X3497102Y39181197D01*
X3497107Y39181136D01*
X3497100Y39180000D01*
X3497100Y38311150D01*
X3480693Y38394012D01*
X3407613Y38571318D01*
X3301485Y38731052D01*
X3166353Y38867131D01*
X3007364Y38974371D01*
X2830572Y39048687D01*
X2642713Y39087249D01*
X2450942Y39088588D01*
X2262562Y39052653D01*
X2084750Y38980812D01*
X1924279Y38875802D01*
X1787260Y38741624D01*
X1678913Y38583387D01*
X1603364Y38407118D01*
X1563492Y38219533D01*
X1560814Y38027775D01*
X1595433Y37839150D01*
X1666031Y37660841D01*
X1769918Y37499640D01*
X1903137Y37361688D01*
X2060613Y37252239D01*
X2236350Y37175461D01*
X2423652Y37134280D01*
X2615387Y37130264D01*
X2804249Y37163566D01*
X2983047Y37232917D01*
X3144969Y37335675D01*
X3283848Y37467928D01*
X3394394Y37624637D01*
X3472396Y37799833D01*
X3497100Y37908568D01*
X3497100Y37012034D01*
X2945459Y36460394D01*
X2830572Y36508687D01*
X2642713Y36547249D01*
X2450942Y36548588D01*
X2262562Y36512653D01*
X2084750Y36440812D01*
X1924279Y36335802D01*
X1787260Y36201624D01*
X1678913Y36043387D01*
X1603364Y35867118D01*
X1563492Y35679533D01*
X1560814Y35487775D01*
X1595433Y35299150D01*
X1666031Y35120841D01*
X1769918Y34959640D01*
X1903137Y34821688D01*
X2060613Y34712239D01*
X2236350Y34635461D01*
X2423652Y34594280D01*
X2615387Y34590264D01*
X2804249Y34623566D01*
X2983047Y34692917D01*
X3144969Y34795675D01*
X3283848Y34927928D01*
X3394394Y35084637D01*
X3457822Y35227100D01*
X4163959Y35227100D01*
X4206031Y35120841D01*
X4309918Y34959640D01*
X4443137Y34821688D01*
X4600613Y34712239D01*
X4776350Y34635461D01*
X4963652Y34594280D01*
X5155387Y34590264D01*
X5344249Y34623566D01*
X5523047Y34692917D01*
X5684969Y34795675D01*
X5823848Y34927928D01*
X5934394Y35084637D01*
X6012396Y35259833D01*
X6054884Y35446844D01*
X6057942Y35665888D01*
X6020693Y35854012D01*
X5947613Y36031318D01*
X5841485Y36191052D01*
X5706353Y36327131D01*
X5547364Y36434371D01*
X5370572Y36508687D01*
X5182713Y36547249D01*
X4990942Y36548588D01*
X4802562Y36512653D01*
X4624750Y36440812D01*
X4464279Y36335802D01*
X4327260Y36201624D01*
X4218913Y36043387D01*
X4162986Y35912900D01*
X3456421Y35912900D01*
X3430565Y35975632D01*
X4082467Y36627533D01*
X4102587Y36652029D01*
X4122931Y36676273D01*
X4123797Y36677849D01*
X4124945Y36679246D01*
X4139925Y36707185D01*
X4155172Y36734917D01*
X4155717Y36736638D01*
X4156569Y36738225D01*
X4165824Y36768498D01*
X4175407Y36798707D01*
X4175608Y36800500D01*
X4176135Y36802223D01*
X4179333Y36833710D01*
X4182867Y36865212D01*
X4182891Y36868737D01*
X4182898Y36868803D01*
X4182892Y36868865D01*
X4182900Y36870000D01*
X4182900Y37719263D01*
X4206031Y37660841D01*
X4309918Y37499640D01*
X4443137Y37361688D01*
X4600613Y37252239D01*
X4776350Y37175461D01*
X4963652Y37134280D01*
X5155387Y37130264D01*
X5344249Y37163566D01*
X5523047Y37232917D01*
X5684969Y37335675D01*
X5823848Y37467928D01*
X5900507Y37576600D01*
X7369058Y37576600D01*
X7462829Y37482830D01*
X7543272Y37416753D01*
X7635017Y37367560D01*
X7734569Y37337124D01*
X7838138Y37326603D01*
X7941778Y37336400D01*
X8041540Y37366141D01*
X8133626Y37414693D01*
X8214528Y37480205D01*
X8281164Y37560185D01*
X8330997Y37651584D01*
X8362127Y37750922D01*
X8373370Y37854414D01*
X8364297Y37958121D01*
X8335254Y38058088D01*
X8287347Y38150511D01*
X8222400Y38231868D01*
X8217170Y38237171D01*
X7967171Y38487171D01*
X7929109Y38518435D01*
X7891353Y38550116D01*
X7888891Y38551470D01*
X7886727Y38553247D01*
X7843370Y38576495D01*
X7800129Y38600267D01*
X7797451Y38601117D01*
X7794983Y38602440D01*
X7747929Y38616826D01*
X7700900Y38631744D01*
X7698108Y38632058D01*
X7695430Y38632876D01*
X7646434Y38637854D01*
X7597447Y38643348D01*
X7591967Y38643387D01*
X7591862Y38643397D01*
X7591763Y38643388D01*
X7590000Y38643400D01*
X5899721Y38643400D01*
X5841485Y38731052D01*
X5706353Y38867131D01*
X5547364Y38974371D01*
X5398136Y39037100D01*
X6090000Y39037100D01*
X6121535Y39040192D01*
X6153077Y39042952D01*
X6154803Y39043454D01*
X6156603Y39043630D01*
X6186966Y39052798D01*
X6217342Y39061622D01*
X6218942Y39062452D01*
X6220669Y39062973D01*
X6248646Y39077849D01*
X6276757Y39092420D01*
X6278165Y39093545D01*
X6279758Y39094391D01*
X6304302Y39114410D01*
X6329058Y39134171D01*
X6331568Y39136647D01*
X6331619Y39136688D01*
X6331658Y39136736D01*
X6332467Y39137533D01*
X7752034Y40557100D01*
X8573918Y40557100D01*
X8624017Y40505222D01*
X8707096Y40447481D01*
X8799807Y40406976D01*
X8898620Y40385251D01*
X8999771Y40383132D01*
X9099407Y40400700D01*
X9193733Y40437287D01*
X9279156Y40491498D01*
X9352423Y40561269D01*
X9410743Y40643943D01*
X9451894Y40736369D01*
X9474308Y40835028D01*
X9475922Y40950587D01*
X9475922Y25220856D01*
X6108981Y21853915D01*
X6108981Y25354763D01*
X6108981Y27894763D01*
X6099985Y28096568D01*
X6057942Y28267708D01*
X6057942Y30585888D01*
X6057942Y33125888D01*
X6020693Y33314012D01*
X5947613Y33491318D01*
X5841485Y33651052D01*
X5706353Y33787131D01*
X5547364Y33894371D01*
X5370572Y33968687D01*
X5182713Y34007249D01*
X4990942Y34008588D01*
X4802562Y33972653D01*
X4624750Y33900812D01*
X4464279Y33795802D01*
X4327260Y33661624D01*
X4218913Y33503387D01*
X4143364Y33327118D01*
X4103492Y33139533D01*
X4100814Y32947775D01*
X4135433Y32759150D01*
X4206031Y32580841D01*
X4309918Y32419640D01*
X4443137Y32281688D01*
X4600613Y32172239D01*
X4776350Y32095461D01*
X4963652Y32054280D01*
X5155387Y32050264D01*
X5344249Y32083566D01*
X5523047Y32152917D01*
X5684969Y32255675D01*
X5823848Y32387928D01*
X5934394Y32544637D01*
X6012396Y32719833D01*
X6054884Y32906844D01*
X6057942Y33125888D01*
X6057942Y30585888D01*
X6020693Y30774012D01*
X5947613Y30951318D01*
X5841485Y31111052D01*
X5706353Y31247131D01*
X5547364Y31354371D01*
X5370572Y31428687D01*
X5182713Y31467249D01*
X4990942Y31468588D01*
X4802562Y31432653D01*
X4624750Y31360812D01*
X4464279Y31255802D01*
X4327260Y31121624D01*
X4218913Y30963387D01*
X4143364Y30787118D01*
X4103492Y30599533D01*
X4100814Y30407775D01*
X4135433Y30219150D01*
X4206031Y30040841D01*
X4309918Y29879640D01*
X4443137Y29741688D01*
X4600613Y29632239D01*
X4776350Y29555461D01*
X4963652Y29514280D01*
X5155387Y29510264D01*
X5344249Y29543566D01*
X5523047Y29612917D01*
X5684969Y29715675D01*
X5823848Y29847928D01*
X5934394Y30004637D01*
X6012396Y30179833D01*
X6054884Y30366844D01*
X6057942Y30585888D01*
X6057942Y28267708D01*
X6051792Y28292742D01*
X6009515Y28394806D01*
X5881071Y28487321D01*
X5617321Y28223571D01*
X5617321Y28751071D01*
X5524806Y28879515D01*
X5334920Y28948433D01*
X5135237Y28978981D01*
X4933432Y28969985D01*
X4737258Y28921792D01*
X4635194Y28879515D01*
X4542679Y28751071D01*
X5080000Y28213751D01*
X5617321Y28751071D01*
X5617321Y28223571D01*
X5343751Y27950000D01*
X5881071Y27412679D01*
X6009515Y27505194D01*
X6078433Y27695080D01*
X6108981Y27894763D01*
X6108981Y25354763D01*
X6099985Y25556568D01*
X6051792Y25752742D01*
X6009515Y25854806D01*
X5881071Y25947321D01*
X5617321Y25683571D01*
X5617321Y26211071D01*
X5617321Y27148929D01*
X5080000Y27686249D01*
X4816249Y27422499D01*
X4816249Y27950000D01*
X4278929Y28487321D01*
X4150485Y28394806D01*
X4081567Y28204920D01*
X4051019Y28005237D01*
X4060015Y27803432D01*
X4108208Y27607258D01*
X4150485Y27505194D01*
X4278929Y27412679D01*
X4816249Y27950000D01*
X4816249Y27422499D01*
X4542679Y27148929D01*
X4635194Y27020485D01*
X4825080Y26951567D01*
X5024763Y26921019D01*
X5226568Y26930015D01*
X5422742Y26978208D01*
X5524806Y27020485D01*
X5617321Y27148929D01*
X5617321Y26211071D01*
X5524806Y26339515D01*
X5334920Y26408433D01*
X5135237Y26438981D01*
X4933432Y26429985D01*
X4737258Y26381792D01*
X4635194Y26339515D01*
X4542679Y26211071D01*
X5080000Y25673751D01*
X5617321Y26211071D01*
X5617321Y25683571D01*
X5343751Y25410000D01*
X5881071Y24872679D01*
X6009515Y24965194D01*
X6078433Y25155080D01*
X6108981Y25354763D01*
X6108981Y21853915D01*
X6058945Y21803879D01*
X6058945Y22108000D01*
X6058945Y23632000D01*
X6056097Y23667035D01*
X6037917Y23725174D01*
X6004291Y23775967D01*
X5957869Y23815410D01*
X5902312Y23840392D01*
X5842000Y23848945D01*
X5617321Y23848945D01*
X5617321Y24608929D01*
X5080000Y25146249D01*
X4816249Y24882499D01*
X4816249Y25410000D01*
X4278929Y25947321D01*
X4150485Y25854806D01*
X4081567Y25664920D01*
X4051019Y25465237D01*
X4060015Y25263432D01*
X4108208Y25067258D01*
X4150485Y24965194D01*
X4278929Y24872679D01*
X4816249Y25410000D01*
X4816249Y24882499D01*
X4542679Y24608929D01*
X4635194Y24480485D01*
X4825080Y24411567D01*
X5024763Y24381019D01*
X5226568Y24390015D01*
X5422742Y24438208D01*
X5524806Y24480485D01*
X5617321Y24608929D01*
X5617321Y23848945D01*
X4318000Y23848945D01*
X4282965Y23846097D01*
X4224826Y23827917D01*
X4174033Y23794291D01*
X4134590Y23747869D01*
X4109608Y23692312D01*
X4101055Y23632000D01*
X4101055Y23403400D01*
X3568981Y23403400D01*
X3568981Y25354763D01*
X3568981Y27894763D01*
X3559985Y28096568D01*
X3511792Y28292742D01*
X3469515Y28394806D01*
X3341071Y28487321D01*
X3077321Y28223571D01*
X3077321Y28751071D01*
X2984806Y28879515D01*
X2794920Y28948433D01*
X2595237Y28978981D01*
X2393432Y28969985D01*
X2197258Y28921792D01*
X2095194Y28879515D01*
X2002679Y28751071D01*
X2540000Y28213751D01*
X3077321Y28751071D01*
X3077321Y28223571D01*
X2803751Y27950000D01*
X3341071Y27412679D01*
X3469515Y27505194D01*
X3538433Y27695080D01*
X3568981Y27894763D01*
X3568981Y25354763D01*
X3559985Y25556568D01*
X3511792Y25752742D01*
X3469515Y25854806D01*
X3341071Y25947321D01*
X3077321Y25683571D01*
X3077321Y26211071D01*
X3077321Y27148929D01*
X2540000Y27686249D01*
X2276249Y27422499D01*
X2276249Y27950000D01*
X1738929Y28487321D01*
X1610485Y28394806D01*
X1541567Y28204920D01*
X1511019Y28005237D01*
X1520015Y27803432D01*
X1568208Y27607258D01*
X1610485Y27505194D01*
X1738929Y27412679D01*
X2276249Y27950000D01*
X2276249Y27422499D01*
X2002679Y27148929D01*
X2095194Y27020485D01*
X2285080Y26951567D01*
X2484763Y26921019D01*
X2686568Y26930015D01*
X2882742Y26978208D01*
X2984806Y27020485D01*
X3077321Y27148929D01*
X3077321Y26211071D01*
X2984806Y26339515D01*
X2794920Y26408433D01*
X2595237Y26438981D01*
X2393432Y26429985D01*
X2197258Y26381792D01*
X2095194Y26339515D01*
X2002679Y26211071D01*
X2540000Y25673751D01*
X3077321Y26211071D01*
X3077321Y25683571D01*
X2803751Y25410000D01*
X3341071Y24872679D01*
X3469515Y24965194D01*
X3538433Y25155080D01*
X3568981Y25354763D01*
X3568981Y23403400D01*
X3518945Y23403400D01*
X3518945Y23632000D01*
X3516097Y23667035D01*
X3497917Y23725174D01*
X3464291Y23775967D01*
X3417869Y23815410D01*
X3362312Y23840392D01*
X3302000Y23848945D01*
X3077321Y23848945D01*
X3077321Y24608929D01*
X2540000Y25146249D01*
X2276249Y24882499D01*
X2276249Y25410000D01*
X1738929Y25947321D01*
X1610485Y25854806D01*
X1541567Y25664920D01*
X1511019Y25465237D01*
X1520015Y25263432D01*
X1568208Y25067258D01*
X1610485Y24965194D01*
X1738929Y24872679D01*
X2276249Y25410000D01*
X2276249Y24882499D01*
X2002679Y24608929D01*
X2095194Y24480485D01*
X2285080Y24411567D01*
X2484763Y24381019D01*
X2686568Y24390015D01*
X2882742Y24438208D01*
X2984806Y24480485D01*
X3077321Y24608929D01*
X3077321Y23848945D01*
X1778000Y23848945D01*
X1742965Y23846097D01*
X1684826Y23827917D01*
X1634033Y23794291D01*
X1594590Y23747869D01*
X1569608Y23692312D01*
X1561055Y23632000D01*
X1561055Y22108000D01*
X1563903Y22072965D01*
X1582083Y22014826D01*
X1615709Y21964033D01*
X1662131Y21924590D01*
X1717688Y21899608D01*
X1778000Y21891055D01*
X3302000Y21891055D01*
X3337035Y21893903D01*
X3395174Y21912083D01*
X3445967Y21945709D01*
X3485410Y21992131D01*
X3510392Y22047688D01*
X3518945Y22108000D01*
X3518945Y22336600D01*
X4101055Y22336600D01*
X4101055Y22108000D01*
X4103903Y22072965D01*
X4122083Y22014826D01*
X4155709Y21964033D01*
X4202131Y21924590D01*
X4257688Y21899608D01*
X4318000Y21891055D01*
X5842000Y21891055D01*
X5877035Y21893903D01*
X5935174Y21912083D01*
X5985967Y21945709D01*
X6025410Y21992131D01*
X6050392Y22047688D01*
X6058945Y22108000D01*
X6058945Y21803879D01*
X5457966Y21202900D01*
X2940000Y21202900D01*
X2908423Y21199805D01*
X2876923Y21197048D01*
X2875196Y21196547D01*
X2873397Y21196370D01*
X2843033Y21187203D01*
X2812658Y21178378D01*
X2811057Y21177549D01*
X2809331Y21177027D01*
X2781353Y21162152D01*
X2753243Y21147580D01*
X2751834Y21146456D01*
X2750242Y21145609D01*
X2725697Y21125591D01*
X2700942Y21105829D01*
X2698431Y21103354D01*
X2698381Y21103312D01*
X2698341Y21103265D01*
X2697533Y21102467D01*
X932900Y19337834D01*
X932900Y28397966D01*
X2020468Y29485534D01*
X2134773Y29599840D01*
X2236350Y29555461D01*
X2423652Y29514280D01*
X2615387Y29510264D01*
X2804249Y29543566D01*
X2983047Y29612917D01*
X3144969Y29715675D01*
X3283848Y29847928D01*
X3394394Y30004637D01*
X3472396Y30179833D01*
X3514884Y30366844D01*
X3517942Y30585888D01*
X3517942Y33125888D01*
X3480693Y33314012D01*
X3407613Y33491318D01*
X3301485Y33651052D01*
X3166353Y33787131D01*
X3007364Y33894371D01*
X2830572Y33968687D01*
X2642713Y34007249D01*
X2450942Y34008588D01*
X2262562Y33972653D01*
X2084750Y33900812D01*
X1924279Y33795802D01*
X1787260Y33661624D01*
X1678913Y33503387D01*
X1603364Y33327118D01*
X1563492Y33139533D01*
X1560814Y32947775D01*
X1595433Y32759150D01*
X1666031Y32580841D01*
X1769918Y32419640D01*
X1903137Y32281688D01*
X2060613Y32172239D01*
X2236350Y32095461D01*
X2423652Y32054280D01*
X2615387Y32050264D01*
X2804249Y32083566D01*
X2983047Y32152917D01*
X3144969Y32255675D01*
X3283848Y32387928D01*
X3394394Y32544637D01*
X3472396Y32719833D01*
X3514884Y32906844D01*
X3517942Y33125888D01*
X3517942Y30585888D01*
X3480693Y30774012D01*
X3407613Y30951318D01*
X3301485Y31111052D01*
X3166353Y31247131D01*
X3007364Y31354371D01*
X2830572Y31428687D01*
X2642713Y31467249D01*
X2450942Y31468588D01*
X2262562Y31432653D01*
X2084750Y31360812D01*
X1924279Y31255802D01*
X1787260Y31121624D01*
X1678913Y30963387D01*
X1603364Y30787118D01*
X1563492Y30599533D01*
X1560814Y30407775D01*
X1595433Y30219150D01*
X1648977Y30083912D01*
X1535534Y29970468D01*
X347533Y28782467D01*
X327412Y28757972D01*
X307069Y28733727D01*
X306202Y28732152D01*
X305055Y28730754D01*
X290074Y28702816D01*
X274828Y28675083D01*
X274282Y28673363D01*
X273431Y28671775D01*
X265500Y28645834D01*
X265500Y68324500D01*
X7801021Y68324500D01*
X7796603Y68322152D01*
X7768493Y68307580D01*
X7767084Y68306456D01*
X7765492Y68305609D01*
X7740947Y68285591D01*
X7716192Y68265829D01*
X7713681Y68263354D01*
X7713631Y68263312D01*
X7713591Y68263265D01*
X7712783Y68262467D01*
X6835313Y67384997D01*
X6815192Y67360502D01*
X6794849Y67336257D01*
X6793982Y67334682D01*
X6792835Y67333284D01*
X6777854Y67305346D01*
X6762608Y67277613D01*
X6762062Y67275893D01*
X6761211Y67274305D01*
X6751955Y67244033D01*
X6742373Y67213823D01*
X6742171Y67212031D01*
X6741645Y67210307D01*
X6738446Y67178821D01*
X6734913Y67147318D01*
X6734888Y67143794D01*
X6734882Y67143727D01*
X6734887Y67143666D01*
X6734880Y67142530D01*
X6734880Y60456970D01*
X6737971Y60425435D01*
X6740732Y60393893D01*
X6741233Y60392167D01*
X6741410Y60390367D01*
X6750577Y60360004D01*
X6759402Y60329628D01*
X6760231Y60328028D01*
X6760753Y60326301D01*
X6775628Y60298324D01*
X6790200Y60270213D01*
X6791324Y60268805D01*
X6792171Y60267212D01*
X6812189Y60242668D01*
X6831951Y60217912D01*
X6834426Y60215402D01*
X6834468Y60215351D01*
X6834515Y60215312D01*
X6835313Y60214503D01*
X9166861Y57882955D01*
X9154187Y57885556D01*
X9053016Y57886262D01*
X8953635Y57867305D01*
X8859829Y57829404D01*
X8775171Y57774006D01*
X8702886Y57703219D01*
X8645726Y57619739D01*
X8605870Y57526747D01*
X8587320Y57439481D01*
X8585717Y57443372D01*
X8529728Y57527641D01*
X8458438Y57599431D01*
X8374562Y57656006D01*
X8281294Y57695212D01*
X8182187Y57715556D01*
X8081016Y57716262D01*
X7981635Y57697305D01*
X7887829Y57659404D01*
X7803171Y57604006D01*
X7730886Y57533219D01*
X7673726Y57449739D01*
X7633870Y57356747D01*
X7627922Y57328764D01*
X7627922Y58520587D01*
X7608271Y58619833D01*
X7569717Y58713372D01*
X7513728Y58797641D01*
X7442438Y58869431D01*
X7358562Y58926006D01*
X7265294Y58965212D01*
X7166187Y58985556D01*
X7065016Y58986262D01*
X6965635Y58967305D01*
X6871829Y58929404D01*
X6787171Y58874006D01*
X6714886Y58803219D01*
X6657726Y58719739D01*
X6617870Y58626747D01*
X6596835Y58527785D01*
X6595422Y58426622D01*
X6613686Y58327111D01*
X6650930Y58233042D01*
X6705736Y58147999D01*
X6776017Y58075222D01*
X6859096Y58017481D01*
X6951807Y57976976D01*
X7050620Y57955251D01*
X7151771Y57953132D01*
X7251407Y57970700D01*
X7345733Y58007287D01*
X7431156Y58061498D01*
X7504423Y58131269D01*
X7562743Y58213943D01*
X7603894Y58306369D01*
X7626308Y58405028D01*
X7627922Y58520587D01*
X7627922Y57328764D01*
X7612835Y57257785D01*
X7611422Y57156622D01*
X7629686Y57057111D01*
X7666930Y56963042D01*
X7721736Y56877999D01*
X7792017Y56805222D01*
X7875096Y56747481D01*
X7967807Y56706976D01*
X8066620Y56685251D01*
X8167771Y56683132D01*
X8267407Y56700700D01*
X8361733Y56737287D01*
X8447156Y56791498D01*
X8520423Y56861269D01*
X8578743Y56943943D01*
X8619894Y57036369D01*
X8641093Y57129685D01*
X8693736Y57047999D01*
X8757100Y56982385D01*
X8757100Y55920000D01*
X8760191Y55888465D01*
X8762952Y55856923D01*
X8763453Y55855197D01*
X8763630Y55853397D01*
X8772797Y55823034D01*
X8781622Y55792658D01*
X8782451Y55791058D01*
X8782973Y55789331D01*
X8797848Y55761354D01*
X8812420Y55733243D01*
X8813544Y55731835D01*
X8814391Y55730242D01*
X8834409Y55705698D01*
X8854171Y55680942D01*
X8856646Y55678432D01*
X8856688Y55678381D01*
X8856735Y55678342D01*
X8857533Y55677533D01*
X10555100Y53979966D01*
X10555100Y53598945D01*
X10398000Y53598945D01*
X10362965Y53596097D01*
X10304826Y53577917D01*
X10254033Y53544291D01*
X10214590Y53497869D01*
X10189608Y53442312D01*
X10181055Y53382000D01*
X10181055Y52382000D01*
X10183903Y52346965D01*
X10202083Y52288826D01*
X10235709Y52238033D01*
X10282131Y52198590D01*
X10337688Y52173608D01*
X10398000Y52165055D01*
X11398000Y52165055D01*
X11433035Y52167903D01*
X11491174Y52186083D01*
X11541967Y52219709D01*
X11581410Y52266131D01*
X11606392Y52321688D01*
X11614945Y52382000D01*
X11614945Y53382000D01*
X11612097Y53417035D01*
X11593917Y53475174D01*
X11560291Y53525967D01*
X11513869Y53565410D01*
X11458312Y53590392D01*
X11398000Y53598945D01*
X11240900Y53598945D01*
X11240900Y54122000D01*
X11237808Y54153536D01*
X11235048Y54185077D01*
X11234546Y54186804D01*
X11234370Y54188603D01*
X11225202Y54218967D01*
X11216378Y54249342D01*
X11215548Y54250943D01*
X11215027Y54252669D01*
X11200151Y54280647D01*
X11185580Y54308757D01*
X11184455Y54310166D01*
X11183609Y54311758D01*
X11163590Y54336303D01*
X11143829Y54361058D01*
X11141353Y54363569D01*
X11141312Y54363619D01*
X11141264Y54363659D01*
X11140467Y54364467D01*
X9442900Y56062034D01*
X9442900Y56984110D01*
X9492423Y57031269D01*
X9550743Y57113943D01*
X9591894Y57206369D01*
X9614308Y57305028D01*
X9615922Y57420587D01*
X9612636Y57437180D01*
X15126915Y51922900D01*
X10202034Y51922900D01*
X9951314Y52173620D01*
X9991174Y52186083D01*
X10041967Y52219709D01*
X10081410Y52266131D01*
X10106392Y52321688D01*
X10114945Y52382000D01*
X10114945Y53382000D01*
X10112097Y53417035D01*
X10093917Y53475174D01*
X10060291Y53525967D01*
X10013869Y53565410D01*
X9958312Y53590392D01*
X9898000Y53598945D01*
X8898000Y53598945D01*
X8862965Y53596097D01*
X8804826Y53577917D01*
X8754033Y53544291D01*
X8714590Y53497869D01*
X8689608Y53442312D01*
X8681055Y53382000D01*
X8681055Y52382000D01*
X8683903Y52346965D01*
X8702083Y52288826D01*
X8735709Y52238033D01*
X8782131Y52198590D01*
X8837688Y52173608D01*
X8898000Y52165055D01*
X9064752Y52165055D01*
X9070797Y52145034D01*
X9079622Y52114658D01*
X9080451Y52113058D01*
X9080973Y52111331D01*
X9095848Y52083354D01*
X9110420Y52055243D01*
X9111544Y52053835D01*
X9112391Y52052242D01*
X9132409Y52027698D01*
X9152171Y52002942D01*
X9154646Y52000432D01*
X9154688Y52000381D01*
X9154735Y52000342D01*
X9155533Y51999533D01*
X9817533Y51337533D01*
X9842028Y51317413D01*
X9866273Y51297069D01*
X9867848Y51296203D01*
X9869246Y51295055D01*
X9897184Y51280075D01*
X9924917Y51264828D01*
X9926637Y51264283D01*
X9928225Y51263431D01*
X9958497Y51254176D01*
X9988707Y51244593D01*
X9990499Y51244392D01*
X9992223Y51243865D01*
X10023709Y51240667D01*
X10055212Y51237133D01*
X10058736Y51237109D01*
X10058803Y51237102D01*
X10058864Y51237108D01*
X10060000Y51237100D01*
X15147966Y51237100D01*
X19087100Y47297966D01*
X19087100Y47000000D01*
X19087100Y46950000D01*
X19087100Y43814264D01*
X19087100Y43776310D01*
X19032886Y43723219D01*
X18975726Y43639739D01*
X18935870Y43546747D01*
X18914835Y43447785D01*
X18913422Y43346622D01*
X18931686Y43247111D01*
X18968930Y43153042D01*
X19023736Y43067999D01*
X19094017Y42995222D01*
X19177096Y42937481D01*
X19269807Y42896976D01*
X19368620Y42875251D01*
X19469771Y42873132D01*
X19487286Y42876221D01*
X19357533Y42746467D01*
X19337412Y42721972D01*
X19317069Y42697727D01*
X19316202Y42696152D01*
X19315055Y42694754D01*
X19300074Y42666816D01*
X19284828Y42639083D01*
X19284282Y42637363D01*
X19283431Y42635775D01*
X19274175Y42605503D01*
X19264593Y42575293D01*
X19264391Y42573501D01*
X19263865Y42571777D01*
X19260666Y42540291D01*
X19257133Y42508788D01*
X19257108Y42505264D01*
X19257102Y42505197D01*
X19257107Y42505136D01*
X19257100Y42504000D01*
X19257100Y42466945D01*
X19100000Y42466945D01*
X19064965Y42464097D01*
X19006826Y42445917D01*
X18956033Y42412291D01*
X18916590Y42365869D01*
X18891608Y42310312D01*
X18883055Y42250000D01*
X18883055Y41250000D01*
X18885903Y41214965D01*
X18904083Y41156826D01*
X18937709Y41106033D01*
X18984131Y41066590D01*
X19039688Y41041608D01*
X19100000Y41033055D01*
X20097100Y41033055D01*
X20097100Y39910002D01*
X20100191Y39878467D01*
X20102952Y39846925D01*
X20103453Y39845199D01*
X20103630Y39843399D01*
X20112797Y39813036D01*
X20121622Y39782660D01*
X20122451Y39781060D01*
X20122973Y39779333D01*
X20137848Y39751356D01*
X20152420Y39723245D01*
X20153544Y39721837D01*
X20154391Y39720244D01*
X20174409Y39695700D01*
X20194171Y39670944D01*
X20196646Y39668434D01*
X20196688Y39668383D01*
X20196735Y39668344D01*
X20197533Y39667535D01*
X20497534Y39367534D01*
X20524455Y39340613D01*
X20523422Y39266624D01*
X20541686Y39167113D01*
X20578930Y39073044D01*
X20633736Y38988001D01*
X20704017Y38915224D01*
X20787096Y38857483D01*
X20879807Y38816978D01*
X20978620Y38795253D01*
X21079771Y38793134D01*
X21179407Y38810702D01*
X21273733Y38847289D01*
X21359156Y38901500D01*
X21432423Y38971271D01*
X21490743Y39053945D01*
X21531894Y39146371D01*
X21554308Y39245030D01*
X21555922Y39360589D01*
X21536271Y39459835D01*
X21497717Y39553374D01*
X21441728Y39637643D01*
X21370438Y39709433D01*
X21286562Y39766008D01*
X21193294Y39805214D01*
X21094187Y39825558D01*
X21008782Y39826154D01*
X20982468Y39852468D01*
X20782900Y40052036D01*
X20782900Y40322166D01*
X21636501Y39468565D01*
X21636501Y37436806D01*
G36*
X31549051Y3933986D02*
X28927966Y1312900D01*
X28317100Y1312900D01*
X28317100Y1588047D01*
X28317100Y1639952D01*
X28317100Y2377625D01*
X28317100Y2882375D01*
X28317100Y3620048D01*
X28317100Y3671953D01*
X28306974Y3722861D01*
X28287110Y3770814D01*
X28258273Y3813972D01*
X28221571Y3850674D01*
X28178414Y3879511D01*
X28130460Y3899374D01*
X28079552Y3909500D01*
X27442375Y3909500D01*
X27376500Y3843625D01*
X27376500Y2816500D01*
X28251225Y2816500D01*
X28317100Y2882375D01*
X28317100Y2377625D01*
X28251225Y2443500D01*
X27376500Y2443500D01*
X27376500Y1416375D01*
X27442375Y1350500D01*
X28079552Y1350500D01*
X28130460Y1360626D01*
X28178414Y1380489D01*
X28221571Y1409326D01*
X28258273Y1446028D01*
X28287110Y1489186D01*
X28306974Y1537139D01*
X28317100Y1588047D01*
X28317100Y1312900D01*
X27003500Y1312900D01*
X27003500Y1416375D01*
X27003500Y2443500D01*
X27003500Y2816500D01*
X27003500Y3843625D01*
X26937625Y3909500D01*
X26300448Y3909500D01*
X26249540Y3899374D01*
X26201586Y3879511D01*
X26158429Y3850674D01*
X26121727Y3813972D01*
X26092890Y3770814D01*
X26073026Y3722861D01*
X26062900Y3671953D01*
X26062900Y3620048D01*
X26062900Y2882375D01*
X26128775Y2816500D01*
X27003500Y2816500D01*
X27003500Y2443500D01*
X26128775Y2443500D01*
X26062900Y2377625D01*
X26062900Y1639952D01*
X26062900Y1588047D01*
X26073026Y1537139D01*
X26092890Y1489186D01*
X26121727Y1446028D01*
X26158429Y1409326D01*
X26201586Y1380489D01*
X26249540Y1360626D01*
X26300448Y1350500D01*
X26937625Y1350500D01*
X27003500Y1416375D01*
X27003500Y1312900D01*
X25729500Y1312900D01*
X25729500Y2471639D01*
X25729500Y2788361D01*
X25708941Y2998037D01*
X25648047Y3199726D01*
X25549138Y3385747D01*
X25415982Y3549014D01*
X25253649Y3683307D01*
X25068323Y3783512D01*
X24867064Y3845812D01*
X24657536Y3867835D01*
X24447722Y3848740D01*
X24245612Y3789256D01*
X24058906Y3691648D01*
X23894713Y3559634D01*
X23759290Y3398243D01*
X23657793Y3213621D01*
X23594090Y3012802D01*
X23570605Y2803433D01*
X23570500Y2788361D01*
X23570500Y2471639D01*
X23591059Y2261963D01*
X23651953Y2060274D01*
X23750862Y1874253D01*
X23884018Y1710986D01*
X24046351Y1576693D01*
X24231677Y1476488D01*
X24432936Y1414188D01*
X24642464Y1392165D01*
X24852278Y1411260D01*
X25054388Y1470744D01*
X25241094Y1568352D01*
X25405287Y1700366D01*
X25540710Y1861757D01*
X25642207Y2046379D01*
X25705910Y2247198D01*
X25729395Y2456567D01*
X25729500Y2471639D01*
X25729500Y1312900D01*
X24162034Y1312900D01*
X23172145Y2302789D01*
X23189395Y2456567D01*
X23189500Y2471639D01*
X23189500Y2788361D01*
X23168941Y2998037D01*
X23108047Y3199726D01*
X23009138Y3385747D01*
X22875982Y3549014D01*
X22713649Y3683307D01*
X22528323Y3783512D01*
X22327064Y3845812D01*
X22117536Y3867835D01*
X21907722Y3848740D01*
X21705612Y3789256D01*
X21518906Y3691648D01*
X21354713Y3559634D01*
X21219290Y3398243D01*
X21117793Y3213621D01*
X21054090Y3012802D01*
X21030605Y2803433D01*
X21030500Y2788361D01*
X21030500Y2471639D01*
X21051059Y2261963D01*
X21111953Y2060274D01*
X21210862Y1874253D01*
X21344018Y1710986D01*
X21506351Y1576693D01*
X21691677Y1476488D01*
X21892936Y1414188D01*
X22102464Y1392165D01*
X22312278Y1411260D01*
X22514388Y1470744D01*
X22701094Y1568352D01*
X22831702Y1673364D01*
X23702166Y802900D01*
X20649500Y802900D01*
X20649500Y2471639D01*
X20649500Y2788361D01*
X20628941Y2998037D01*
X20568047Y3199726D01*
X20469138Y3385747D01*
X20335982Y3549014D01*
X20173649Y3683307D01*
X19988323Y3783512D01*
X19787064Y3845812D01*
X19577536Y3867835D01*
X19367722Y3848740D01*
X19165612Y3789256D01*
X18978906Y3691648D01*
X18814713Y3559634D01*
X18679290Y3398243D01*
X18577793Y3213621D01*
X18514090Y3012802D01*
X18490605Y2803433D01*
X18490500Y2788361D01*
X18490500Y2471639D01*
X18511059Y2261963D01*
X18571953Y2060274D01*
X18670862Y1874253D01*
X18804018Y1710986D01*
X18966351Y1576693D01*
X19151677Y1476488D01*
X19352936Y1414188D01*
X19562464Y1392165D01*
X19772278Y1411260D01*
X19974388Y1470744D01*
X20161094Y1568352D01*
X20325287Y1700366D01*
X20460710Y1861757D01*
X20562207Y2046379D01*
X20625910Y2247198D01*
X20649395Y2456567D01*
X20649500Y2471639D01*
X20649500Y802900D01*
X18109500Y802900D01*
X18109500Y2471639D01*
X18109500Y2788361D01*
X18088941Y2998037D01*
X18028047Y3199726D01*
X17929138Y3385747D01*
X17795982Y3549014D01*
X17633649Y3683307D01*
X17448323Y3783512D01*
X17247064Y3845812D01*
X17037536Y3867835D01*
X16827722Y3848740D01*
X16625612Y3789256D01*
X16438906Y3691648D01*
X16274713Y3559634D01*
X16139290Y3398243D01*
X16037793Y3213621D01*
X15974090Y3012802D01*
X15950605Y2803433D01*
X15950500Y2788361D01*
X15950500Y2471639D01*
X15971059Y2261963D01*
X16031953Y2060274D01*
X16130862Y1874253D01*
X16264018Y1710986D01*
X16426351Y1576693D01*
X16611677Y1476488D01*
X16812936Y1414188D01*
X17022464Y1392165D01*
X17232278Y1411260D01*
X17434388Y1470744D01*
X17621094Y1568352D01*
X17785287Y1700366D01*
X17920710Y1861757D01*
X18022207Y2046379D01*
X18085910Y2247198D01*
X18109395Y2456567D01*
X18109500Y2471639D01*
X18109500Y802900D01*
X8097516Y802900D01*
X8107317Y804628D01*
X8437047Y932522D01*
X8735656Y1122025D01*
X8991770Y1365920D01*
X9195634Y1654915D01*
X9339483Y1978004D01*
X9417837Y2322880D01*
X9423477Y2726833D01*
X9354784Y3073762D01*
X9220012Y3400742D01*
X9024297Y3695317D01*
X8775093Y3946267D01*
X8481891Y4144034D01*
X8155860Y4281085D01*
X7809419Y4352199D01*
X7455762Y4354668D01*
X7108362Y4288398D01*
X6780449Y4155913D01*
X6484515Y3962259D01*
X6231831Y3714812D01*
X6032022Y3422998D01*
X5892698Y3097932D01*
X5819167Y2751996D01*
X5814229Y2398365D01*
X5878073Y2050510D01*
X6008265Y1721681D01*
X6199849Y1424402D01*
X6445525Y1169997D01*
X6735937Y968155D01*
X7060022Y826566D01*
X7167660Y802900D01*
X5822033Y802900D01*
X2792467Y3832467D01*
X2767971Y3852588D01*
X2743727Y3872931D01*
X2742151Y3873798D01*
X2740754Y3874945D01*
X2712815Y3889926D01*
X2685083Y3905172D01*
X2683362Y3905718D01*
X2681775Y3906569D01*
X2651502Y3915825D01*
X2621293Y3925407D01*
X2619500Y3925609D01*
X2617777Y3926135D01*
X2586290Y3929334D01*
X2554788Y3932867D01*
X2551263Y3932892D01*
X2551197Y3932898D01*
X2551135Y3932893D01*
X2550000Y3932900D01*
X1802034Y3932900D01*
X1522900Y4212034D01*
X1522900Y6450000D01*
X1519808Y6481536D01*
X1517048Y6513077D01*
X1516546Y6514804D01*
X1516370Y6516603D01*
X1507202Y6546967D01*
X1498378Y6577342D01*
X1497548Y6578943D01*
X1497027Y6580669D01*
X1482151Y6608647D01*
X1467580Y6636757D01*
X1466455Y6638166D01*
X1465609Y6639758D01*
X1445590Y6664303D01*
X1425829Y6689058D01*
X1423353Y6691569D01*
X1423312Y6691619D01*
X1423264Y6691659D01*
X1422467Y6692467D01*
X932900Y7182034D01*
X932900Y8752166D01*
X1649741Y8035325D01*
X1603364Y7927118D01*
X1563492Y7739533D01*
X1560814Y7547775D01*
X1595433Y7359150D01*
X1666031Y7180841D01*
X1769918Y7019640D01*
X1903137Y6881688D01*
X2060613Y6772239D01*
X2236350Y6695461D01*
X2423652Y6654280D01*
X2615387Y6650264D01*
X2804249Y6683566D01*
X2983047Y6752917D01*
X3144969Y6855675D01*
X3238501Y6944745D01*
X3238501Y6273435D01*
X3034011Y6068945D01*
X1778000Y6068945D01*
X1742965Y6066097D01*
X1684826Y6047917D01*
X1634033Y6014291D01*
X1594590Y5967869D01*
X1569608Y5912312D01*
X1561055Y5852000D01*
X1561055Y4328000D01*
X1563903Y4292965D01*
X1582083Y4234826D01*
X1615709Y4184033D01*
X1662131Y4144590D01*
X1717688Y4119608D01*
X1778000Y4111055D01*
X3302000Y4111055D01*
X3337035Y4113903D01*
X3395174Y4132083D01*
X3445967Y4165709D01*
X3485410Y4212131D01*
X3510392Y4267688D01*
X3518945Y4328000D01*
X3518945Y5584011D01*
X3823868Y5888934D01*
X3843988Y5913430D01*
X3864332Y5937674D01*
X3865198Y5939250D01*
X3866346Y5940647D01*
X3881326Y5968586D01*
X3896573Y5996318D01*
X3897118Y5998039D01*
X3897970Y5999626D01*
X3907225Y6029899D01*
X3916808Y6060108D01*
X3917009Y6061901D01*
X3917536Y6063624D01*
X3920734Y6095111D01*
X3924268Y6126613D01*
X3924292Y6130138D01*
X3924299Y6130204D01*
X3924293Y6130266D01*
X3924301Y6131401D01*
X3924301Y6290765D01*
X4047533Y6167533D01*
X4072028Y6147413D01*
X4096273Y6127069D01*
X4097848Y6126203D01*
X4099246Y6125055D01*
X4127184Y6110075D01*
X4154917Y6094828D01*
X4156637Y6094283D01*
X4158225Y6093431D01*
X4188538Y6084163D01*
X4218707Y6074593D01*
X4220494Y6074393D01*
X4222223Y6073864D01*
X4253759Y6070662D01*
X4285212Y6067133D01*
X4288736Y6067109D01*
X4288803Y6067102D01*
X4288864Y6067108D01*
X4290000Y6067100D01*
X4295303Y6067100D01*
X4282965Y6066097D01*
X4224826Y6047917D01*
X4174033Y6014291D01*
X4134590Y5967869D01*
X4109608Y5912312D01*
X4101055Y5852000D01*
X4101055Y4328000D01*
X4103903Y4292965D01*
X4122083Y4234826D01*
X4155709Y4184033D01*
X4202131Y4144590D01*
X4257688Y4119608D01*
X4318000Y4111055D01*
X5842000Y4111055D01*
X5877035Y4113903D01*
X5935174Y4132083D01*
X5985967Y4165709D01*
X6025410Y4212131D01*
X6050392Y4267688D01*
X6058945Y4328000D01*
X6058945Y4956121D01*
X6397533Y4617533D01*
X6422028Y4597413D01*
X6446273Y4577069D01*
X6447848Y4576203D01*
X6449246Y4575055D01*
X6477184Y4560075D01*
X6504917Y4544828D01*
X6506637Y4544283D01*
X6508225Y4543431D01*
X6538497Y4534176D01*
X6568707Y4524593D01*
X6570499Y4524392D01*
X6572223Y4523865D01*
X6603709Y4520667D01*
X6635212Y4517133D01*
X6638736Y4517109D01*
X6638803Y4517102D01*
X6638864Y4517108D01*
X6640000Y4517100D01*
X9037966Y4517100D01*
X9667533Y3887533D01*
X9692028Y3867413D01*
X9716273Y3847069D01*
X9717848Y3846203D01*
X9719246Y3845055D01*
X9747184Y3830075D01*
X9774917Y3814828D01*
X9776637Y3814283D01*
X9778225Y3813431D01*
X9808497Y3804176D01*
X9838707Y3794593D01*
X9840499Y3794392D01*
X9842223Y3793865D01*
X9873709Y3790667D01*
X9905212Y3787133D01*
X9908736Y3787109D01*
X9908803Y3787102D01*
X9908864Y3787108D01*
X9910000Y3787100D01*
X14081487Y3787100D01*
X13898906Y3691648D01*
X13734713Y3559634D01*
X13599290Y3398243D01*
X13497793Y3213621D01*
X13434090Y3012802D01*
X13410605Y2803433D01*
X13410500Y2788361D01*
X13410500Y2471639D01*
X13431059Y2261963D01*
X13491953Y2060274D01*
X13590862Y1874253D01*
X13724018Y1710986D01*
X13886351Y1576693D01*
X14071677Y1476488D01*
X14272936Y1414188D01*
X14482464Y1392165D01*
X14692278Y1411260D01*
X14894388Y1470744D01*
X15081094Y1568352D01*
X15245287Y1700366D01*
X15380710Y1861757D01*
X15482207Y2046379D01*
X15545910Y2247198D01*
X15569395Y2456567D01*
X15569500Y2471639D01*
X15569500Y2788361D01*
X15548941Y2998037D01*
X15488047Y3199726D01*
X15396616Y3371683D01*
X16082034Y4057100D01*
X31212203Y4057100D01*
X31214017Y4055222D01*
X31297096Y3997481D01*
X31389807Y3956976D01*
X31488620Y3935251D01*
X31549051Y3933986D01*
X31549051Y3933986D01*
G37*
X31549051Y3933986D02*
X28927966Y1312900D01*
X28317100Y1312900D01*
X28317100Y1588047D01*
X28317100Y1639952D01*
X28317100Y2377625D01*
X28317100Y2882375D01*
X28317100Y3620048D01*
X28317100Y3671953D01*
X28306974Y3722861D01*
X28287110Y3770814D01*
X28258273Y3813972D01*
X28221571Y3850674D01*
X28178414Y3879511D01*
X28130460Y3899374D01*
X28079552Y3909500D01*
X27442375Y3909500D01*
X27376500Y3843625D01*
X27376500Y2816500D01*
X28251225Y2816500D01*
X28317100Y2882375D01*
X28317100Y2377625D01*
X28251225Y2443500D01*
X27376500Y2443500D01*
X27376500Y1416375D01*
X27442375Y1350500D01*
X28079552Y1350500D01*
X28130460Y1360626D01*
X28178414Y1380489D01*
X28221571Y1409326D01*
X28258273Y1446028D01*
X28287110Y1489186D01*
X28306974Y1537139D01*
X28317100Y1588047D01*
X28317100Y1312900D01*
X27003500Y1312900D01*
X27003500Y1416375D01*
X27003500Y2443500D01*
X27003500Y2816500D01*
X27003500Y3843625D01*
X26937625Y3909500D01*
X26300448Y3909500D01*
X26249540Y3899374D01*
X26201586Y3879511D01*
X26158429Y3850674D01*
X26121727Y3813972D01*
X26092890Y3770814D01*
X26073026Y3722861D01*
X26062900Y3671953D01*
X26062900Y3620048D01*
X26062900Y2882375D01*
X26128775Y2816500D01*
X27003500Y2816500D01*
X27003500Y2443500D01*
X26128775Y2443500D01*
X26062900Y2377625D01*
X26062900Y1639952D01*
X26062900Y1588047D01*
X26073026Y1537139D01*
X26092890Y1489186D01*
X26121727Y1446028D01*
X26158429Y1409326D01*
X26201586Y1380489D01*
X26249540Y1360626D01*
X26300448Y1350500D01*
X26937625Y1350500D01*
X27003500Y1416375D01*
X27003500Y1312900D01*
X25729500Y1312900D01*
X25729500Y2471639D01*
X25729500Y2788361D01*
X25708941Y2998037D01*
X25648047Y3199726D01*
X25549138Y3385747D01*
X25415982Y3549014D01*
X25253649Y3683307D01*
X25068323Y3783512D01*
X24867064Y3845812D01*
X24657536Y3867835D01*
X24447722Y3848740D01*
X24245612Y3789256D01*
X24058906Y3691648D01*
X23894713Y3559634D01*
X23759290Y3398243D01*
X23657793Y3213621D01*
X23594090Y3012802D01*
X23570605Y2803433D01*
X23570500Y2788361D01*
X23570500Y2471639D01*
X23591059Y2261963D01*
X23651953Y2060274D01*
X23750862Y1874253D01*
X23884018Y1710986D01*
X24046351Y1576693D01*
X24231677Y1476488D01*
X24432936Y1414188D01*
X24642464Y1392165D01*
X24852278Y1411260D01*
X25054388Y1470744D01*
X25241094Y1568352D01*
X25405287Y1700366D01*
X25540710Y1861757D01*
X25642207Y2046379D01*
X25705910Y2247198D01*
X25729395Y2456567D01*
X25729500Y2471639D01*
X25729500Y1312900D01*
X24162034Y1312900D01*
X23172145Y2302789D01*
X23189395Y2456567D01*
X23189500Y2471639D01*
X23189500Y2788361D01*
X23168941Y2998037D01*
X23108047Y3199726D01*
X23009138Y3385747D01*
X22875982Y3549014D01*
X22713649Y3683307D01*
X22528323Y3783512D01*
X22327064Y3845812D01*
X22117536Y3867835D01*
X21907722Y3848740D01*
X21705612Y3789256D01*
X21518906Y3691648D01*
X21354713Y3559634D01*
X21219290Y3398243D01*
X21117793Y3213621D01*
X21054090Y3012802D01*
X21030605Y2803433D01*
X21030500Y2788361D01*
X21030500Y2471639D01*
X21051059Y2261963D01*
X21111953Y2060274D01*
X21210862Y1874253D01*
X21344018Y1710986D01*
X21506351Y1576693D01*
X21691677Y1476488D01*
X21892936Y1414188D01*
X22102464Y1392165D01*
X22312278Y1411260D01*
X22514388Y1470744D01*
X22701094Y1568352D01*
X22831702Y1673364D01*
X23702166Y802900D01*
X20649500Y802900D01*
X20649500Y2471639D01*
X20649500Y2788361D01*
X20628941Y2998037D01*
X20568047Y3199726D01*
X20469138Y3385747D01*
X20335982Y3549014D01*
X20173649Y3683307D01*
X19988323Y3783512D01*
X19787064Y3845812D01*
X19577536Y3867835D01*
X19367722Y3848740D01*
X19165612Y3789256D01*
X18978906Y3691648D01*
X18814713Y3559634D01*
X18679290Y3398243D01*
X18577793Y3213621D01*
X18514090Y3012802D01*
X18490605Y2803433D01*
X18490500Y2788361D01*
X18490500Y2471639D01*
X18511059Y2261963D01*
X18571953Y2060274D01*
X18670862Y1874253D01*
X18804018Y1710986D01*
X18966351Y1576693D01*
X19151677Y1476488D01*
X19352936Y1414188D01*
X19562464Y1392165D01*
X19772278Y1411260D01*
X19974388Y1470744D01*
X20161094Y1568352D01*
X20325287Y1700366D01*
X20460710Y1861757D01*
X20562207Y2046379D01*
X20625910Y2247198D01*
X20649395Y2456567D01*
X20649500Y2471639D01*
X20649500Y802900D01*
X18109500Y802900D01*
X18109500Y2471639D01*
X18109500Y2788361D01*
X18088941Y2998037D01*
X18028047Y3199726D01*
X17929138Y3385747D01*
X17795982Y3549014D01*
X17633649Y3683307D01*
X17448323Y3783512D01*
X17247064Y3845812D01*
X17037536Y3867835D01*
X16827722Y3848740D01*
X16625612Y3789256D01*
X16438906Y3691648D01*
X16274713Y3559634D01*
X16139290Y3398243D01*
X16037793Y3213621D01*
X15974090Y3012802D01*
X15950605Y2803433D01*
X15950500Y2788361D01*
X15950500Y2471639D01*
X15971059Y2261963D01*
X16031953Y2060274D01*
X16130862Y1874253D01*
X16264018Y1710986D01*
X16426351Y1576693D01*
X16611677Y1476488D01*
X16812936Y1414188D01*
X17022464Y1392165D01*
X17232278Y1411260D01*
X17434388Y1470744D01*
X17621094Y1568352D01*
X17785287Y1700366D01*
X17920710Y1861757D01*
X18022207Y2046379D01*
X18085910Y2247198D01*
X18109395Y2456567D01*
X18109500Y2471639D01*
X18109500Y802900D01*
X8097516Y802900D01*
X8107317Y804628D01*
X8437047Y932522D01*
X8735656Y1122025D01*
X8991770Y1365920D01*
X9195634Y1654915D01*
X9339483Y1978004D01*
X9417837Y2322880D01*
X9423477Y2726833D01*
X9354784Y3073762D01*
X9220012Y3400742D01*
X9024297Y3695317D01*
X8775093Y3946267D01*
X8481891Y4144034D01*
X8155860Y4281085D01*
X7809419Y4352199D01*
X7455762Y4354668D01*
X7108362Y4288398D01*
X6780449Y4155913D01*
X6484515Y3962259D01*
X6231831Y3714812D01*
X6032022Y3422998D01*
X5892698Y3097932D01*
X5819167Y2751996D01*
X5814229Y2398365D01*
X5878073Y2050510D01*
X6008265Y1721681D01*
X6199849Y1424402D01*
X6445525Y1169997D01*
X6735937Y968155D01*
X7060022Y826566D01*
X7167660Y802900D01*
X5822033Y802900D01*
X2792467Y3832467D01*
X2767971Y3852588D01*
X2743727Y3872931D01*
X2742151Y3873798D01*
X2740754Y3874945D01*
X2712815Y3889926D01*
X2685083Y3905172D01*
X2683362Y3905718D01*
X2681775Y3906569D01*
X2651502Y3915825D01*
X2621293Y3925407D01*
X2619500Y3925609D01*
X2617777Y3926135D01*
X2586290Y3929334D01*
X2554788Y3932867D01*
X2551263Y3932892D01*
X2551197Y3932898D01*
X2551135Y3932893D01*
X2550000Y3932900D01*
X1802034Y3932900D01*
X1522900Y4212034D01*
X1522900Y6450000D01*
X1519808Y6481536D01*
X1517048Y6513077D01*
X1516546Y6514804D01*
X1516370Y6516603D01*
X1507202Y6546967D01*
X1498378Y6577342D01*
X1497548Y6578943D01*
X1497027Y6580669D01*
X1482151Y6608647D01*
X1467580Y6636757D01*
X1466455Y6638166D01*
X1465609Y6639758D01*
X1445590Y6664303D01*
X1425829Y6689058D01*
X1423353Y6691569D01*
X1423312Y6691619D01*
X1423264Y6691659D01*
X1422467Y6692467D01*
X932900Y7182034D01*
X932900Y8752166D01*
X1649741Y8035325D01*
X1603364Y7927118D01*
X1563492Y7739533D01*
X1560814Y7547775D01*
X1595433Y7359150D01*
X1666031Y7180841D01*
X1769918Y7019640D01*
X1903137Y6881688D01*
X2060613Y6772239D01*
X2236350Y6695461D01*
X2423652Y6654280D01*
X2615387Y6650264D01*
X2804249Y6683566D01*
X2983047Y6752917D01*
X3144969Y6855675D01*
X3238501Y6944745D01*
X3238501Y6273435D01*
X3034011Y6068945D01*
X1778000Y6068945D01*
X1742965Y6066097D01*
X1684826Y6047917D01*
X1634033Y6014291D01*
X1594590Y5967869D01*
X1569608Y5912312D01*
X1561055Y5852000D01*
X1561055Y4328000D01*
X1563903Y4292965D01*
X1582083Y4234826D01*
X1615709Y4184033D01*
X1662131Y4144590D01*
X1717688Y4119608D01*
X1778000Y4111055D01*
X3302000Y4111055D01*
X3337035Y4113903D01*
X3395174Y4132083D01*
X3445967Y4165709D01*
X3485410Y4212131D01*
X3510392Y4267688D01*
X3518945Y4328000D01*
X3518945Y5584011D01*
X3823868Y5888934D01*
X3843988Y5913430D01*
X3864332Y5937674D01*
X3865198Y5939250D01*
X3866346Y5940647D01*
X3881326Y5968586D01*
X3896573Y5996318D01*
X3897118Y5998039D01*
X3897970Y5999626D01*
X3907225Y6029899D01*
X3916808Y6060108D01*
X3917009Y6061901D01*
X3917536Y6063624D01*
X3920734Y6095111D01*
X3924268Y6126613D01*
X3924292Y6130138D01*
X3924299Y6130204D01*
X3924293Y6130266D01*
X3924301Y6131401D01*
X3924301Y6290765D01*
X4047533Y6167533D01*
X4072028Y6147413D01*
X4096273Y6127069D01*
X4097848Y6126203D01*
X4099246Y6125055D01*
X4127184Y6110075D01*
X4154917Y6094828D01*
X4156637Y6094283D01*
X4158225Y6093431D01*
X4188538Y6084163D01*
X4218707Y6074593D01*
X4220494Y6074393D01*
X4222223Y6073864D01*
X4253759Y6070662D01*
X4285212Y6067133D01*
X4288736Y6067109D01*
X4288803Y6067102D01*
X4288864Y6067108D01*
X4290000Y6067100D01*
X4295303Y6067100D01*
X4282965Y6066097D01*
X4224826Y6047917D01*
X4174033Y6014291D01*
X4134590Y5967869D01*
X4109608Y5912312D01*
X4101055Y5852000D01*
X4101055Y4328000D01*
X4103903Y4292965D01*
X4122083Y4234826D01*
X4155709Y4184033D01*
X4202131Y4144590D01*
X4257688Y4119608D01*
X4318000Y4111055D01*
X5842000Y4111055D01*
X5877035Y4113903D01*
X5935174Y4132083D01*
X5985967Y4165709D01*
X6025410Y4212131D01*
X6050392Y4267688D01*
X6058945Y4328000D01*
X6058945Y4956121D01*
X6397533Y4617533D01*
X6422028Y4597413D01*
X6446273Y4577069D01*
X6447848Y4576203D01*
X6449246Y4575055D01*
X6477184Y4560075D01*
X6504917Y4544828D01*
X6506637Y4544283D01*
X6508225Y4543431D01*
X6538497Y4534176D01*
X6568707Y4524593D01*
X6570499Y4524392D01*
X6572223Y4523865D01*
X6603709Y4520667D01*
X6635212Y4517133D01*
X6638736Y4517109D01*
X6638803Y4517102D01*
X6638864Y4517108D01*
X6640000Y4517100D01*
X9037966Y4517100D01*
X9667533Y3887533D01*
X9692028Y3867413D01*
X9716273Y3847069D01*
X9717848Y3846203D01*
X9719246Y3845055D01*
X9747184Y3830075D01*
X9774917Y3814828D01*
X9776637Y3814283D01*
X9778225Y3813431D01*
X9808497Y3804176D01*
X9838707Y3794593D01*
X9840499Y3794392D01*
X9842223Y3793865D01*
X9873709Y3790667D01*
X9905212Y3787133D01*
X9908736Y3787109D01*
X9908803Y3787102D01*
X9908864Y3787108D01*
X9910000Y3787100D01*
X14081487Y3787100D01*
X13898906Y3691648D01*
X13734713Y3559634D01*
X13599290Y3398243D01*
X13497793Y3213621D01*
X13434090Y3012802D01*
X13410605Y2803433D01*
X13410500Y2788361D01*
X13410500Y2471639D01*
X13431059Y2261963D01*
X13491953Y2060274D01*
X13590862Y1874253D01*
X13724018Y1710986D01*
X13886351Y1576693D01*
X14071677Y1476488D01*
X14272936Y1414188D01*
X14482464Y1392165D01*
X14692278Y1411260D01*
X14894388Y1470744D01*
X15081094Y1568352D01*
X15245287Y1700366D01*
X15380710Y1861757D01*
X15482207Y2046379D01*
X15545910Y2247198D01*
X15569395Y2456567D01*
X15569500Y2471639D01*
X15569500Y2788361D01*
X15548941Y2998037D01*
X15488047Y3199726D01*
X15396616Y3371683D01*
X16082034Y4057100D01*
X31212203Y4057100D01*
X31214017Y4055222D01*
X31297096Y3997481D01*
X31389807Y3956976D01*
X31488620Y3935251D01*
X31549051Y3933986D01*
G36*
X32027893Y63495858D02*
X31764142Y63232107D01*
X31750000Y63246249D01*
X31735858Y63232107D01*
X31472106Y63495858D01*
X31486249Y63510000D01*
X31472106Y63524142D01*
X31735858Y63787893D01*
X31750000Y63773751D01*
X31764142Y63787893D01*
X32027893Y63524143D01*
X32013751Y63510000D01*
X32027893Y63495858D01*
X32027893Y63495858D01*
G37*
X32027893Y63495858D02*
X31764142Y63232107D01*
X31750000Y63246249D01*
X31735858Y63232107D01*
X31472106Y63495858D01*
X31486249Y63510000D01*
X31472106Y63524142D01*
X31735858Y63787893D01*
X31750000Y63773751D01*
X31764142Y63787893D01*
X32027893Y63524143D01*
X32013751Y63510000D01*
X32027893Y63495858D01*
G36*
X38903599Y7227100D02*
X38752390Y7128151D01*
X38614951Y6993561D01*
X38506272Y6834839D01*
X38430491Y6658030D01*
X38390497Y6469869D01*
X38387811Y6277523D01*
X38422536Y6088319D01*
X38476666Y5951601D01*
X37987966Y5462900D01*
X37861960Y5462900D01*
X37861960Y6304048D01*
X37853047Y6506448D01*
X37804819Y6703221D01*
X37761995Y6806607D01*
X37633243Y6899492D01*
X37093751Y6360000D01*
X37633243Y5820508D01*
X37761995Y5913393D01*
X37831216Y6103798D01*
X37861960Y6304048D01*
X37861960Y5462900D01*
X37301781Y5462900D01*
X37369492Y5556757D01*
X36830000Y6096249D01*
X36566249Y5832498D01*
X36566249Y6360000D01*
X36026757Y6899492D01*
X35898005Y6806607D01*
X35828784Y6616202D01*
X35798040Y6415952D01*
X35806953Y6213552D01*
X35855181Y6016779D01*
X35898005Y5913393D01*
X36026757Y5820508D01*
X36566249Y6360000D01*
X36566249Y5832498D01*
X36290508Y5556757D01*
X36358218Y5462900D01*
X35321960Y5462900D01*
X35321960Y6304048D01*
X35313047Y6506448D01*
X35264819Y6703221D01*
X35221995Y6806607D01*
X35093243Y6899492D01*
X34553751Y6360000D01*
X35093243Y5820508D01*
X35221995Y5913393D01*
X35291216Y6103798D01*
X35321960Y6304048D01*
X35321960Y5462900D01*
X34761781Y5462900D01*
X34829492Y5556757D01*
X34290000Y6096249D01*
X33750508Y5556757D01*
X33823013Y5456255D01*
X33793033Y5447203D01*
X33762658Y5438378D01*
X33761057Y5437549D01*
X33759331Y5437027D01*
X33731353Y5422152D01*
X33703243Y5407580D01*
X33701834Y5406456D01*
X33700242Y5405609D01*
X33675697Y5385591D01*
X33650942Y5365829D01*
X33648431Y5363354D01*
X33648381Y5363312D01*
X33648341Y5363265D01*
X33647533Y5362467D01*
X33352900Y5067834D01*
X33352900Y5925718D01*
X33358005Y5913393D01*
X33486757Y5820508D01*
X34026249Y6360000D01*
X33486757Y6899492D01*
X33358005Y6806607D01*
X33352900Y6792565D01*
X33352900Y7006716D01*
X33573284Y7227100D01*
X33796576Y7227100D01*
X33750508Y7163243D01*
X34290000Y6623751D01*
X34829492Y7163243D01*
X34783423Y7227100D01*
X36336576Y7227100D01*
X36290508Y7163243D01*
X36830000Y6623751D01*
X37369492Y7163243D01*
X37323423Y7227100D01*
X38903599Y7227100D01*
X38903599Y7227100D01*
G37*
X38903599Y7227100D02*
X38752390Y7128151D01*
X38614951Y6993561D01*
X38506272Y6834839D01*
X38430491Y6658030D01*
X38390497Y6469869D01*
X38387811Y6277523D01*
X38422536Y6088319D01*
X38476666Y5951601D01*
X37987966Y5462900D01*
X37861960Y5462900D01*
X37861960Y6304048D01*
X37853047Y6506448D01*
X37804819Y6703221D01*
X37761995Y6806607D01*
X37633243Y6899492D01*
X37093751Y6360000D01*
X37633243Y5820508D01*
X37761995Y5913393D01*
X37831216Y6103798D01*
X37861960Y6304048D01*
X37861960Y5462900D01*
X37301781Y5462900D01*
X37369492Y5556757D01*
X36830000Y6096249D01*
X36566249Y5832498D01*
X36566249Y6360000D01*
X36026757Y6899492D01*
X35898005Y6806607D01*
X35828784Y6616202D01*
X35798040Y6415952D01*
X35806953Y6213552D01*
X35855181Y6016779D01*
X35898005Y5913393D01*
X36026757Y5820508D01*
X36566249Y6360000D01*
X36566249Y5832498D01*
X36290508Y5556757D01*
X36358218Y5462900D01*
X35321960Y5462900D01*
X35321960Y6304048D01*
X35313047Y6506448D01*
X35264819Y6703221D01*
X35221995Y6806607D01*
X35093243Y6899492D01*
X34553751Y6360000D01*
X35093243Y5820508D01*
X35221995Y5913393D01*
X35291216Y6103798D01*
X35321960Y6304048D01*
X35321960Y5462900D01*
X34761781Y5462900D01*
X34829492Y5556757D01*
X34290000Y6096249D01*
X33750508Y5556757D01*
X33823013Y5456255D01*
X33793033Y5447203D01*
X33762658Y5438378D01*
X33761057Y5437549D01*
X33759331Y5437027D01*
X33731353Y5422152D01*
X33703243Y5407580D01*
X33701834Y5406456D01*
X33700242Y5405609D01*
X33675697Y5385591D01*
X33650942Y5365829D01*
X33648431Y5363354D01*
X33648381Y5363312D01*
X33648341Y5363265D01*
X33647533Y5362467D01*
X33352900Y5067834D01*
X33352900Y5925718D01*
X33358005Y5913393D01*
X33486757Y5820508D01*
X34026249Y6360000D01*
X33486757Y6899492D01*
X33358005Y6806607D01*
X33352900Y6792565D01*
X33352900Y7006716D01*
X33573284Y7227100D01*
X33796576Y7227100D01*
X33750508Y7163243D01*
X34290000Y6623751D01*
X34829492Y7163243D01*
X34783423Y7227100D01*
X36336576Y7227100D01*
X36290508Y7163243D01*
X36830000Y6623751D01*
X37369492Y7163243D01*
X37323423Y7227100D01*
X38903599Y7227100D01*
G36*
X48087416Y55297100D02*
X45376806Y52586491D01*
X45013591Y52586491D01*
X44982059Y52583400D01*
X44950514Y52580639D01*
X44948787Y52580138D01*
X44946988Y52579961D01*
X44916624Y52570794D01*
X44886249Y52561969D01*
X44884648Y52561140D01*
X44882922Y52560618D01*
X44854944Y52545743D01*
X44826834Y52531171D01*
X44825425Y52530047D01*
X44823833Y52529200D01*
X44799288Y52509182D01*
X44774533Y52489420D01*
X44772022Y52486945D01*
X44771972Y52486903D01*
X44771932Y52486856D01*
X44771124Y52486058D01*
X34829492Y42544427D01*
X34176594Y41891529D01*
X29762716Y41891529D01*
X32875000Y45003812D01*
X32875000Y44529934D01*
X32417532Y44072466D01*
X32390785Y44045720D01*
X32313016Y44046262D01*
X32213635Y44027305D01*
X32119829Y43989404D01*
X32035171Y43934006D01*
X31962886Y43863219D01*
X31905726Y43779739D01*
X31865870Y43686747D01*
X31844835Y43587785D01*
X31843422Y43486622D01*
X31861686Y43387111D01*
X31898930Y43293042D01*
X31953736Y43207999D01*
X32024017Y43135222D01*
X32107096Y43077481D01*
X32199807Y43036976D01*
X32298620Y43015251D01*
X32399771Y43013132D01*
X32499407Y43030700D01*
X32593733Y43067287D01*
X32679156Y43121498D01*
X32752423Y43191269D01*
X32810743Y43273943D01*
X32851894Y43366369D01*
X32874308Y43465028D01*
X32875644Y43560711D01*
X32902466Y43587532D01*
X33460367Y44145433D01*
X33480487Y44169929D01*
X33500831Y44194173D01*
X33501697Y44195749D01*
X33502845Y44197146D01*
X33517825Y44225085D01*
X33533072Y44252817D01*
X33533617Y44254538D01*
X33534469Y44256125D01*
X33543724Y44286398D01*
X33553307Y44316607D01*
X33553508Y44318400D01*
X33554035Y44320123D01*
X33557233Y44351610D01*
X33560767Y44383112D01*
X33560791Y44386637D01*
X33560798Y44386703D01*
X33560792Y44386765D01*
X33560800Y44387900D01*
X33560800Y62778078D01*
X33691316Y62647562D01*
X33750509Y62706756D01*
X33843393Y62578005D01*
X34033798Y62508784D01*
X34234048Y62478040D01*
X34436448Y62486953D01*
X34633221Y62535181D01*
X34736607Y62578005D01*
X34829492Y62706757D01*
X34290000Y63246249D01*
X34275858Y63232107D01*
X34012106Y63495858D01*
X34026249Y63510000D01*
X34012106Y63524142D01*
X34275858Y63787893D01*
X34290000Y63773751D01*
X34829492Y64313243D01*
X34736607Y64441995D01*
X34546202Y64511216D01*
X34345952Y64541960D01*
X34143552Y64533047D01*
X33946779Y64484819D01*
X33843393Y64441995D01*
X33750509Y64313245D01*
X33691316Y64372438D01*
X33560800Y64241922D01*
X33560800Y64835866D01*
X33882495Y65157562D01*
X33985419Y65112595D01*
X34173296Y65071288D01*
X34365618Y65067259D01*
X34555060Y65100663D01*
X34734406Y65170226D01*
X34896824Y65273300D01*
X35036129Y65405959D01*
X35147014Y65563148D01*
X35217100Y65720564D01*
X35217100Y63960139D01*
X35093243Y64049492D01*
X34829492Y63785741D01*
X34553751Y63510000D01*
X35093243Y62970508D01*
X35217100Y63059862D01*
X35217100Y62390000D01*
X35220191Y62358465D01*
X35222952Y62326923D01*
X35223453Y62325197D01*
X35223630Y62323397D01*
X35232797Y62293034D01*
X35241622Y62262658D01*
X35242451Y62261058D01*
X35242973Y62259331D01*
X35257848Y62231354D01*
X35272420Y62203243D01*
X35273544Y62201835D01*
X35274391Y62200242D01*
X35294409Y62175698D01*
X35314171Y62150942D01*
X35316646Y62148432D01*
X35316688Y62148381D01*
X35316735Y62148342D01*
X35317533Y62147533D01*
X36177533Y61287533D01*
X36202028Y61267413D01*
X36226273Y61247069D01*
X36227848Y61246203D01*
X36229246Y61245055D01*
X36257184Y61230075D01*
X36284917Y61214828D01*
X36286637Y61214283D01*
X36288225Y61213431D01*
X36318497Y61204176D01*
X36348707Y61194593D01*
X36350499Y61194392D01*
X36352223Y61193865D01*
X36383709Y61190667D01*
X36415212Y61187133D01*
X36418736Y61187109D01*
X36418803Y61187102D01*
X36418864Y61187108D01*
X36420000Y61187100D01*
X46227966Y61187100D01*
X46637100Y60777966D01*
X46637100Y56760000D01*
X46640191Y56728465D01*
X46642952Y56696923D01*
X46643453Y56695197D01*
X46643630Y56693397D01*
X46652797Y56663034D01*
X46661622Y56632658D01*
X46662451Y56631058D01*
X46662973Y56629331D01*
X46677848Y56601354D01*
X46692420Y56573243D01*
X46693544Y56571835D01*
X46694391Y56570242D01*
X46714409Y56545698D01*
X46734171Y56520942D01*
X46736646Y56518432D01*
X46736688Y56518381D01*
X46736735Y56518342D01*
X46737533Y56517533D01*
X46907532Y56347534D01*
X46902250Y56322684D01*
X44038666Y59186268D01*
X44035590Y59190039D01*
X44015829Y59214794D01*
X44013353Y59217305D01*
X44013312Y59217355D01*
X44013264Y59217395D01*
X44012467Y59218203D01*
X43715309Y59515361D01*
X43770743Y59593943D01*
X43811894Y59686369D01*
X43834308Y59785028D01*
X43835922Y59900587D01*
X43816271Y59999833D01*
X43777717Y60093372D01*
X43721728Y60177641D01*
X43650438Y60249431D01*
X43566562Y60306006D01*
X43473294Y60345212D01*
X43374187Y60365556D01*
X43273016Y60366262D01*
X43173635Y60347305D01*
X43079829Y60309404D01*
X42995171Y60254006D01*
X42922886Y60183219D01*
X42865726Y60099739D01*
X42825870Y60006747D01*
X42804835Y59907785D01*
X42803422Y59806622D01*
X42821686Y59707111D01*
X42858930Y59613042D01*
X42913736Y59527999D01*
X42977100Y59462385D01*
X42977100Y59425736D01*
X42977100Y59420000D01*
X42980191Y59388465D01*
X42982952Y59356923D01*
X42983453Y59355197D01*
X42983630Y59353397D01*
X42992797Y59323034D01*
X43001622Y59292658D01*
X43002451Y59291058D01*
X43002973Y59289331D01*
X43017848Y59261354D01*
X43032420Y59233243D01*
X43033544Y59231835D01*
X43034391Y59230242D01*
X43054409Y59205698D01*
X43074171Y59180942D01*
X43076646Y59178432D01*
X43076688Y59178381D01*
X43076735Y59178342D01*
X43077533Y59177533D01*
X43427100Y58827966D01*
X43427100Y53336853D01*
X43372886Y53283762D01*
X43315726Y53200282D01*
X43275870Y53107290D01*
X43254835Y53008328D01*
X43253422Y52907165D01*
X43271686Y52807654D01*
X43308930Y52713585D01*
X43363736Y52628542D01*
X43434017Y52555765D01*
X43517096Y52498024D01*
X43609807Y52457519D01*
X43708620Y52435794D01*
X43809771Y52433675D01*
X43909407Y52451243D01*
X44003733Y52487830D01*
X44089156Y52542041D01*
X44162423Y52611812D01*
X44220743Y52694486D01*
X44261894Y52786912D01*
X44284308Y52885571D01*
X44285922Y53001130D01*
X44266271Y53100376D01*
X44227717Y53193915D01*
X44171728Y53278184D01*
X44112900Y53337425D01*
X44112900Y58142166D01*
X46857533Y55397533D01*
X46882028Y55377413D01*
X46906273Y55357069D01*
X46907848Y55356203D01*
X46909246Y55355055D01*
X46937184Y55340075D01*
X46964917Y55324828D01*
X46966637Y55324283D01*
X46968225Y55323431D01*
X46998497Y55314176D01*
X47028707Y55304593D01*
X47030499Y55304392D01*
X47032223Y55303865D01*
X47063709Y55300667D01*
X47095212Y55297133D01*
X47098736Y55297109D01*
X47098803Y55297102D01*
X47098864Y55297108D01*
X47100000Y55297100D01*
X48087416Y55297100D01*
X48087416Y55297100D01*
G37*
X48087416Y55297100D02*
X45376806Y52586491D01*
X45013591Y52586491D01*
X44982059Y52583400D01*
X44950514Y52580639D01*
X44948787Y52580138D01*
X44946988Y52579961D01*
X44916624Y52570794D01*
X44886249Y52561969D01*
X44884648Y52561140D01*
X44882922Y52560618D01*
X44854944Y52545743D01*
X44826834Y52531171D01*
X44825425Y52530047D01*
X44823833Y52529200D01*
X44799288Y52509182D01*
X44774533Y52489420D01*
X44772022Y52486945D01*
X44771972Y52486903D01*
X44771932Y52486856D01*
X44771124Y52486058D01*
X34829492Y42544427D01*
X34176594Y41891529D01*
X29762716Y41891529D01*
X32875000Y45003812D01*
X32875000Y44529934D01*
X32417532Y44072466D01*
X32390785Y44045720D01*
X32313016Y44046262D01*
X32213635Y44027305D01*
X32119829Y43989404D01*
X32035171Y43934006D01*
X31962886Y43863219D01*
X31905726Y43779739D01*
X31865870Y43686747D01*
X31844835Y43587785D01*
X31843422Y43486622D01*
X31861686Y43387111D01*
X31898930Y43293042D01*
X31953736Y43207999D01*
X32024017Y43135222D01*
X32107096Y43077481D01*
X32199807Y43036976D01*
X32298620Y43015251D01*
X32399771Y43013132D01*
X32499407Y43030700D01*
X32593733Y43067287D01*
X32679156Y43121498D01*
X32752423Y43191269D01*
X32810743Y43273943D01*
X32851894Y43366369D01*
X32874308Y43465028D01*
X32875644Y43560711D01*
X32902466Y43587532D01*
X33460367Y44145433D01*
X33480487Y44169929D01*
X33500831Y44194173D01*
X33501697Y44195749D01*
X33502845Y44197146D01*
X33517825Y44225085D01*
X33533072Y44252817D01*
X33533617Y44254538D01*
X33534469Y44256125D01*
X33543724Y44286398D01*
X33553307Y44316607D01*
X33553508Y44318400D01*
X33554035Y44320123D01*
X33557233Y44351610D01*
X33560767Y44383112D01*
X33560791Y44386637D01*
X33560798Y44386703D01*
X33560792Y44386765D01*
X33560800Y44387900D01*
X33560800Y62778078D01*
X33691316Y62647562D01*
X33750509Y62706756D01*
X33843393Y62578005D01*
X34033798Y62508784D01*
X34234048Y62478040D01*
X34436448Y62486953D01*
X34633221Y62535181D01*
X34736607Y62578005D01*
X34829492Y62706757D01*
X34290000Y63246249D01*
X34275858Y63232107D01*
X34012106Y63495858D01*
X34026249Y63510000D01*
X34012106Y63524142D01*
X34275858Y63787893D01*
X34290000Y63773751D01*
X34829492Y64313243D01*
X34736607Y64441995D01*
X34546202Y64511216D01*
X34345952Y64541960D01*
X34143552Y64533047D01*
X33946779Y64484819D01*
X33843393Y64441995D01*
X33750509Y64313245D01*
X33691316Y64372438D01*
X33560800Y64241922D01*
X33560800Y64835866D01*
X33882495Y65157562D01*
X33985419Y65112595D01*
X34173296Y65071288D01*
X34365618Y65067259D01*
X34555060Y65100663D01*
X34734406Y65170226D01*
X34896824Y65273300D01*
X35036129Y65405959D01*
X35147014Y65563148D01*
X35217100Y65720564D01*
X35217100Y63960139D01*
X35093243Y64049492D01*
X34829492Y63785741D01*
X34553751Y63510000D01*
X35093243Y62970508D01*
X35217100Y63059862D01*
X35217100Y62390000D01*
X35220191Y62358465D01*
X35222952Y62326923D01*
X35223453Y62325197D01*
X35223630Y62323397D01*
X35232797Y62293034D01*
X35241622Y62262658D01*
X35242451Y62261058D01*
X35242973Y62259331D01*
X35257848Y62231354D01*
X35272420Y62203243D01*
X35273544Y62201835D01*
X35274391Y62200242D01*
X35294409Y62175698D01*
X35314171Y62150942D01*
X35316646Y62148432D01*
X35316688Y62148381D01*
X35316735Y62148342D01*
X35317533Y62147533D01*
X36177533Y61287533D01*
X36202028Y61267413D01*
X36226273Y61247069D01*
X36227848Y61246203D01*
X36229246Y61245055D01*
X36257184Y61230075D01*
X36284917Y61214828D01*
X36286637Y61214283D01*
X36288225Y61213431D01*
X36318497Y61204176D01*
X36348707Y61194593D01*
X36350499Y61194392D01*
X36352223Y61193865D01*
X36383709Y61190667D01*
X36415212Y61187133D01*
X36418736Y61187109D01*
X36418803Y61187102D01*
X36418864Y61187108D01*
X36420000Y61187100D01*
X46227966Y61187100D01*
X46637100Y60777966D01*
X46637100Y56760000D01*
X46640191Y56728465D01*
X46642952Y56696923D01*
X46643453Y56695197D01*
X46643630Y56693397D01*
X46652797Y56663034D01*
X46661622Y56632658D01*
X46662451Y56631058D01*
X46662973Y56629331D01*
X46677848Y56601354D01*
X46692420Y56573243D01*
X46693544Y56571835D01*
X46694391Y56570242D01*
X46714409Y56545698D01*
X46734171Y56520942D01*
X46736646Y56518432D01*
X46736688Y56518381D01*
X46736735Y56518342D01*
X46737533Y56517533D01*
X46907532Y56347534D01*
X46902250Y56322684D01*
X44038666Y59186268D01*
X44035590Y59190039D01*
X44015829Y59214794D01*
X44013353Y59217305D01*
X44013312Y59217355D01*
X44013264Y59217395D01*
X44012467Y59218203D01*
X43715309Y59515361D01*
X43770743Y59593943D01*
X43811894Y59686369D01*
X43834308Y59785028D01*
X43835922Y59900587D01*
X43816271Y59999833D01*
X43777717Y60093372D01*
X43721728Y60177641D01*
X43650438Y60249431D01*
X43566562Y60306006D01*
X43473294Y60345212D01*
X43374187Y60365556D01*
X43273016Y60366262D01*
X43173635Y60347305D01*
X43079829Y60309404D01*
X42995171Y60254006D01*
X42922886Y60183219D01*
X42865726Y60099739D01*
X42825870Y60006747D01*
X42804835Y59907785D01*
X42803422Y59806622D01*
X42821686Y59707111D01*
X42858930Y59613042D01*
X42913736Y59527999D01*
X42977100Y59462385D01*
X42977100Y59425736D01*
X42977100Y59420000D01*
X42980191Y59388465D01*
X42982952Y59356923D01*
X42983453Y59355197D01*
X42983630Y59353397D01*
X42992797Y59323034D01*
X43001622Y59292658D01*
X43002451Y59291058D01*
X43002973Y59289331D01*
X43017848Y59261354D01*
X43032420Y59233243D01*
X43033544Y59231835D01*
X43034391Y59230242D01*
X43054409Y59205698D01*
X43074171Y59180942D01*
X43076646Y59178432D01*
X43076688Y59178381D01*
X43076735Y59178342D01*
X43077533Y59177533D01*
X43427100Y58827966D01*
X43427100Y53336853D01*
X43372886Y53283762D01*
X43315726Y53200282D01*
X43275870Y53107290D01*
X43254835Y53008328D01*
X43253422Y52907165D01*
X43271686Y52807654D01*
X43308930Y52713585D01*
X43363736Y52628542D01*
X43434017Y52555765D01*
X43517096Y52498024D01*
X43609807Y52457519D01*
X43708620Y52435794D01*
X43809771Y52433675D01*
X43909407Y52451243D01*
X44003733Y52487830D01*
X44089156Y52542041D01*
X44162423Y52611812D01*
X44220743Y52694486D01*
X44261894Y52786912D01*
X44284308Y52885571D01*
X44285922Y53001130D01*
X44266271Y53100376D01*
X44227717Y53193915D01*
X44171728Y53278184D01*
X44112900Y53337425D01*
X44112900Y58142166D01*
X46857533Y55397533D01*
X46882028Y55377413D01*
X46906273Y55357069D01*
X46907848Y55356203D01*
X46909246Y55355055D01*
X46937184Y55340075D01*
X46964917Y55324828D01*
X46966637Y55324283D01*
X46968225Y55323431D01*
X46998497Y55314176D01*
X47028707Y55304593D01*
X47030499Y55304392D01*
X47032223Y55303865D01*
X47063709Y55300667D01*
X47095212Y55297133D01*
X47098736Y55297109D01*
X47098803Y55297102D01*
X47098864Y55297108D01*
X47100000Y55297100D01*
X48087416Y55297100D01*
G36*
X49996880Y45272047D02*
X49938913Y45187387D01*
X49863364Y45011118D01*
X49823492Y44823533D01*
X49820814Y44631775D01*
X49855433Y44443150D01*
X49908977Y44307912D01*
X49795534Y44194468D01*
X49287533Y43686467D01*
X49267412Y43661972D01*
X49247069Y43637727D01*
X49246202Y43636152D01*
X49245055Y43634754D01*
X49230074Y43606816D01*
X49214828Y43579083D01*
X49214282Y43577363D01*
X49213431Y43575775D01*
X49204175Y43545503D01*
X49194593Y43515293D01*
X49194391Y43513501D01*
X49193865Y43511777D01*
X49190666Y43480291D01*
X49187133Y43448788D01*
X49187108Y43445264D01*
X49187102Y43445197D01*
X49187107Y43445136D01*
X49187100Y43444000D01*
X49187100Y42490992D01*
X49127613Y42635318D01*
X49021485Y42795052D01*
X48886353Y42931131D01*
X48727364Y43038371D01*
X48550572Y43112687D01*
X48362713Y43151249D01*
X48170942Y43152588D01*
X47982562Y43116653D01*
X47804750Y43044812D01*
X47644279Y42939802D01*
X47507260Y42805624D01*
X47398913Y42647387D01*
X47323364Y42471118D01*
X47283492Y42283533D01*
X47280814Y42091775D01*
X47315433Y41903150D01*
X47368977Y41767912D01*
X43674565Y38073499D01*
X34768294Y38073499D01*
X34787802Y38089410D01*
X34812558Y38109171D01*
X34815068Y38111647D01*
X34815119Y38111688D01*
X34815158Y38111736D01*
X34815967Y38112533D01*
X42410534Y45707100D01*
X48768166Y45707100D01*
X48665459Y45604394D01*
X48550572Y45652687D01*
X48362713Y45691249D01*
X48170942Y45692588D01*
X47982562Y45656653D01*
X47804750Y45584812D01*
X47644279Y45479802D01*
X47507260Y45345624D01*
X47398913Y45187387D01*
X47323364Y45011118D01*
X47283492Y44823533D01*
X47280814Y44631775D01*
X47315433Y44443150D01*
X47386031Y44264841D01*
X47489918Y44103640D01*
X47623137Y43965688D01*
X47780613Y43856239D01*
X47956350Y43779461D01*
X48143652Y43738280D01*
X48335387Y43734264D01*
X48524249Y43767566D01*
X48703047Y43836917D01*
X48864969Y43939675D01*
X49003848Y44071928D01*
X49114394Y44228637D01*
X49192396Y44403833D01*
X49234884Y44590844D01*
X49237942Y44809888D01*
X49200693Y44998012D01*
X49150565Y45119632D01*
X49164033Y45133099D01*
X49715899Y45133099D01*
X49747434Y45136191D01*
X49778976Y45138951D01*
X49780702Y45139453D01*
X49782502Y45139629D01*
X49812865Y45148797D01*
X49843241Y45157621D01*
X49844841Y45158451D01*
X49846568Y45158972D01*
X49874545Y45173848D01*
X49902656Y45188419D01*
X49904064Y45189544D01*
X49905657Y45190390D01*
X49930201Y45210409D01*
X49954957Y45230170D01*
X49957467Y45232646D01*
X49957518Y45232687D01*
X49957557Y45232735D01*
X49958366Y45233532D01*
X49996880Y45272047D01*
X49996880Y45272047D01*
G37*
X49996880Y45272047D02*
X49938913Y45187387D01*
X49863364Y45011118D01*
X49823492Y44823533D01*
X49820814Y44631775D01*
X49855433Y44443150D01*
X49908977Y44307912D01*
X49795534Y44194468D01*
X49287533Y43686467D01*
X49267412Y43661972D01*
X49247069Y43637727D01*
X49246202Y43636152D01*
X49245055Y43634754D01*
X49230074Y43606816D01*
X49214828Y43579083D01*
X49214282Y43577363D01*
X49213431Y43575775D01*
X49204175Y43545503D01*
X49194593Y43515293D01*
X49194391Y43513501D01*
X49193865Y43511777D01*
X49190666Y43480291D01*
X49187133Y43448788D01*
X49187108Y43445264D01*
X49187102Y43445197D01*
X49187107Y43445136D01*
X49187100Y43444000D01*
X49187100Y42490992D01*
X49127613Y42635318D01*
X49021485Y42795052D01*
X48886353Y42931131D01*
X48727364Y43038371D01*
X48550572Y43112687D01*
X48362713Y43151249D01*
X48170942Y43152588D01*
X47982562Y43116653D01*
X47804750Y43044812D01*
X47644279Y42939802D01*
X47507260Y42805624D01*
X47398913Y42647387D01*
X47323364Y42471118D01*
X47283492Y42283533D01*
X47280814Y42091775D01*
X47315433Y41903150D01*
X47368977Y41767912D01*
X43674565Y38073499D01*
X34768294Y38073499D01*
X34787802Y38089410D01*
X34812558Y38109171D01*
X34815068Y38111647D01*
X34815119Y38111688D01*
X34815158Y38111736D01*
X34815967Y38112533D01*
X42410534Y45707100D01*
X48768166Y45707100D01*
X48665459Y45604394D01*
X48550572Y45652687D01*
X48362713Y45691249D01*
X48170942Y45692588D01*
X47982562Y45656653D01*
X47804750Y45584812D01*
X47644279Y45479802D01*
X47507260Y45345624D01*
X47398913Y45187387D01*
X47323364Y45011118D01*
X47283492Y44823533D01*
X47280814Y44631775D01*
X47315433Y44443150D01*
X47386031Y44264841D01*
X47489918Y44103640D01*
X47623137Y43965688D01*
X47780613Y43856239D01*
X47956350Y43779461D01*
X48143652Y43738280D01*
X48335387Y43734264D01*
X48524249Y43767566D01*
X48703047Y43836917D01*
X48864969Y43939675D01*
X49003848Y44071928D01*
X49114394Y44228637D01*
X49192396Y44403833D01*
X49234884Y44590844D01*
X49237942Y44809888D01*
X49200693Y44998012D01*
X49150565Y45119632D01*
X49164033Y45133099D01*
X49715899Y45133099D01*
X49747434Y45136191D01*
X49778976Y45138951D01*
X49780702Y45139453D01*
X49782502Y45139629D01*
X49812865Y45148797D01*
X49843241Y45157621D01*
X49844841Y45158451D01*
X49846568Y45158972D01*
X49874545Y45173848D01*
X49902656Y45188419D01*
X49904064Y45189544D01*
X49905657Y45190390D01*
X49930201Y45210409D01*
X49954957Y45230170D01*
X49957467Y45232646D01*
X49957518Y45232687D01*
X49957557Y45232735D01*
X49958366Y45233532D01*
X49996880Y45272047D01*
G36*
X50938815Y59925601D02*
X50824244Y59850628D01*
X50723935Y59752398D01*
X50644617Y59636556D01*
X50638525Y59622344D01*
X50614927Y59636176D01*
X50268751Y59290000D01*
X50282893Y59275858D01*
X50019142Y59012107D01*
X50005000Y59026249D01*
X49741249Y58762498D01*
X49741249Y59290000D01*
X49395073Y59636176D01*
X49293324Y59576537D01*
X49251098Y59432190D01*
X49237844Y59282379D01*
X49254072Y59132860D01*
X49293324Y59003463D01*
X49395073Y58943824D01*
X49741249Y59290000D01*
X49741249Y58762498D01*
X49658824Y58680073D01*
X49718463Y58578324D01*
X49862810Y58536098D01*
X50012621Y58522844D01*
X50024162Y58524097D01*
X49757533Y58257467D01*
X49737412Y58232972D01*
X49717069Y58208727D01*
X49716202Y58207152D01*
X49715055Y58205754D01*
X49700074Y58177816D01*
X49684828Y58150083D01*
X49684282Y58148363D01*
X49683431Y58146775D01*
X49674175Y58116503D01*
X49664593Y58086293D01*
X49664391Y58084501D01*
X49663865Y58082777D01*
X49660666Y58051291D01*
X49657133Y58019788D01*
X49657108Y58016264D01*
X49657102Y58016197D01*
X49657107Y58016136D01*
X49657100Y58015000D01*
X49657100Y57482034D01*
X48157966Y55982900D01*
X47864728Y55982900D01*
X47901892Y56066369D01*
X47924306Y56165028D01*
X47925920Y56280587D01*
X47906269Y56379833D01*
X47867715Y56473372D01*
X47811726Y56557641D01*
X47740436Y56629431D01*
X47656560Y56686006D01*
X47563292Y56725212D01*
X47483302Y56741632D01*
X47322900Y56902034D01*
X47322900Y60920000D01*
X47319808Y60951532D01*
X47317048Y60983077D01*
X47316546Y60984804D01*
X47316370Y60986603D01*
X47307202Y61016967D01*
X47298378Y61047342D01*
X47297548Y61048943D01*
X47297027Y61050669D01*
X47282151Y61078647D01*
X47267580Y61106757D01*
X47266455Y61108166D01*
X47265609Y61109758D01*
X47245590Y61134303D01*
X47225829Y61159058D01*
X47223353Y61161569D01*
X47223312Y61161619D01*
X47223264Y61161659D01*
X47222467Y61162467D01*
X46612467Y61772467D01*
X46587971Y61792588D01*
X46563727Y61812931D01*
X46562151Y61813798D01*
X46560754Y61814945D01*
X46532815Y61829926D01*
X46505083Y61845172D01*
X46503362Y61845718D01*
X46501775Y61846569D01*
X46471502Y61855825D01*
X46441293Y61865407D01*
X46439500Y61865609D01*
X46437777Y61866135D01*
X46406290Y61869334D01*
X46374788Y61872867D01*
X46371263Y61872892D01*
X46371197Y61872898D01*
X46371135Y61872893D01*
X46370000Y61872900D01*
X43567242Y61872900D01*
X44245035Y62550694D01*
X44333296Y62531288D01*
X44525618Y62527259D01*
X44715060Y62560663D01*
X44894406Y62630226D01*
X45056824Y62733300D01*
X45196129Y62865959D01*
X45307014Y63023148D01*
X45371105Y63167100D01*
X46820000Y63167100D01*
X46851535Y63170192D01*
X46883077Y63172952D01*
X46884803Y63173454D01*
X46886603Y63173630D01*
X46916966Y63182798D01*
X46947342Y63191622D01*
X46948942Y63192452D01*
X46950669Y63192973D01*
X46978646Y63207849D01*
X47006757Y63222420D01*
X47008165Y63223545D01*
X47009758Y63224391D01*
X47034302Y63244410D01*
X47059058Y63264171D01*
X47061568Y63266647D01*
X47061619Y63266688D01*
X47061658Y63266736D01*
X47062467Y63267533D01*
X47822034Y64027100D01*
X49288055Y64027100D01*
X49288055Y63870000D01*
X49290903Y63834965D01*
X49309083Y63776826D01*
X49342709Y63726033D01*
X49389131Y63686590D01*
X49444688Y63661608D01*
X49505000Y63653055D01*
X49715696Y63653055D01*
X50005000Y63363751D01*
X50294304Y63653055D01*
X50505000Y63653055D01*
X50540035Y63655903D01*
X50598174Y63674083D01*
X50648967Y63707709D01*
X50688410Y63754131D01*
X50713392Y63809688D01*
X50721945Y63870000D01*
X50721945Y63912083D01*
X50808766Y63822177D01*
X50924051Y63742051D01*
X50938815Y63735601D01*
X50824244Y63660628D01*
X50723935Y63562398D01*
X50644617Y63446556D01*
X50638525Y63432344D01*
X50614927Y63446176D01*
X50268751Y63100000D01*
X50614927Y62753824D01*
X50637750Y62767202D01*
X50711239Y62653169D01*
X50808766Y62552177D01*
X50924051Y62472051D01*
X50938815Y62465601D01*
X50824244Y62390628D01*
X50723935Y62292398D01*
X50644617Y62176556D01*
X50638525Y62162344D01*
X50614927Y62176176D01*
X50351176Y61912425D01*
X50351176Y62439927D01*
X50336479Y62465000D01*
X50351176Y62490073D01*
X50005000Y62836249D01*
X49741249Y62572498D01*
X49741249Y63100000D01*
X49395073Y63446176D01*
X49293324Y63386537D01*
X49251098Y63242190D01*
X49237844Y63092379D01*
X49254072Y62942860D01*
X49293324Y62813463D01*
X49395073Y62753824D01*
X49741249Y63100000D01*
X49741249Y62572498D01*
X49658824Y62490073D01*
X49673520Y62465000D01*
X49658824Y62439927D01*
X50005000Y62093751D01*
X50351176Y62439927D01*
X50351176Y61912425D01*
X50268751Y61830000D01*
X50614927Y61483824D01*
X50637750Y61497202D01*
X50711239Y61383169D01*
X50808766Y61282177D01*
X50924051Y61202051D01*
X50938815Y61195601D01*
X50824244Y61120628D01*
X50723935Y61022398D01*
X50644617Y60906556D01*
X50640489Y60896925D01*
X50640161Y60897721D01*
X50562467Y61014659D01*
X50463540Y61114279D01*
X50347147Y61192788D01*
X50337548Y61196823D01*
X50351176Y61220073D01*
X50005000Y61566249D01*
X49741249Y61302498D01*
X49741249Y61830000D01*
X49395073Y62176176D01*
X49293324Y62116537D01*
X49251098Y61972190D01*
X49237844Y61822379D01*
X49254072Y61672860D01*
X49293324Y61543463D01*
X49395073Y61483824D01*
X49741249Y61830000D01*
X49741249Y61302498D01*
X49658824Y61220073D01*
X49671989Y61197612D01*
X49671722Y61197503D01*
X49554244Y61120628D01*
X49453935Y61022398D01*
X49374617Y60906556D01*
X49319309Y60777514D01*
X49290119Y60640187D01*
X49288159Y60499805D01*
X49313503Y60361716D01*
X49365186Y60231180D01*
X49441239Y60113169D01*
X49538766Y60012177D01*
X49654051Y59932051D01*
X49672841Y59923842D01*
X49658824Y59899927D01*
X50005000Y59553751D01*
X50351176Y59899927D01*
X50337576Y59923130D01*
X50447885Y59993133D01*
X50549555Y60089953D01*
X50630483Y60204676D01*
X50639383Y60224667D01*
X50711239Y60113169D01*
X50808766Y60012177D01*
X50924051Y59932051D01*
X50938815Y59925601D01*
X50938815Y59925601D01*
G37*
X50938815Y59925601D02*
X50824244Y59850628D01*
X50723935Y59752398D01*
X50644617Y59636556D01*
X50638525Y59622344D01*
X50614927Y59636176D01*
X50268751Y59290000D01*
X50282893Y59275858D01*
X50019142Y59012107D01*
X50005000Y59026249D01*
X49741249Y58762498D01*
X49741249Y59290000D01*
X49395073Y59636176D01*
X49293324Y59576537D01*
X49251098Y59432190D01*
X49237844Y59282379D01*
X49254072Y59132860D01*
X49293324Y59003463D01*
X49395073Y58943824D01*
X49741249Y59290000D01*
X49741249Y58762498D01*
X49658824Y58680073D01*
X49718463Y58578324D01*
X49862810Y58536098D01*
X50012621Y58522844D01*
X50024162Y58524097D01*
X49757533Y58257467D01*
X49737412Y58232972D01*
X49717069Y58208727D01*
X49716202Y58207152D01*
X49715055Y58205754D01*
X49700074Y58177816D01*
X49684828Y58150083D01*
X49684282Y58148363D01*
X49683431Y58146775D01*
X49674175Y58116503D01*
X49664593Y58086293D01*
X49664391Y58084501D01*
X49663865Y58082777D01*
X49660666Y58051291D01*
X49657133Y58019788D01*
X49657108Y58016264D01*
X49657102Y58016197D01*
X49657107Y58016136D01*
X49657100Y58015000D01*
X49657100Y57482034D01*
X48157966Y55982900D01*
X47864728Y55982900D01*
X47901892Y56066369D01*
X47924306Y56165028D01*
X47925920Y56280587D01*
X47906269Y56379833D01*
X47867715Y56473372D01*
X47811726Y56557641D01*
X47740436Y56629431D01*
X47656560Y56686006D01*
X47563292Y56725212D01*
X47483302Y56741632D01*
X47322900Y56902034D01*
X47322900Y60920000D01*
X47319808Y60951532D01*
X47317048Y60983077D01*
X47316546Y60984804D01*
X47316370Y60986603D01*
X47307202Y61016967D01*
X47298378Y61047342D01*
X47297548Y61048943D01*
X47297027Y61050669D01*
X47282151Y61078647D01*
X47267580Y61106757D01*
X47266455Y61108166D01*
X47265609Y61109758D01*
X47245590Y61134303D01*
X47225829Y61159058D01*
X47223353Y61161569D01*
X47223312Y61161619D01*
X47223264Y61161659D01*
X47222467Y61162467D01*
X46612467Y61772467D01*
X46587971Y61792588D01*
X46563727Y61812931D01*
X46562151Y61813798D01*
X46560754Y61814945D01*
X46532815Y61829926D01*
X46505083Y61845172D01*
X46503362Y61845718D01*
X46501775Y61846569D01*
X46471502Y61855825D01*
X46441293Y61865407D01*
X46439500Y61865609D01*
X46437777Y61866135D01*
X46406290Y61869334D01*
X46374788Y61872867D01*
X46371263Y61872892D01*
X46371197Y61872898D01*
X46371135Y61872893D01*
X46370000Y61872900D01*
X43567242Y61872900D01*
X44245035Y62550694D01*
X44333296Y62531288D01*
X44525618Y62527259D01*
X44715060Y62560663D01*
X44894406Y62630226D01*
X45056824Y62733300D01*
X45196129Y62865959D01*
X45307014Y63023148D01*
X45371105Y63167100D01*
X46820000Y63167100D01*
X46851535Y63170192D01*
X46883077Y63172952D01*
X46884803Y63173454D01*
X46886603Y63173630D01*
X46916966Y63182798D01*
X46947342Y63191622D01*
X46948942Y63192452D01*
X46950669Y63192973D01*
X46978646Y63207849D01*
X47006757Y63222420D01*
X47008165Y63223545D01*
X47009758Y63224391D01*
X47034302Y63244410D01*
X47059058Y63264171D01*
X47061568Y63266647D01*
X47061619Y63266688D01*
X47061658Y63266736D01*
X47062467Y63267533D01*
X47822034Y64027100D01*
X49288055Y64027100D01*
X49288055Y63870000D01*
X49290903Y63834965D01*
X49309083Y63776826D01*
X49342709Y63726033D01*
X49389131Y63686590D01*
X49444688Y63661608D01*
X49505000Y63653055D01*
X49715696Y63653055D01*
X50005000Y63363751D01*
X50294304Y63653055D01*
X50505000Y63653055D01*
X50540035Y63655903D01*
X50598174Y63674083D01*
X50648967Y63707709D01*
X50688410Y63754131D01*
X50713392Y63809688D01*
X50721945Y63870000D01*
X50721945Y63912083D01*
X50808766Y63822177D01*
X50924051Y63742051D01*
X50938815Y63735601D01*
X50824244Y63660628D01*
X50723935Y63562398D01*
X50644617Y63446556D01*
X50638525Y63432344D01*
X50614927Y63446176D01*
X50268751Y63100000D01*
X50614927Y62753824D01*
X50637750Y62767202D01*
X50711239Y62653169D01*
X50808766Y62552177D01*
X50924051Y62472051D01*
X50938815Y62465601D01*
X50824244Y62390628D01*
X50723935Y62292398D01*
X50644617Y62176556D01*
X50638525Y62162344D01*
X50614927Y62176176D01*
X50351176Y61912425D01*
X50351176Y62439927D01*
X50336479Y62465000D01*
X50351176Y62490073D01*
X50005000Y62836249D01*
X49741249Y62572498D01*
X49741249Y63100000D01*
X49395073Y63446176D01*
X49293324Y63386537D01*
X49251098Y63242190D01*
X49237844Y63092379D01*
X49254072Y62942860D01*
X49293324Y62813463D01*
X49395073Y62753824D01*
X49741249Y63100000D01*
X49741249Y62572498D01*
X49658824Y62490073D01*
X49673520Y62465000D01*
X49658824Y62439927D01*
X50005000Y62093751D01*
X50351176Y62439927D01*
X50351176Y61912425D01*
X50268751Y61830000D01*
X50614927Y61483824D01*
X50637750Y61497202D01*
X50711239Y61383169D01*
X50808766Y61282177D01*
X50924051Y61202051D01*
X50938815Y61195601D01*
X50824244Y61120628D01*
X50723935Y61022398D01*
X50644617Y60906556D01*
X50640489Y60896925D01*
X50640161Y60897721D01*
X50562467Y61014659D01*
X50463540Y61114279D01*
X50347147Y61192788D01*
X50337548Y61196823D01*
X50351176Y61220073D01*
X50005000Y61566249D01*
X49741249Y61302498D01*
X49741249Y61830000D01*
X49395073Y62176176D01*
X49293324Y62116537D01*
X49251098Y61972190D01*
X49237844Y61822379D01*
X49254072Y61672860D01*
X49293324Y61543463D01*
X49395073Y61483824D01*
X49741249Y61830000D01*
X49741249Y61302498D01*
X49658824Y61220073D01*
X49671989Y61197612D01*
X49671722Y61197503D01*
X49554244Y61120628D01*
X49453935Y61022398D01*
X49374617Y60906556D01*
X49319309Y60777514D01*
X49290119Y60640187D01*
X49288159Y60499805D01*
X49313503Y60361716D01*
X49365186Y60231180D01*
X49441239Y60113169D01*
X49538766Y60012177D01*
X49654051Y59932051D01*
X49672841Y59923842D01*
X49658824Y59899927D01*
X50005000Y59553751D01*
X50351176Y59899927D01*
X50337576Y59923130D01*
X50447885Y59993133D01*
X50549555Y60089953D01*
X50630483Y60204676D01*
X50639383Y60224667D01*
X50711239Y60113169D01*
X50808766Y60012177D01*
X50924051Y59932051D01*
X50938815Y59925601D01*
M02*
